<svg width="106" height="46" viewBox="0 0 106 46" fill="none" xmlns="http://www.w3.org/2000/svg">
<path d="M98.0216 38.8738L98.5394 42.421H98.5567L100.43 38.8738H101.232L98.2805 44.0867C98.1424 44.3025 98.1424 44.3025 98.0043 44.4967C97.8662 44.6909 97.8662 44.6909 97.7022 44.8333C97.5383 44.9757 97.5383 44.9757 97.3311 45.0577C97.124 45.1397 97.124 45.1396 96.8478 45.1396C96.7183 45.1396 96.7183 45.1397 96.5803 45.1094C96.4422 45.0792 96.4422 45.0792 96.3386 45.0275L96.468 44.4319C96.5544 44.4837 96.5544 44.4837 96.6752 44.5182C96.796 44.5528 96.796 44.5528 96.8823 44.5528C97.1326 44.5528 97.1326 44.5528 97.288 44.419C97.4433 44.2852 97.4433 44.2852 97.5728 44.0694L98.0216 43.3358L97.2362 38.8738H98.0216ZM85.3862 38.7702C85.8177 38.7702 85.8177 38.7702 86.1414 38.904C86.4651 39.0377 86.4651 39.0377 86.6895 39.2794C86.9138 39.5211 86.9139 39.5211 87.0261 39.8577C87.1383 40.1943 87.1383 40.1943 87.1383 40.5999C87.1383 41.1091 87.1383 41.1091 86.97 41.614C86.8017 42.1189 86.8017 42.1189 86.4866 42.5245C86.1716 42.9302 86.1716 42.9302 85.7099 43.1805C85.2481 43.4308 85.2481 43.4308 84.6612 43.4308C84.4627 43.4308 84.4627 43.4308 84.2426 43.3962C84.0226 43.3617 84.0226 43.3617 83.8284 43.2711C83.6342 43.1805 83.6342 43.1805 83.4831 43.0294C83.3321 42.8784 83.3321 42.8784 83.2717 42.654H83.2544L82.7797 45.0361H82.0634L83.358 38.8738H84.0485L83.8931 39.5124H83.9104C84.2383 39.0809 84.2383 39.0809 84.5879 38.9255C84.9374 38.7702 84.9374 38.7702 85.3862 38.7702ZM30.7279 37.0268C31.1853 37.0268 31.1853 37.0268 31.5953 37.1433C32.0053 37.2598 32.0053 37.2598 32.316 37.4972C32.6267 37.7345 32.6267 37.7345 32.8036 38.1056C32.9805 38.4767 32.9805 38.4767 32.9633 38.9946H32.1434C32.152 38.6321 32.152 38.6321 32.0527 38.3861C31.9535 38.1401 31.9535 38.1401 31.7679 37.9891C31.5824 37.8381 31.5824 37.8381 31.3148 37.7777C31.0473 37.7172 31.0473 37.7172 30.7279 37.7172C30.5035 37.7172 30.5035 37.7172 30.2532 37.7733C30.0029 37.8294 30.0029 37.8294 29.7915 37.9503C29.58 38.0711 29.58 38.0711 29.4419 38.261C29.3039 38.4508 29.3039 38.4509 29.3039 38.727C29.3039 38.9514 29.3039 38.9514 29.3815 39.1111C29.4592 39.2708 29.4592 39.2708 29.593 39.3873C29.7268 39.5038 29.7268 39.5038 29.9123 39.5815C30.0979 39.6591 30.0979 39.6592 30.305 39.7196L31.1336 39.944C31.4184 40.0216 31.4184 40.0216 31.6859 40.1382C31.9535 40.2547 31.9535 40.2547 32.1606 40.4402C32.3678 40.6258 32.3678 40.6258 32.4929 40.9106C32.618 41.1954 32.618 41.1954 32.618 41.6097C32.618 42.093 32.618 42.093 32.398 42.4426C32.1779 42.7921 32.1779 42.7921 31.8326 43.0208C31.4874 43.2495 31.4874 43.2495 31.0602 43.3617C30.633 43.4739 30.633 43.4739 30.2187 43.4739C29.6663 43.4739 29.6663 43.4739 29.2003 43.3488C28.7342 43.2236 28.7342 43.2236 28.4106 42.9647C28.0869 42.7058 28.0869 42.7058 27.9186 42.2958C27.7503 41.8859 27.7503 41.8859 27.7935 41.3162H28.6134C28.5961 41.7305 28.5961 41.7305 28.7083 42.0153C28.8205 42.3001 28.8205 42.3001 29.0406 42.4728C29.2607 42.6454 29.2607 42.6454 29.5714 42.7187C29.8821 42.7921 29.8821 42.7921 30.2532 42.7921C30.538 42.7921 30.538 42.7921 30.8185 42.7231C31.099 42.654 31.099 42.654 31.3148 42.5116C31.5306 42.3692 31.5306 42.3692 31.6644 42.1448C31.7981 41.9204 31.7981 41.9204 31.7981 41.6097C31.7981 41.3767 31.7981 41.3767 31.7118 41.2084C31.6255 41.0401 31.6255 41.0401 31.4745 40.9235C31.3234 40.807 31.3234 40.807 31.1249 40.7294C30.9264 40.6517 30.9264 40.6517 30.702 40.5913L29.8648 40.3669C29.5887 40.2892 29.5887 40.2892 29.3384 40.164C29.0881 40.0389 29.0881 40.0389 28.8982 39.8533C28.7083 39.6678 28.7083 39.6678 28.5961 39.4132C28.4839 39.1586 28.4839 39.1586 28.4839 38.8133C28.4839 38.3645 28.4839 38.3645 28.6824 38.0323C28.8809 37.7 28.8809 37.7 29.196 37.4756C29.511 37.2512 29.511 37.2512 29.9123 37.139C30.3136 37.0268 30.3136 37.0268 30.7279 37.0268ZM67.6501 37.0268C68.1507 37.0268 68.1507 37.0268 68.5779 37.1606C69.0051 37.2943 69.0051 37.2943 69.3201 37.5576C69.6352 37.8208 69.6352 37.8208 69.8164 38.2221C69.9977 38.6235 69.9977 38.6235 69.9977 39.1586H69.1777C69.1777 38.4336 69.1777 38.4336 68.7505 38.0754C68.3233 37.7172 68.3233 37.7172 67.6501 37.7172C67.0028 37.7172 67.0028 37.7172 66.5238 37.9891C66.0448 38.261 66.0448 38.261 65.7255 38.6925C65.4061 39.124 65.4061 39.124 65.2464 39.6721C65.0868 40.2201 65.0868 40.2201 65.0868 40.7811C65.0868 41.2299 65.0868 41.2299 65.199 41.6011C65.3112 41.9722 65.3112 41.9722 65.5356 42.2354C65.76 42.4987 65.76 42.4987 66.1009 42.6454C66.4418 42.7921 66.4418 42.7921 66.9079 42.7921C67.6674 42.7921 67.6674 42.7921 68.1421 42.3908C68.6167 41.9894 68.6167 41.9894 68.8153 41.2558H69.6352C69.4021 42.2915 69.4021 42.2915 68.7246 42.8827C68.0471 43.4739 68.0471 43.4739 66.9079 43.4739C65.6391 43.4739 65.6391 43.4739 64.953 42.7705C64.2669 42.0671 64.2669 42.0671 64.2669 40.7811C64.2669 40.0303 64.2669 40.0303 64.4999 39.3528C64.7329 38.6752 64.7329 38.6752 65.1688 38.1574C65.6046 37.6396 65.6046 37.6396 66.2347 37.3332C66.8647 37.0268 66.8647 37.0268 67.6501 37.0268ZM72.8113 38.7702C73.7175 38.7702 73.7175 38.7702 74.1922 39.2406C74.6669 39.7109 74.6669 39.7109 74.6669 40.6172C74.6669 41.1609 74.6669 41.1609 74.5029 41.6701C74.3389 42.1793 74.3389 42.1793 74.0196 42.572C73.7002 42.9647 73.7002 42.9647 73.2428 43.1977C72.7854 43.4308 72.7854 43.4308 72.1985 43.4308C71.7583 43.4308 71.7583 43.4308 71.4088 43.2927C71.0592 43.1546 71.0592 43.1546 70.8176 42.9086C70.5759 42.6626 70.5759 42.6626 70.4465 42.3217C70.317 41.9808 70.317 41.9808 70.317 41.5752C70.317 41.0314 70.317 41.0314 70.4853 40.5222C70.6536 40.013 70.6536 40.013 70.9772 39.6246C71.3009 39.2362 71.3009 39.2362 71.7626 39.0032C72.2244 38.7702 72.2244 38.7702 72.8113 38.7702ZM89.9864 38.7702C90.3144 38.7702 90.3144 38.7702 90.6078 38.822C90.9012 38.8738 90.9012 38.8738 91.1256 39.0032C91.35 39.1327 91.35 39.1327 91.4838 39.3528C91.6176 39.5728 91.6176 39.5728 91.6176 39.9094C91.6176 40.0993 91.6176 40.0993 91.5701 40.3194C91.5227 40.5395 91.5227 40.5395 91.4795 40.7207L91.1947 41.9377C91.1688 42.0758 91.1688 42.0757 91.1213 42.2484C91.0739 42.421 91.0739 42.421 91.0739 42.5763C91.0739 42.7317 91.0739 42.7317 91.1343 42.7921C91.1947 42.8525 91.1947 42.8525 91.2896 42.8525C91.3414 42.8525 91.3414 42.8525 91.4061 42.8309C91.4709 42.8094 91.4709 42.8094 91.5227 42.7921L91.4105 43.3358C91.3242 43.3704 91.3241 43.3704 91.1904 43.4006C91.0566 43.4308 91.0566 43.4308 90.9617 43.4308C90.6596 43.4308 90.6596 43.4308 90.5042 43.2668C90.3489 43.1028 90.3489 43.1028 90.3834 42.8094L90.3661 42.7921C90.1331 43.1028 90.1331 43.1028 89.7879 43.2668C89.4426 43.4308 89.4426 43.4308 88.873 43.4308C88.5882 43.4308 88.5882 43.4308 88.3422 43.366C88.0963 43.3013 88.0963 43.3013 87.915 43.1503C87.7338 42.9992 87.7338 42.9992 87.6259 42.7619C87.518 42.5245 87.518 42.5245 87.518 42.1793C87.518 41.6874 87.518 41.6874 87.7295 41.4112C87.9409 41.135 87.9409 41.135 88.2689 40.9926C88.5968 40.8502 88.5968 40.8502 88.9939 40.7984C89.3909 40.7466 89.3909 40.7466 89.762 40.7121C90.0554 40.6862 90.0554 40.6862 90.2669 40.656C90.4783 40.6258 90.4783 40.6258 90.6164 40.5567C90.7545 40.4877 90.7545 40.4877 90.8193 40.3582C90.884 40.2288 90.884 40.2288 90.884 40.0044C90.884 39.8231 90.884 39.8231 90.7977 39.7109C90.7114 39.5987 90.7114 39.5987 90.5819 39.534C90.4524 39.4693 90.4524 39.4693 90.2928 39.4434C90.1331 39.4175 90.1331 39.4175 89.9864 39.4175C89.7793 39.4175 89.7793 39.4175 89.5764 39.4606C89.3736 39.5038 89.3736 39.5038 89.2096 39.6031C89.0456 39.7023 89.0456 39.7023 88.9334 39.8533C88.8212 40.0044 88.8212 40.0044 88.7867 40.2201H88.0531C88.1049 39.849 88.1049 39.849 88.2818 39.5772C88.4588 39.3053 88.4588 39.3053 88.7177 39.124C88.9766 38.9428 88.9766 38.9428 89.3046 38.8565C89.6325 38.7702 89.6325 38.7702 89.9864 38.7702ZM47.0054 37.1735L49.2063 42.2743H49.2235L50.2506 37.1735H51.0446L49.7414 43.3358H48.861L46.6775 38.2696H46.6602L45.6159 43.3358H44.8219L46.1251 37.1735H47.0054ZM80.7688 38.7702C81.0018 38.7702 81.0018 38.7702 81.2262 38.8263C81.4506 38.8824 81.4506 38.8824 81.6275 38.9989C81.8045 39.1154 81.8045 39.1154 81.908 39.3053C82.0116 39.4952 82.0116 39.4952 82.0116 39.7713C82.0116 39.9699 82.0116 39.9699 81.9685 40.2201C81.9253 40.4704 81.9253 40.4704 81.8821 40.6603L81.3212 43.3358H80.5875L81.209 40.505C81.2348 40.4014 81.2348 40.4014 81.2564 40.259C81.278 40.1166 81.278 40.1166 81.278 40.0216C81.278 39.7627 81.278 39.7627 81.0838 39.5901C80.8896 39.4175 80.8896 39.4175 80.5962 39.4175C80.4408 39.4175 80.4408 39.4175 80.2812 39.4693C80.1215 39.5211 80.1215 39.5211 79.9748 39.6031C79.828 39.685 79.828 39.685 79.6986 39.7972C79.5691 39.9094 79.5691 39.9094 79.4742 40.0303C79.2929 40.2288 79.2929 40.2288 79.2066 40.4877C79.1203 40.7466 79.1203 40.7466 79.0599 41.0314L78.568 43.3358H77.8343L78.3694 40.7898C78.4299 40.5308 78.4299 40.5308 78.4687 40.3064C78.5075 40.0821 78.5075 40.0821 78.5075 40.0044C78.5075 39.7282 78.5075 39.7282 78.3479 39.5728C78.1882 39.4175 78.1882 39.4175 77.8861 39.4175C77.5841 39.4175 77.5841 39.4175 77.2863 39.5901C76.9885 39.7627 76.9885 39.7627 76.79 39.9871C76.557 40.2115 76.557 40.2115 76.4707 40.4402C76.3844 40.6689 76.3844 40.6689 76.3153 40.9969L75.8148 43.3358H75.0898L76.0305 38.8738H76.7123L76.5484 39.5383L76.5656 39.5556C76.8504 39.1931 76.8504 39.1931 77.2518 38.9816C77.6531 38.7702 77.6531 38.7702 78.1192 38.7702C78.5421 38.7702 78.5421 38.7702 78.8441 38.9514C79.1462 39.1327 79.1462 39.1327 79.2411 39.5728C79.5001 39.2104 79.5001 39.2104 79.91 38.9903C80.32 38.7702 80.32 38.7702 80.7688 38.7702ZM19.8705 37.1735L19.7151 37.864H17.6438L16.4872 43.3358H15.6673L16.8238 37.864H14.7525L14.8992 37.1735H19.8705ZM56.6028 37.1735L56.4647 37.864H53.0383L52.624 39.8231H55.8174L55.6793 40.5136H52.4773L52.0285 42.6454H55.4981L55.3427 43.3358H51.0532L52.3565 37.1735H56.6028ZM10.2127 37.1735L11.3261 43.3358H10.4803L10.1955 41.4802H7.59761L6.51877 43.3358H5.61255L9.31512 37.1735H10.2127ZM40.7741 37.1735L42.9749 42.2743H42.9922L44.0192 37.1735H44.8132L43.51 43.3358H42.6297L40.4461 38.2696H40.4288L39.3845 43.3358H38.5905L39.8937 37.1735H40.7741ZM34.698 37.1735L35.9581 40.1597L38.2971 37.1735H39.2464L36.2602 40.8588L35.7251 43.3358H34.9224L35.4489 40.8588L33.8263 37.1735H34.698ZM57.9578 37.1735L59.0971 39.6074L61.0735 37.1735H61.997L59.4596 40.2288L61.0217 43.3358H60.1759L58.9331 40.7294L56.8272 43.3358H55.8951L58.562 40.1166L57.0775 37.1735H57.9578ZM22.71 37.1735C23.8579 37.1735 23.8579 37.1735 24.4491 37.8035C25.0403 38.4336 25.0403 38.4336 25.0403 39.5297C25.0403 40.4014 25.0403 40.4014 24.79 41.1048C24.5397 41.8082 24.5397 41.8082 24.0909 42.3045C23.6421 42.8007 23.6421 42.8007 23.0121 43.0683C22.382 43.3358 22.382 43.3358 21.6139 43.3358H19.2491L20.5523 37.1735H22.71ZM95.1476 38.7702C95.7776 38.7702 95.7776 38.7702 96.084 39.0464C96.3904 39.3226 96.3904 39.3225 96.3904 39.9181C96.3904 40.0648 96.3904 40.0648 96.3559 40.2978C96.3213 40.5308 96.3213 40.5308 96.2609 40.7898L95.7172 43.3358H94.9836L95.5532 40.7294C95.5618 40.6603 95.5618 40.6603 95.5791 40.5697C95.5963 40.4791 95.5964 40.4791 95.6136 40.3798C95.6309 40.2806 95.6309 40.2806 95.6438 40.1899C95.6568 40.0993 95.6568 40.0993 95.6568 40.0389C95.6568 39.7196 95.6568 39.7196 95.4324 39.5685C95.208 39.4175 95.208 39.4175 94.88 39.4175C94.5779 39.4175 94.5779 39.4175 94.2802 39.5642C93.9824 39.7109 93.9824 39.7109 93.7753 39.9353C93.5768 40.1079 93.5768 40.1079 93.4646 40.3539C93.3524 40.5999 93.3524 40.5999 93.2833 40.8674L92.7655 43.3358H92.0405L92.9726 38.8738H93.6803L93.5422 39.547H93.5595C93.8357 39.1586 93.8357 39.1586 94.2586 38.9644C94.6815 38.7702 94.6815 38.7702 95.1476 38.7702ZM90.6855 41.0573H90.6682C90.5129 41.1695 90.5129 41.1695 90.2755 41.217C90.0382 41.2645 90.0382 41.2645 89.7706 41.2904C89.5031 41.3162 89.5031 41.3162 89.2312 41.3551C88.9593 41.3939 88.9593 41.3939 88.7436 41.4802C88.5278 41.5665 88.5278 41.5665 88.3897 41.7262C88.2516 41.8859 88.2516 41.8859 88.243 42.1707C88.243 42.4814 88.243 42.4814 88.489 42.6367C88.7349 42.7921 88.7349 42.7921 89.0456 42.7921C89.9173 42.7921 89.9173 42.7921 90.2971 42.2052C90.4783 41.9549 90.4783 41.9549 90.5431 41.6615C90.6078 41.368 90.6078 41.368 90.6855 41.0573ZM72.7595 39.4175C72.3366 39.4175 72.3366 39.4175 72.0172 39.6246C71.6979 39.8318 71.6979 39.8318 71.4821 40.1468C71.2664 40.4618 71.2664 40.4618 71.1585 40.8416C71.0506 41.2213 71.0506 41.2213 71.0506 41.5665C71.0506 42.1189 71.0506 42.1189 71.3613 42.4555C71.672 42.7921 71.672 42.7921 72.2762 42.7921C72.6818 42.7921 72.6818 42.7921 72.9882 42.585C73.2946 42.3778 73.2946 42.3778 73.506 42.0628C73.7175 41.7478 73.7175 41.7478 73.8254 41.3767C73.9333 41.0055 73.9333 41.0055 73.9333 40.6776C73.9333 40.4187 73.9333 40.4187 73.8642 40.1856C73.7952 39.9526 73.7952 39.9526 73.6485 39.7843C73.5017 39.616 73.5017 39.616 73.2816 39.5167C73.0616 39.4175 73.0616 39.4175 72.7595 39.4175ZM85.2568 39.4175C84.8425 39.4175 84.8425 39.4175 84.5145 39.6333C84.1866 39.849 84.1866 39.849 83.9665 40.177C83.7464 40.505 83.7464 40.505 83.6299 40.8933C83.5134 41.2817 83.5134 41.2817 83.5134 41.6356C83.5134 42.1362 83.5134 42.1362 83.8025 42.4641C84.0916 42.7921 84.0916 42.7921 84.6353 42.7921C85.0755 42.7921 85.0755 42.7921 85.4035 42.5893C85.7314 42.3865 85.7314 42.3865 85.9558 42.0671C86.1802 41.7478 86.1802 41.7478 86.2924 41.3594C86.4046 40.971 86.4046 40.971 86.4046 40.5999C86.4046 40.0562 86.4046 40.0562 86.1328 39.7368C85.8609 39.4175 85.8609 39.4175 85.2568 39.4175ZM22.5201 37.864H21.2082L20.1985 42.6454H21.6225C22.2785 42.6454 22.2785 42.6454 22.7661 42.3821C23.2537 42.1189 23.2537 42.1189 23.5774 41.6917C23.901 41.2645 23.901 41.2645 24.0607 40.7207C24.2204 40.177 24.2204 40.177 24.2204 39.616C24.2204 39.2794 24.2204 39.2794 24.147 38.9601C24.0736 38.6407 24.0736 38.6407 23.8838 38.3991C23.6939 38.1574 23.6939 38.1574 23.3616 38.0107C23.0293 37.864 23.0293 37.864 22.5201 37.864ZM9.63446 37.8985H9.6172L7.96873 40.7898H10.0919L9.63446 37.8985ZM72.9275 11.2502L72.1968 14.1663L67.4178 14.1649C65.708 14.1649 64.4277 15.1213 63.685 17.9976C62.9423 20.8744 63.1341 22.9618 65.7674 22.9618L66.4704 22.9613C66.5262 22.9613 66.5841 22.9612 66.6439 22.9612L67.6412 22.9603C67.7118 22.9602 67.7826 22.9601 67.8535 22.9601L68.6825 22.9593C68.7482 22.9592 68.8126 22.9591 68.8754 22.9591L69.6603 22.9583C69.6995 22.9583 69.7356 22.9582 69.7682 22.9582L69.9739 22.958L69.1679 26.2174L64.1985 26.2203C61.745 26.2203 60.2145 25.2426 59.479 23.7313C58.7224 22.1771 58.8053 20.059 59.3361 17.9461C60.1426 14.689 61.2905 11.2502 66.7005 11.2502H72.9275ZM54.1259 11.25C57.3135 11.25 58.8042 14.1367 58.0654 17.0873C57.8175 18.0792 57.514 19.2891 57.514 19.2891H48.6315C47.8456 22.4753 48.8789 22.9577 51.2222 22.9577H56.5847L55.7667 26.2172L49.5478 26.22C47.0948 26.22 45.5633 25.2423 44.8282 23.7316C44.0721 22.1768 44.1546 20.0592 44.6854 17.9458C45.4919 14.6892 46.6397 11.25 52.0498 11.25H54.1259ZM49.2966 7.3563L48.4848 10.5656H42.5997C42.5997 10.5656 43.1137 11.0202 42.9895 11.5163C42.8653 12.0125 39.2706 26.2196 39.2706 26.2196H34.2744L38.234 10.5656H32.4308L33.2353 7.3563H49.2966ZM90.0328 7.3562C92.7112 7.3562 95.4471 9.74912 94.5687 13.7635C94.1549 15.6531 93.1849 19.7559 92.189 22.0817C91.1932 24.4183 89.5869 26.2195 85.9164 26.2195H75.4431C75.4431 26.2195 75.4835 26.0588 75.5566 25.7682L75.6271 25.488C75.9656 24.1423 76.7243 21.127 77.5066 18.0252L77.6873 17.3085C78.5913 13.725 79.4858 10.1884 79.7613 9.13091C79.9272 8.22747 79.0919 7.3562 79.0919 7.3562H90.0328ZM87.9226 10.5655H83.7367C83.7367 10.5655 84.2536 11.0589 84.1289 11.5541C84.0089 12.0333 81.4425 22.1641 81.2526 22.9139L81.2415 22.9577L85.0404 22.9586C86.7843 22.9586 87.539 22.3352 88.0103 20.5165C88.4337 18.8847 89.6454 14.0355 89.9709 12.7191C90.3008 11.3857 89.2263 10.5655 87.9226 10.5655ZM52.6879 14.0563H52.2205C50.5106 14.0563 49.7933 14.6116 49.2711 16.7959H54.5781C54.5781 16.7959 55.3568 14.0563 52.6879 14.0563ZM97.4845 7.36131L97.8594 8.34184L97.987 8.69092H97.998L98.1193 8.34184L98.501 7.36131H98.9809V9.15919H98.5997V8.29833L98.6386 7.82438H98.6328L98.5839 7.97148L98.1308 9.15919H97.8541L97.3958 7.97148L97.3464 7.82438H97.3406L97.3795 8.29833V9.15919H96.9978V7.36131H97.4845ZM96.7954 7.36131V7.65552H96.2431V9.15919H95.8561V7.65552H95.2985V7.36131H96.7954Z" fill="white"/>
<path d="M106 0.354736L98.965 35.2192L0 33.6687L0.0196588 33.5822L97.5457 33.5652L105.913 0.354736H106ZM22.3522 7.35625C25.0335 7.35625 27.7594 9.7662 26.892 13.773C26.482 15.6641 26.0606 17.2297 25.8578 17.9264C25.1975 20.1907 23.247 21.6513 19.5818 22.8054C18.3881 23.1814 16.2396 23.8556 13.9804 24.564L13.3621 24.7579L12.4327 25.0492C8.93066 26.147 5.62209 27.1831 5.62209 27.1831L6.82128 22.4725L18.6938 18.7192C20.2761 18.214 21.1823 17.5854 21.6345 15.7421C21.7072 15.4457 21.7679 15.2016 21.8204 14.9917L21.9158 14.6124C22.0752 13.981 22.1603 13.6486 22.3647 12.7267C22.6615 11.3858 21.656 10.5741 20.4142 10.5741H19.3593L20.1696 7.35625H22.3522ZM18.868 7.35625L18.0505 10.5741H13.984L14.0206 10.6115C14.1343 10.7319 14.469 11.1206 14.391 11.4506L12.3815 19.4046L7.18535 21.0454L9.84218 10.5741H5.8826L6.68238 7.35625H18.868Z" fill="white"/>
</svg>
