<svg width="22" height="20" viewBox="0 0 22 20" fill="none" xmlns="http://www.w3.org/2000/svg">
<path d="M9.90934 0.782164C10.9491 0.206251 12.2471 0.540893 12.885 1.5224L12.9678 1.66023L20.7267 15.6685C20.9115 16.0021 21.0085 16.3773 21.0085 16.7587C21.0085 17.9495 20.0833 18.9243 18.9125 19.0035L18.7585 19.0087H3.24272C2.86141 19.0087 2.48636 18.9118 2.15277 18.7271C1.11293 18.1513 0.707893 16.8734 1.20145 15.812L1.27435 15.6687L9.03114 1.66046C9.23567 1.2911 9.54 0.986735 9.90934 0.782164ZM19.4146 16.3953L11.6556 2.38702C11.4549 2.02467 10.9985 1.89363 10.6361 2.09433C10.5438 2.14547 10.4636 2.21533 10.4006 2.299L10.3434 2.3871L2.5866 16.3954C2.38594 16.7577 2.51704 17.2141 2.87941 17.4148C2.9628 17.461 3.05397 17.4907 3.14797 17.5027L3.24272 17.5087H18.7585C19.1727 17.5087 19.5085 17.1729 19.5085 16.7587C19.5085 16.6633 19.4903 16.5691 19.4552 16.4811L19.4146 16.3953L11.6556 2.38702L19.4146 16.3953ZM11.0004 14.0018C11.5519 14.0018 11.9991 14.4489 11.9991 15.0004C11.9991 15.552 11.5519 15.9991 11.0004 15.9991C10.4488 15.9991 10.0017 15.552 10.0017 15.0004C10.0017 14.4489 10.4488 14.0018 11.0004 14.0018ZM10.9962 6.49955C11.3759 6.49925 11.6899 6.78115 11.7399 7.14718L11.7468 7.24895L11.7504 11.7505C11.7507 12.1648 11.4152 12.5008 11.001 12.5011C10.6213 12.5014 10.3073 12.2195 10.2573 11.8535L10.2504 11.7517L10.2468 7.25015C10.2465 6.83594 10.582 6.49988 10.9962 6.49955Z" fill="#E02020"/>
</svg>
