<svg width="32" height="32" viewBox="0 0 32 32" fill="none" xmlns="http://www.w3.org/2000/svg">
<g id="Status/Warning">
<path id="Shape" d="M16.684 6.83832C17.9307 6.14779 19.4871 6.54903 20.2519 7.72589L20.3511 7.89115L29.6544 24.6875C29.8759 25.0875 29.9922 25.5373 29.9922 25.9947C29.9922 27.4225 28.8829 28.5913 27.4791 28.6862L27.2944 28.6925H8.6905C8.2333 28.6925 7.7836 28.5763 7.38362 28.3548C6.13682 27.6644 5.65116 26.1323 6.24295 24.8596L6.33036 24.6878L15.631 7.89143C15.8762 7.44855 16.2411 7.08361 16.684 6.83832ZM17.9933 22.6891C17.3319 22.6891 16.7958 23.2252 16.7958 23.8865C16.7958 24.5478 17.3319 25.0839 17.9933 25.0839C18.6546 25.0839 19.1907 24.5478 19.1907 23.8865C19.1907 23.2252 18.6546 22.6891 17.9933 22.6891ZM17.9907 13.0923C17.3758 13.0926 16.8691 13.5556 16.8001 14.152L16.7921 14.2918L16.7942 20.288L16.8024 20.4278C16.8718 21.0241 17.3788 21.4868 17.9937 21.4866C18.6086 21.4864 19.1152 21.0233 19.1843 20.427L19.1923 20.2872L19.1901 14.2909L19.182 14.1511C19.1125 13.5548 18.6056 13.0921 17.9907 13.0923Z" fill="#CD163F"/>
</g>
</svg>
