<svg width="22" height="21" viewBox="0 0 22 21" fill="none" xmlns="http://www.w3.org/2000/svg">
<path d="M11 -0.00103378C16.5237 -0.00103378 21.0015 4.47681 21.0015 10.0005C21.0015 15.5242 16.5237 20.0021 11 20.0021C5.47626 20.0021 0.998413 15.5242 0.998413 10.0005C0.998413 4.47681 5.47626 -0.00103378 11 -0.00103378ZM11 1.49897C6.30469 1.49897 2.49841 5.30524 2.49841 10.0005C2.49841 14.6958 6.30469 18.5021 11 18.5021C15.6952 18.5021 19.5015 14.6958 19.5015 10.0005C19.5015 5.30524 15.6952 1.49897 11 1.49897ZM10.9963 8.49955C11.376 8.4993 11.69 8.78125 11.7399 9.14729L11.7468 9.24906L11.7504 14.7507C11.7507 15.1649 11.4151 15.5009 11.0009 15.5011C10.6212 15.5014 10.3072 15.2194 10.2573 14.8534L10.2504 14.7516L10.2468 9.25004C10.2465 8.83583 10.5821 8.49982 10.9963 8.49955ZM11.0004 5.00178C11.552 5.00178 11.9991 5.4489 11.9991 6.00045C11.9991 6.55199 11.552 6.99911 11.0004 6.99911C10.4489 6.99911 10.0017 6.55199 10.0017 6.00045C10.0017 5.4489 10.4489 5.00178 11.0004 5.00178Z" fill="#006FBA"/>
</svg>
