<svg xmlns="http://www.w3.org/2000/svg" width="16" height="4" viewBox="0 0 16 4" fill="none">
  <path fill-rule="evenodd" clip-rule="evenodd" d="M3.99902 1.75C3.99902 2.7165 3.21552 3.5 2.24902 3.5C1.28252 3.5 0.499023 2.7165 0.499023 1.75C0.499023 0.7835 1.28252 0 2.24902 0C3.21552 0 3.99902 0.7835 3.99902 1.75ZM9.99902 1.75C9.99902 2.7165 9.21552 3.5 8.24902 3.5C7.28252 3.5 6.49902 2.7165 6.49902 1.75C6.49902 0.7835 7.28252 0 8.24902 0C9.21552 0 9.99902 0.7835 9.99902 1.75ZM15.999 1.75C15.999 2.7165 15.2155 3.5 14.249 3.5C13.2825 3.5 12.499 2.7165 12.499 1.75C12.499 0.7835 13.2825 0 14.249 0C15.2155 0 15.999 0.7835 15.999 1.75Z" fill="currentColor"/>
</svg>
