<svg xmlns="http://www.w3.org/2000/svg" width="20" height="21" viewBox="0 0 20 21" fill="none">
  <path d="M7.5 17.5C7.22386 17.5 7 17.2761 7 17C7 16.7239 7.22386 16.5 7.5 16.5H14C15.1046 16.5 16 15.6046 16 14.5V6.5C16 5.39543 15.1046 4.5 14 4.5H7.5C7.22386 4.5 7 4.27614 7 4C7 3.72386 7.22386 3.5 7.5 3.5H14C15.6569 3.5 17 4.84315 17 6.5V14.5C17 16.1569 15.6569 17.5 14 17.5H7.5ZM7.64645 6.64645C7.84171 6.45118 8.15829 6.45118 8.35355 6.64645L11.8536 10.1464C12.0488 10.3417 12.0488 10.6583 11.8536 10.8536L8.35355 14.3536C8.15829 14.5488 7.84171 14.5488 7.64645 14.3536C7.45118 14.1583 7.45118 13.8417 7.64645 13.6464L10.2929 11H1.5C1.22386 11 1 10.7761 1 10.5C1 10.2239 1.22386 10 1.5 10H10.2929L7.64645 7.35355C7.45118 7.15829 7.45118 6.84171 7.64645 6.64645Z" fill="#212121"/>
</svg>
