<svg width="24" height="24" viewBox="0 0 24 24" fill="none" xmlns="http://www.w3.org/2000/svg">
<path d="M12 1.99896C17.5237 1.99896 22.0015 6.47681 22.0015 12.0005C22.0015 17.5242 17.5237 22.0021 12 22.0021C6.47626 22.0021 1.99841 17.5242 1.99841 12.0005C1.99841 6.47681 6.47626 1.99896 12 1.99896ZM14.9389 16.5003H9.06106C9.7131 18.9144 10.8465 20.5021 12 20.5021C13.1535 20.5021 14.2868 18.9144 14.9389 16.5003ZM7.50827 16.5008L4.78579 16.5007C5.74413 18.0337 7.17757 19.2393 8.87996 19.9113C8.35768 19.0915 7.92669 18.0652 7.60969 16.8958L7.50827 16.5008ZM19.2141 16.5007L16.4917 16.5008C16.1679 17.8346 15.7003 19.0004 15.1189 19.9114C16.7159 19.2813 18.0756 18.1824 19.0289 16.7842L19.2141 16.5007ZM7.09339 9.99986H3.73578L3.73102 10.0171C3.57894 10.6534 3.49841 11.3176 3.49841 12.0005C3.49841 13.0567 3.691 14.0678 4.04298 15.0008L7.21614 15.0005C7.07384 14.0514 6.99841 13.0431 6.99841 12.0005C6.99841 11.3165 7.03088 10.6473 7.09339 9.99986ZM15.3969 9.99993H8.60304C8.53501 10.6402 8.49841 11.3099 8.49841 12.0005C8.49841 13.06 8.58456 14.0703 8.73815 15.0006H15.2618C15.4154 14.0703 15.5015 13.06 15.5015 12.0005C15.5015 11.3099 15.4649 10.6402 15.3969 9.99993ZM20.2646 9.99903L16.9065 9.99988C16.9691 10.6473 17.0015 11.3165 17.0015 12.0005C17.0015 13.0431 16.9261 14.0514 16.7838 15.0005L19.9569 15.0008C20.3089 14.0678 20.5015 13.0567 20.5015 12.0005C20.5015 11.3111 20.4195 10.6409 20.2646 9.99903ZM8.88101 4.08967L8.85811 4.09838C6.81079 4.91309 5.15478 6.5004 4.25011 8.50027L7.29823 8.50063C7.61159 6.74784 8.15843 5.22192 8.88101 4.08967ZM12 3.49896L11.8843 3.50426C10.6189 3.62002 9.39639 5.62198 8.82868 8.50021H15.1713C14.6051 5.63005 13.3879 3.63125 12.1263 3.50528L12 3.49896ZM15.12 4.08972L15.2268 4.26382C15.896 5.37629 16.4041 6.83617 16.7017 8.50063L19.7498 8.50027C18.8852 6.58886 17.3342 5.05432 15.4112 4.211L15.12 4.08972Z" fill="#262626"/>
</svg>
