  <svg
    xmlns="http://www.w3.org/2000/svg"
    width="24"
    height="24"
    viewBox="0 0 24 24"
    fill="none"
  >
    <path
      d="M6.74609 4.00003H10.2103C10.6245 4.00003 10.9603 4.33582 10.9603 4.75003C10.9603 5.12972 10.6781 5.44352 10.3121 5.49318L10.2103 5.50003H6.74609C5.55523 5.50003 4.58045 6.42519 4.50128 7.59598L4.49609 7.75003V17.25C4.49609 18.4409 5.42126 19.4157 6.59204 19.4948L6.74609 19.5H16.2468C17.4377 19.5 18.4125 18.5749 18.4916 17.4041L18.4968 17.25V16.7522C18.4968 16.338 18.8326 16.0022 19.2468 16.0022C19.6265 16.0022 19.9403 16.2844 19.99 16.6505L19.9968 16.7522V17.25C19.9968 19.2543 18.4245 20.8913 16.446 20.9948L16.2468 21H6.74609C4.74183 21 3.10482 19.4277 3.00129 17.4492L2.99609 17.25V7.75003C2.99609 5.74577 4.56845 4.10876 6.54694 4.00523L6.74609 4.00003H10.2103H6.74609ZM14.5001 6.51988V3.75003C14.5001 3.12606 15.2069 2.78998 15.6871 3.13983L15.7693 3.20877L21.7639 8.95877C22.0436 9.22712 22.0691 9.65814 21.8402 9.9561L21.7639 10.0412L15.7693 15.7931C15.3191 16.2251 14.5872 15.9477 14.5072 15.3589L14.5001 15.2519V12.5266L14.1566 12.5567C11.7569 12.807 9.45687 13.8879 7.24204 15.8174C6.72293 16.2696 5.9198 15.842 6.00518 15.1589C6.66997 9.83933 9.45184 6.90733 14.2007 6.53953L14.5001 6.51988V3.75003V6.51988ZM16.0001 5.50867V7.25003C16.0001 7.66424 15.6643 8.00003 15.2501 8.00003C11.3767 8.00003 8.97606 9.67616 7.93882 13.1572L7.85976 13.4358L8.21195 13.199C10.4484 11.7372 12.7978 11 15.2501 11C15.6298 11 15.9436 11.2822 15.9932 11.6483L16.0001 11.75V13.4928L20.1613 9.50012L16.0001 5.50867Z"
      fill="currentColor"
    />
  </svg>
