<svg width="18" height="19" viewBox="0 0 18 19" fill="none" xmlns="http://www.w3.org/2000/svg">
<path d="M9.5303 0.219668C9.2374 -0.0732225 8.7626 -0.0732225 8.4697 0.219668L3.21967 5.46967C2.92678 5.76256 2.92678 6.23744 3.21967 6.53033C3.51256 6.82322 3.98744 6.82322 4.28033 6.53033L8.25 2.56066V13.25C8.25 13.6642 8.5858 14 9 14C9.4142 14 9.75 13.6642 9.75 13.25V2.56066L13.7197 6.53033C14.0126 6.82322 14.4874 6.82322 14.7803 6.53033C15.0732 6.23744 15.0732 5.76256 14.7803 5.46967L9.5303 0.219668ZM0.75 9C1.16421 9 1.5 9.3358 1.5 9.75V15.75C1.5 16.7165 2.2835 17.5 3.25 17.5H14.75C15.7165 17.5 16.5 16.7165 16.5 15.75V9.75C16.5 9.3358 16.8358 9 17.25 9C17.6642 9 18 9.3358 18 9.75V15.75C18 17.5449 16.5449 19 14.75 19H3.25C1.45507 19 0 17.5449 0 15.75V9.75C0 9.3358 0.33579 9 0.75 9Z" fill="currentColor"/>
</svg>
