<svg width="1440" height="68" viewBox="0 0 1440 68" fill="none"
  xmlns="http://www.w3.org/2000/svg">
  <rect width="1440" height="68" fill="white" fill-opacity="0.85"/>
  <rect y="67" width="1440" height="1" fill="#262626"/>
  <g clip-path="url(#clip0_630_3726)">
    <path d="M62.9354 18C71.1707 18 77.8707 24.7 77.8707 32.9352C77.8707 41.1705 71.1707 47.8707 62.9354 47.8707C54.7 47.8707 48 41.1705 48 32.9352C48 24.7 54.7 18 62.9354 18ZM62.9354 19.5861C55.5747 19.5861 49.5864 25.5744 49.5864 32.935C49.5864 40.2955 55.5747 46.2838 62.9354 46.2838C70.2958 46.2838 76.2841 40.2955 76.2841 32.935C76.2841 25.5744 70.2958 19.5861 62.9354 19.5861ZM55.8518 25.3773C55.8518 25.3773 55.8641 25.3701 55.8718 25.3809C55.8813 25.394 55.8725 25.4019 55.8725 25.4019C54.9668 26.732 54.4273 28.3217 54.4273 30.0524C54.4273 34.6376 58.1445 38.3546 62.7297 38.3546C63.1089 38.3546 63.4821 38.3257 63.8478 38.2764C63.8478 38.2764 64.1153 38.2397 64.2543 38.2397C65.6174 38.2397 66.7227 39.345 66.7227 40.7081C66.7227 41.9271 65.8397 42.9467 64.678 43.1475C64.1107 43.2434 63.5289 43.2933 62.9354 43.2933C57.2146 43.2933 52.5769 38.6558 52.5769 32.935C52.5769 29.9541 53.8362 27.2671 55.8518 25.3773ZM64.9334 23.0573L64.9721 23.0674C64.9721 23.0674 64.9841 23.0726 64.9826 23.0827C64.9826 23.0827 64.9853 23.0937 64.9692 23.0986L64.947 23.104C61.6498 23.8642 59.2282 26.9014 59.1121 30.5536C59.0666 31.7177 59.2736 32.8782 59.719 33.9553C60.1575 35.0168 60.8174 35.9722 61.6538 36.7586L61.6632 36.7675C61.6632 36.7675 61.6707 36.7729 61.6624 36.7834C61.6624 36.7834 61.6587 36.7864 61.653 36.7851L61.646 36.7839C60.7284 36.5921 59.8575 36.2191 59.0846 35.6872C58.2998 35.1465 57.632 34.4525 57.1224 33.6469C56.6127 32.8413 56.2713 31.9408 56.1189 30.9999C55.9665 30.0586 56.0065 29.0968 56.2359 28.1713C56.474 27.2093 56.9122 26.3078 57.5216 25.5265C58.1311 24.745 58.8986 24.1003 59.7736 23.6352C61.3582 22.7927 63.2037 22.5865 64.9334 23.0573ZM68.7682 25.1414C70.205 25.6751 71.3804 26.729 72.0565 28.0862L72.072 28.1167C72.072 28.1167 72.0756 28.127 72.0682 28.1317C72.0682 28.1317 72.0626 28.1395 72.0503 28.1322L72.0341 28.1211C69.6822 26.4572 66.3637 26.6166 63.9548 28.5784C63.1818 29.1984 62.5543 29.9765 62.1147 30.8585C61.6816 31.7281 61.4414 32.6783 61.4101 33.6462L61.4096 33.657C61.4096 33.657 61.4103 33.6649 61.399 33.6655C61.399 33.6655 61.3948 33.6648 61.3926 33.6606L61.3895 33.6553C60.9936 32.9674 60.7405 32.2085 60.6449 31.4224C60.5479 30.624 60.616 29.8144 60.8445 29.0425C61.0734 28.2709 61.4581 27.553 61.9757 26.9319C62.4938 26.3109 63.1336 25.7999 63.8571 25.4296C64.6091 25.0441 65.4353 24.8191 66.2813 24.7696C67.1275 24.72 67.9749 24.8463 68.7682 25.1414Z" fill="black"/>
    <path d="M124.698 25.5811C126.827 25.5811 128.564 26.2281 129.871 27.4095L128.609 29.4282C127.498 28.3169 125.98 27.804 124.484 27.804C123.009 27.804 122.069 28.5092 122.069 29.5781C122.069 30.6894 123.522 31.0528 125.211 31.4802C125.305 31.5041 125.4 31.5283 125.495 31.5528L125.638 31.5898C125.686 31.6022 125.734 31.6148 125.782 31.6274L125.926 31.6658C128.094 32.2479 130.362 33.1155 130.362 35.9049C130.362 38.2772 128.695 40.3078 124.848 40.3078C122.285 40.3078 120.413 39.4346 119.152 38.1436L120.445 36.1186C121.428 37.1659 122.967 38.0848 124.954 38.0848C127.006 38.0848 127.819 37.0803 127.819 36.14C127.819 34.8575 126.301 34.4727 124.569 34.0239L124.499 34.0065L124.359 33.9716C124.335 33.9657 124.312 33.9599 124.288 33.954L124.146 33.9183C124.028 33.8884 123.909 33.8579 123.79 33.8266L123.647 33.7885C121.575 33.2295 119.504 32.371 119.504 29.7491C119.504 27.3979 121.577 25.5811 124.698 25.5811ZM96.8078 25.7948V27.9963H92.4903V40.0512H89.9895V27.9963H85.6721V25.7948H96.8078ZM103.964 25.7948C108.41 25.7948 111.424 28.7443 111.424 32.9338C111.424 37.1231 108.41 40.0512 103.964 40.0512H98.6636V25.7948H103.964ZM133.825 25.7948L137.758 31.9079L141.648 25.7948H144.512L138.997 34.1307V40.0512H136.497V34.1307L130.961 25.7948H133.825ZM148.693 25.7948L155.982 35.9049V25.7948H158.483V40.0512H156.067L148.629 29.6635V40.0512H146.128V25.7948H148.693ZM164.249 25.7948L171.538 35.9049V25.7948H174.039V40.0512H171.624L164.185 29.6635V40.0512H161.685V25.7948H164.249ZM187.009 25.7948V27.9963H179.742V31.6942H186.859V33.8955H179.742V37.8498H187.009V40.0512H177.241V25.7948H187.009ZM192.334 25.7948L196.011 31.0314L199.666 25.7948H202.679L197.678 32.7201L203 40.0512H200.008L196.011 34.4727L192.014 40.0512H189.021L194.365 32.7413L189.342 25.7948H192.334ZM103.964 27.9963H101.164V37.8498H103.964C107.063 37.8498 108.859 35.6268 108.859 32.9338C108.859 30.1765 107.149 27.9963 103.964 27.9963Z" fill="black"/>
  </g>
  <path d="M243.719 35.3203L245.148 35.1953C245.216 35.7682 245.372 36.2396 245.617 36.6094C245.867 36.974 246.253 37.2708 246.773 37.5C247.294 37.724 247.88 37.8359 248.531 37.8359C249.109 37.8359 249.62 37.75 250.062 37.5781C250.505 37.4062 250.833 37.1719 251.047 36.875C251.266 36.5729 251.375 36.2448 251.375 35.8906C251.375 35.5312 251.271 35.2188 251.062 34.9531C250.854 34.6823 250.51 34.4557 250.031 34.2734C249.724 34.1536 249.044 33.9688 247.992 33.7188C246.94 33.4635 246.203 33.224 245.781 33C245.234 32.7135 244.826 32.3594 244.555 31.9375C244.289 31.5104 244.156 31.0339 244.156 30.5078C244.156 29.9297 244.32 29.3906 244.648 28.8906C244.977 28.3854 245.456 28.0026 246.086 27.7422C246.716 27.4818 247.417 27.3516 248.188 27.3516C249.036 27.3516 249.784 27.4896 250.43 27.7656C251.081 28.0365 251.581 28.4375 251.93 28.9688C252.279 29.5 252.466 30.1016 252.492 30.7734L251.039 30.8828C250.961 30.1589 250.695 29.612 250.242 29.2422C249.794 28.8724 249.13 28.6875 248.25 28.6875C247.333 28.6875 246.664 28.8568 246.242 29.1953C245.826 29.5286 245.617 29.9323 245.617 30.4062C245.617 30.8177 245.766 31.1562 246.062 31.4219C246.354 31.6875 247.115 31.9609 248.344 32.2422C249.578 32.5182 250.424 32.7604 250.883 32.9688C251.549 33.276 252.042 33.6667 252.359 34.1406C252.677 34.6094 252.836 35.151 252.836 35.7656C252.836 36.375 252.661 36.9505 252.312 37.4922C251.964 38.0286 251.461 38.4479 250.805 38.75C250.154 39.0469 249.419 39.1953 248.602 39.1953C247.565 39.1953 246.695 39.0443 245.992 38.7422C245.294 38.4401 244.745 37.987 244.344 37.3828C243.948 36.7734 243.74 36.0859 243.719 35.3203ZM254.203 34.8516C254.203 33.3151 254.63 32.1771 255.484 31.4375C256.198 30.8229 257.068 30.5156 258.094 30.5156C259.234 30.5156 260.167 30.8906 260.891 31.6406C261.615 32.3854 261.977 33.4167 261.977 34.7344C261.977 35.8021 261.815 36.6432 261.492 37.2578C261.174 37.8672 260.708 38.3411 260.094 38.6797C259.484 39.0182 258.818 39.1875 258.094 39.1875C256.932 39.1875 255.992 38.8151 255.273 38.0703C254.56 37.3255 254.203 36.2526 254.203 34.8516ZM255.648 34.8516C255.648 35.9141 255.88 36.7109 256.344 37.2422C256.807 37.7682 257.391 38.0312 258.094 38.0312C258.792 38.0312 259.372 37.7656 259.836 37.2344C260.299 36.7031 260.531 35.8932 260.531 34.8047C260.531 33.7786 260.297 33.0026 259.828 32.4766C259.365 31.9453 258.786 31.6797 258.094 31.6797C257.391 31.6797 256.807 31.9427 256.344 32.4688C255.88 32.9948 255.648 33.7891 255.648 34.8516ZM263.602 39V27.5469H265.008V39H263.602ZM272.633 39V37.7812C271.987 38.7188 271.109 39.1875 270 39.1875C269.51 39.1875 269.052 39.0938 268.625 38.9062C268.203 38.7188 267.888 38.4844 267.68 38.2031C267.477 37.9167 267.333 37.5677 267.25 37.1562C267.193 36.8802 267.164 36.4427 267.164 35.8438V30.7031H268.57V35.3047C268.57 36.0391 268.599 36.5339 268.656 36.7891C268.745 37.1589 268.932 37.4505 269.219 37.6641C269.505 37.8724 269.859 37.9766 270.281 37.9766C270.703 37.9766 271.099 37.8698 271.469 37.6562C271.839 37.4375 272.099 37.1432 272.25 36.7734C272.406 36.3984 272.484 35.8568 272.484 35.1484V30.7031H273.891V39H272.633ZM279.172 37.7422L279.375 38.9844C278.979 39.0677 278.625 39.1094 278.312 39.1094C277.802 39.1094 277.406 39.0286 277.125 38.8672C276.844 38.7057 276.646 38.4948 276.531 38.2344C276.417 37.9688 276.359 37.4141 276.359 36.5703V31.7969H275.328V30.7031H276.359V28.6484L277.758 27.8047V30.7031H279.172V31.7969H277.758V36.6484C277.758 37.0495 277.781 37.3073 277.828 37.4219C277.88 37.5365 277.961 37.6276 278.07 37.6953C278.185 37.763 278.346 37.7969 278.555 37.7969C278.711 37.7969 278.917 37.7786 279.172 37.7422ZM280.562 29.1641V27.5469H281.969V29.1641H280.562ZM280.562 39V30.7031H281.969V39H280.562ZM283.594 34.8516C283.594 33.3151 284.021 32.1771 284.875 31.4375C285.589 30.8229 286.458 30.5156 287.484 30.5156C288.625 30.5156 289.557 30.8906 290.281 31.6406C291.005 32.3854 291.367 33.4167 291.367 34.7344C291.367 35.8021 291.206 36.6432 290.883 37.2578C290.565 37.8672 290.099 38.3411 289.484 38.6797C288.875 39.0182 288.208 39.1875 287.484 39.1875C286.323 39.1875 285.383 38.8151 284.664 38.0703C283.951 37.3255 283.594 36.2526 283.594 34.8516ZM285.039 34.8516C285.039 35.9141 285.271 36.7109 285.734 37.2422C286.198 37.7682 286.781 38.0312 287.484 38.0312C288.182 38.0312 288.763 37.7656 289.227 37.2344C289.69 36.7031 289.922 35.8932 289.922 34.8047C289.922 33.7786 289.688 33.0026 289.219 32.4766C288.755 31.9453 288.177 31.6797 287.484 31.6797C286.781 31.6797 286.198 31.9427 285.734 32.4688C285.271 32.9948 285.039 33.7891 285.039 34.8516ZM293.023 39V30.7031H294.289V31.8828C294.898 30.9714 295.779 30.5156 296.93 30.5156C297.43 30.5156 297.888 30.6068 298.305 30.7891C298.727 30.9661 299.042 31.2005 299.25 31.4922C299.458 31.7839 299.604 32.1302 299.688 32.5312C299.74 32.7917 299.766 33.2474 299.766 33.8984V39H298.359V33.9531C298.359 33.3802 298.305 32.9531 298.195 32.6719C298.086 32.3854 297.891 32.1589 297.609 31.9922C297.333 31.8203 297.008 31.7344 296.633 31.7344C296.034 31.7344 295.516 31.9245 295.078 32.3047C294.646 32.6849 294.43 33.4062 294.43 34.4688V39H293.023ZM301.367 36.5234L302.758 36.3047C302.836 36.862 303.052 37.2891 303.406 37.5859C303.766 37.8828 304.266 38.0312 304.906 38.0312C305.552 38.0312 306.031 37.901 306.344 37.6406C306.656 37.375 306.812 37.0651 306.812 36.7109C306.812 36.3932 306.674 36.1432 306.398 35.9609C306.206 35.8359 305.727 35.6771 304.961 35.4844C303.93 35.224 303.214 35 302.812 34.8125C302.417 34.6198 302.115 34.3568 301.906 34.0234C301.703 33.6849 301.602 33.3125 301.602 32.9062C301.602 32.5365 301.685 32.1953 301.852 31.8828C302.023 31.5651 302.255 31.3021 302.547 31.0938C302.766 30.9323 303.062 30.7969 303.438 30.6875C303.818 30.5729 304.224 30.5156 304.656 30.5156C305.307 30.5156 305.878 30.6094 306.367 30.7969C306.862 30.9844 307.227 31.2396 307.461 31.5625C307.695 31.8802 307.857 32.3073 307.945 32.8438L306.57 33.0312C306.508 32.6042 306.326 32.2708 306.023 32.0312C305.727 31.7917 305.305 31.6719 304.758 31.6719C304.112 31.6719 303.651 31.7786 303.375 31.9922C303.099 32.2057 302.961 32.4557 302.961 32.7422C302.961 32.9245 303.018 33.0885 303.133 33.2344C303.247 33.3854 303.427 33.5104 303.672 33.6094C303.812 33.6615 304.227 33.7812 304.914 33.9688C305.909 34.2344 306.602 34.4531 306.992 34.625C307.388 34.7917 307.698 35.0365 307.922 35.3594C308.146 35.6823 308.258 36.0833 308.258 36.5625C308.258 37.0312 308.12 37.474 307.844 37.8906C307.573 38.3021 307.18 38.6224 306.664 38.8516C306.148 39.0755 305.565 39.1875 304.914 39.1875C303.836 39.1875 303.013 38.9635 302.445 38.5156C301.883 38.0677 301.523 37.4036 301.367 36.5234Z" fill="#262626"/>
  <path d="M344.719 35.3203L346.148 35.1953C346.216 35.7682 346.372 36.2396 346.617 36.6094C346.867 36.974 347.253 37.2708 347.773 37.5C348.294 37.724 348.88 37.8359 349.531 37.8359C350.109 37.8359 350.62 37.75 351.062 37.5781C351.505 37.4062 351.833 37.1719 352.047 36.875C352.266 36.5729 352.375 36.2448 352.375 35.8906C352.375 35.5312 352.271 35.2188 352.062 34.9531C351.854 34.6823 351.51 34.4557 351.031 34.2734C350.724 34.1536 350.044 33.9688 348.992 33.7188C347.94 33.4635 347.203 33.224 346.781 33C346.234 32.7135 345.826 32.3594 345.555 31.9375C345.289 31.5104 345.156 31.0339 345.156 30.5078C345.156 29.9297 345.32 29.3906 345.648 28.8906C345.977 28.3854 346.456 28.0026 347.086 27.7422C347.716 27.4818 348.417 27.3516 349.188 27.3516C350.036 27.3516 350.784 27.4896 351.43 27.7656C352.081 28.0365 352.581 28.4375 352.93 28.9688C353.279 29.5 353.466 30.1016 353.492 30.7734L352.039 30.8828C351.961 30.1589 351.695 29.612 351.242 29.2422C350.794 28.8724 350.13 28.6875 349.25 28.6875C348.333 28.6875 347.664 28.8568 347.242 29.1953C346.826 29.5286 346.617 29.9323 346.617 30.4062C346.617 30.8177 346.766 31.1562 347.062 31.4219C347.354 31.6875 348.115 31.9609 349.344 32.2422C350.578 32.5182 351.424 32.7604 351.883 32.9688C352.549 33.276 353.042 33.6667 353.359 34.1406C353.677 34.6094 353.836 35.151 353.836 35.7656C353.836 36.375 353.661 36.9505 353.312 37.4922C352.964 38.0286 352.461 38.4479 351.805 38.75C351.154 39.0469 350.419 39.1953 349.602 39.1953C348.565 39.1953 347.695 39.0443 346.992 38.7422C346.294 38.4401 345.745 37.987 345.344 37.3828C344.948 36.7734 344.74 36.0859 344.719 35.3203ZM361.406 36.3281L362.859 36.5078C362.63 37.3568 362.206 38.0156 361.586 38.4844C360.966 38.9531 360.174 39.1875 359.211 39.1875C357.997 39.1875 357.034 38.8151 356.32 38.0703C355.612 37.3203 355.258 36.2708 355.258 34.9219C355.258 33.526 355.617 32.4427 356.336 31.6719C357.055 30.901 357.987 30.5156 359.133 30.5156C360.242 30.5156 361.148 30.8932 361.852 31.6484C362.555 32.4036 362.906 33.4661 362.906 34.8359C362.906 34.9193 362.904 35.0443 362.898 35.2109H356.711C356.763 36.1224 357.021 36.8203 357.484 37.3047C357.948 37.7891 358.526 38.0312 359.219 38.0312C359.734 38.0312 360.174 37.8958 360.539 37.625C360.904 37.3542 361.193 36.9219 361.406 36.3281ZM356.789 34.0547H361.422C361.359 33.3568 361.182 32.8333 360.891 32.4844C360.443 31.9427 359.862 31.6719 359.148 31.6719C358.503 31.6719 357.958 31.888 357.516 32.3203C357.078 32.7526 356.836 33.3307 356.789 34.0547ZM364.617 39V30.7031H365.883V31.9609C366.206 31.3724 366.503 30.9844 366.773 30.7969C367.049 30.6094 367.352 30.5156 367.68 30.5156C368.154 30.5156 368.635 30.6667 369.125 30.9688L368.641 32.2734C368.297 32.0703 367.953 31.9688 367.609 31.9688C367.302 31.9688 367.026 32.0625 366.781 32.25C366.536 32.4323 366.362 32.6875 366.258 33.0156C366.102 33.5156 366.023 34.0625 366.023 34.6562V39H364.617ZM372.266 39L369.109 30.7031H370.594L372.375 35.6719C372.568 36.2083 372.745 36.7656 372.906 37.3438C373.031 36.9062 373.206 36.3802 373.43 35.7656L375.273 30.7031H376.719L373.578 39H372.266ZM377.969 29.1641V27.5469H379.375V29.1641H377.969ZM377.969 39V30.7031H379.375V39H377.969ZM386.938 35.9609L388.32 36.1406C388.169 37.0938 387.781 37.8411 387.156 38.3828C386.536 38.9193 385.773 39.1875 384.867 39.1875C383.732 39.1875 382.818 38.8177 382.125 38.0781C381.438 37.3333 381.094 36.2682 381.094 34.8828C381.094 33.987 381.242 33.2031 381.539 32.5312C381.836 31.8594 382.286 31.3568 382.891 31.0234C383.5 30.6849 384.161 30.5156 384.875 30.5156C385.776 30.5156 386.513 30.7448 387.086 31.2031C387.659 31.6562 388.026 32.3021 388.188 33.1406L386.82 33.3516C386.69 32.7943 386.458 32.375 386.125 32.0938C385.797 31.8125 385.398 31.6719 384.93 31.6719C384.221 31.6719 383.646 31.9271 383.203 32.4375C382.76 32.9427 382.539 33.7448 382.539 34.8438C382.539 35.9583 382.753 36.7682 383.18 37.2734C383.607 37.7786 384.164 38.0312 384.852 38.0312C385.404 38.0312 385.865 37.862 386.234 37.5234C386.604 37.1849 386.839 36.6641 386.938 35.9609ZM395.203 36.3281L396.656 36.5078C396.427 37.3568 396.003 38.0156 395.383 38.4844C394.763 38.9531 393.971 39.1875 393.008 39.1875C391.794 39.1875 390.831 38.8151 390.117 38.0703C389.409 37.3203 389.055 36.2708 389.055 34.9219C389.055 33.526 389.414 32.4427 390.133 31.6719C390.852 30.901 391.784 30.5156 392.93 30.5156C394.039 30.5156 394.945 30.8932 395.648 31.6484C396.352 32.4036 396.703 33.4661 396.703 34.8359C396.703 34.9193 396.701 35.0443 396.695 35.2109H390.508C390.56 36.1224 390.818 36.8203 391.281 37.3047C391.745 37.7891 392.323 38.0312 393.016 38.0312C393.531 38.0312 393.971 37.8958 394.336 37.625C394.701 37.3542 394.99 36.9219 395.203 36.3281ZM390.586 34.0547H395.219C395.156 33.3568 394.979 32.8333 394.688 32.4844C394.24 31.9427 393.659 31.6719 392.945 31.6719C392.299 31.6719 391.755 31.888 391.312 32.3203C390.875 32.7526 390.633 33.3307 390.586 34.0547ZM397.867 36.5234L399.258 36.3047C399.336 36.862 399.552 37.2891 399.906 37.5859C400.266 37.8828 400.766 38.0312 401.406 38.0312C402.052 38.0312 402.531 37.901 402.844 37.6406C403.156 37.375 403.312 37.0651 403.312 36.7109C403.312 36.3932 403.174 36.1432 402.898 35.9609C402.706 35.8359 402.227 35.6771 401.461 35.4844C400.43 35.224 399.714 35 399.312 34.8125C398.917 34.6198 398.615 34.3568 398.406 34.0234C398.203 33.6849 398.102 33.3125 398.102 32.9062C398.102 32.5365 398.185 32.1953 398.352 31.8828C398.523 31.5651 398.755 31.3021 399.047 31.0938C399.266 30.9323 399.562 30.7969 399.938 30.6875C400.318 30.5729 400.724 30.5156 401.156 30.5156C401.807 30.5156 402.378 30.6094 402.867 30.7969C403.362 30.9844 403.727 31.2396 403.961 31.5625C404.195 31.8802 404.357 32.3073 404.445 32.8438L403.07 33.0312C403.008 32.6042 402.826 32.2708 402.523 32.0312C402.227 31.7917 401.805 31.6719 401.258 31.6719C400.612 31.6719 400.151 31.7786 399.875 31.9922C399.599 32.2057 399.461 32.4557 399.461 32.7422C399.461 32.9245 399.518 33.0885 399.633 33.2344C399.747 33.3854 399.927 33.5104 400.172 33.6094C400.312 33.6615 400.727 33.7812 401.414 33.9688C402.409 34.2344 403.102 34.4531 403.492 34.625C403.888 34.7917 404.198 35.0365 404.422 35.3594C404.646 35.6823 404.758 36.0833 404.758 36.5625C404.758 37.0312 404.62 37.474 404.344 37.8906C404.073 38.3021 403.68 38.6224 403.164 38.8516C402.648 39.0755 402.065 39.1875 401.414 39.1875C400.336 39.1875 399.513 38.9635 398.945 38.5156C398.383 38.0677 398.023 37.4036 397.867 36.5234Z" fill="#262626"/>
  <path d="M442.508 39L438.07 27.5469H439.711L442.688 35.8672C442.927 36.5339 443.128 37.1589 443.289 37.7422C443.466 37.1172 443.672 36.4922 443.906 35.8672L447 27.5469H448.547L444.062 39H442.508ZM454.516 36.3281L455.969 36.5078C455.74 37.3568 455.315 38.0156 454.695 38.4844C454.076 38.9531 453.284 39.1875 452.32 39.1875C451.107 39.1875 450.143 38.8151 449.43 38.0703C448.721 37.3203 448.367 36.2708 448.367 34.9219C448.367 33.526 448.727 32.4427 449.445 31.6719C450.164 30.901 451.096 30.5156 452.242 30.5156C453.352 30.5156 454.258 30.8932 454.961 31.6484C455.664 32.4036 456.016 33.4661 456.016 34.8359C456.016 34.9193 456.013 35.0443 456.008 35.2109H449.82C449.872 36.1224 450.13 36.8203 450.594 37.3047C451.057 37.7891 451.635 38.0312 452.328 38.0312C452.844 38.0312 453.284 37.8958 453.648 37.625C454.013 37.3542 454.302 36.9219 454.516 36.3281ZM449.898 34.0547H454.531C454.469 33.3568 454.292 32.8333 454 32.4844C453.552 31.9427 452.971 31.6719 452.258 31.6719C451.612 31.6719 451.068 31.888 450.625 32.3203C450.188 32.7526 449.945 33.3307 449.898 34.0547ZM457.742 39V30.7031H459.008V31.8828C459.617 30.9714 460.497 30.5156 461.648 30.5156C462.148 30.5156 462.607 30.6068 463.023 30.7891C463.445 30.9661 463.76 31.2005 463.969 31.4922C464.177 31.7839 464.323 32.1302 464.406 32.5312C464.458 32.7917 464.484 33.2474 464.484 33.8984V39H463.078V33.9531C463.078 33.3802 463.023 32.9531 462.914 32.6719C462.805 32.3854 462.609 32.1589 462.328 31.9922C462.052 31.8203 461.727 31.7344 461.352 31.7344C460.753 31.7344 460.234 31.9245 459.797 32.3047C459.365 32.6849 459.148 33.4062 459.148 34.4688V39H457.742ZM472.031 39V37.9531C471.505 38.776 470.732 39.1875 469.711 39.1875C469.049 39.1875 468.44 39.0052 467.883 38.6406C467.331 38.276 466.901 37.7682 466.594 37.1172C466.292 36.4609 466.141 35.7083 466.141 34.8594C466.141 34.0312 466.279 33.2812 466.555 32.6094C466.831 31.9323 467.245 31.4141 467.797 31.0547C468.349 30.6953 468.966 30.5156 469.648 30.5156C470.148 30.5156 470.594 30.6224 470.984 30.8359C471.375 31.0443 471.693 31.3177 471.938 31.6562V27.5469H473.336V39H472.031ZM467.586 34.8594C467.586 35.9219 467.81 36.7161 468.258 37.2422C468.706 37.7682 469.234 38.0312 469.844 38.0312C470.458 38.0312 470.979 37.7812 471.406 37.2812C471.839 36.776 472.055 36.0078 472.055 34.9766C472.055 33.8411 471.836 33.0078 471.398 32.4766C470.961 31.9453 470.422 31.6797 469.781 31.6797C469.156 31.6797 468.633 31.9349 468.211 32.4453C467.794 32.9557 467.586 33.7604 467.586 34.8594ZM475.031 34.8516C475.031 33.3151 475.458 32.1771 476.312 31.4375C477.026 30.8229 477.896 30.5156 478.922 30.5156C480.062 30.5156 480.995 30.8906 481.719 31.6406C482.443 32.3854 482.805 33.4167 482.805 34.7344C482.805 35.8021 482.643 36.6432 482.32 37.2578C482.003 37.8672 481.536 38.3411 480.922 38.6797C480.312 39.0182 479.646 39.1875 478.922 39.1875C477.76 39.1875 476.82 38.8151 476.102 38.0703C475.388 37.3255 475.031 36.2526 475.031 34.8516ZM476.477 34.8516C476.477 35.9141 476.708 36.7109 477.172 37.2422C477.635 37.7682 478.219 38.0312 478.922 38.0312C479.62 38.0312 480.201 37.7656 480.664 37.2344C481.128 36.7031 481.359 35.8932 481.359 34.8047C481.359 33.7786 481.125 33.0026 480.656 32.4766C480.193 31.9453 479.615 31.6797 478.922 31.6797C478.219 31.6797 477.635 31.9427 477.172 32.4688C476.708 32.9948 476.477 33.7891 476.477 34.8516ZM484.445 39V30.7031H485.711V31.9609C486.034 31.3724 486.331 30.9844 486.602 30.7969C486.878 30.6094 487.18 30.5156 487.508 30.5156C487.982 30.5156 488.464 30.6667 488.953 30.9688L488.469 32.2734C488.125 32.0703 487.781 31.9688 487.438 31.9688C487.13 31.9688 486.854 32.0625 486.609 32.25C486.365 32.4323 486.19 32.6875 486.086 33.0156C485.93 33.5156 485.852 34.0625 485.852 34.6562V39H484.445ZM489.227 36.5234L490.617 36.3047C490.695 36.862 490.911 37.2891 491.266 37.5859C491.625 37.8828 492.125 38.0312 492.766 38.0312C493.411 38.0312 493.891 37.901 494.203 37.6406C494.516 37.375 494.672 37.0651 494.672 36.7109C494.672 36.3932 494.534 36.1432 494.258 35.9609C494.065 35.8359 493.586 35.6771 492.82 35.4844C491.789 35.224 491.073 35 490.672 34.8125C490.276 34.6198 489.974 34.3568 489.766 34.0234C489.562 33.6849 489.461 33.3125 489.461 32.9062C489.461 32.5365 489.544 32.1953 489.711 31.8828C489.883 31.5651 490.115 31.3021 490.406 31.0938C490.625 30.9323 490.922 30.7969 491.297 30.6875C491.677 30.5729 492.083 30.5156 492.516 30.5156C493.167 30.5156 493.737 30.6094 494.227 30.7969C494.721 30.9844 495.086 31.2396 495.32 31.5625C495.555 31.8802 495.716 32.3073 495.805 32.8438L494.43 33.0312C494.367 32.6042 494.185 32.2708 493.883 32.0312C493.586 31.7917 493.164 31.6719 492.617 31.6719C491.971 31.6719 491.51 31.7786 491.234 31.9922C490.958 32.2057 490.82 32.4557 490.82 32.7422C490.82 32.9245 490.878 33.0885 490.992 33.2344C491.107 33.3854 491.286 33.5104 491.531 33.6094C491.672 33.6615 492.086 33.7812 492.773 33.9688C493.768 34.2344 494.461 34.4531 494.852 34.625C495.247 34.7917 495.557 35.0365 495.781 35.3594C496.005 35.6823 496.117 36.0833 496.117 36.5625C496.117 37.0312 495.979 37.474 495.703 37.8906C495.432 38.3021 495.039 38.6224 494.523 38.8516C494.008 39.0755 493.424 39.1875 492.773 39.1875C491.695 39.1875 490.872 38.9635 490.305 38.5156C489.742 38.0677 489.383 37.4036 489.227 36.5234Z" fill="#262626"/>
  <path d="M529.977 39L534.375 27.5469H536.008L540.695 39H538.969L537.633 35.5312H532.844L531.586 39H529.977ZM533.281 34.2969H537.164L535.969 31.125C535.604 30.1615 535.333 29.3698 535.156 28.75C535.01 29.4844 534.805 30.2135 534.539 30.9375L533.281 34.2969ZM543.023 39H541.719V27.5469H543.125V31.6328C543.719 30.888 544.477 30.5156 545.398 30.5156C545.909 30.5156 546.391 30.6198 546.844 30.8281C547.302 31.0312 547.677 31.3203 547.969 31.6953C548.266 32.0651 548.497 32.513 548.664 33.0391C548.831 33.5651 548.914 34.1276 548.914 34.7266C548.914 36.1484 548.562 37.2474 547.859 38.0234C547.156 38.7995 546.312 39.1875 545.328 39.1875C544.349 39.1875 543.581 38.7786 543.023 37.9609V39ZM543.008 34.7891C543.008 35.7839 543.143 36.5026 543.414 36.9453C543.857 37.6693 544.456 38.0312 545.211 38.0312C545.826 38.0312 546.357 37.7656 546.805 37.2344C547.253 36.6979 547.477 35.901 547.477 34.8438C547.477 33.7604 547.26 32.9609 546.828 32.4453C546.401 31.9297 545.883 31.6719 545.273 31.6719C544.659 31.6719 544.128 31.9401 543.68 32.4766C543.232 33.0078 543.008 33.7786 543.008 34.7891ZM550.109 34.8516C550.109 33.3151 550.536 32.1771 551.391 31.4375C552.104 30.8229 552.974 30.5156 554 30.5156C555.141 30.5156 556.073 30.8906 556.797 31.6406C557.521 32.3854 557.883 33.4167 557.883 34.7344C557.883 35.8021 557.721 36.6432 557.398 37.2578C557.081 37.8672 556.615 38.3411 556 38.6797C555.391 39.0182 554.724 39.1875 554 39.1875C552.839 39.1875 551.898 38.8151 551.18 38.0703C550.466 37.3255 550.109 36.2526 550.109 34.8516ZM551.555 34.8516C551.555 35.9141 551.786 36.7109 552.25 37.2422C552.714 37.7682 553.297 38.0312 554 38.0312C554.698 38.0312 555.279 37.7656 555.742 37.2344C556.206 36.7031 556.438 35.8932 556.438 34.8047C556.438 33.7786 556.203 33.0026 555.734 32.4766C555.271 31.9453 554.693 31.6797 554 31.6797C553.297 31.6797 552.714 31.9427 552.25 32.4688C551.786 32.9948 551.555 33.7891 551.555 34.8516ZM564.977 39V37.7812C564.331 38.7188 563.453 39.1875 562.344 39.1875C561.854 39.1875 561.396 39.0938 560.969 38.9062C560.547 38.7188 560.232 38.4844 560.023 38.2031C559.82 37.9167 559.677 37.5677 559.594 37.1562C559.536 36.8802 559.508 36.4427 559.508 35.8438V30.7031H560.914V35.3047C560.914 36.0391 560.943 36.5339 561 36.7891C561.089 37.1589 561.276 37.4505 561.562 37.6641C561.849 37.8724 562.203 37.9766 562.625 37.9766C563.047 37.9766 563.443 37.8698 563.812 37.6562C564.182 37.4375 564.443 37.1432 564.594 36.7734C564.75 36.3984 564.828 35.8568 564.828 35.1484V30.7031H566.234V39H564.977ZM571.516 37.7422L571.719 38.9844C571.323 39.0677 570.969 39.1094 570.656 39.1094C570.146 39.1094 569.75 39.0286 569.469 38.8672C569.188 38.7057 568.99 38.4948 568.875 38.2344C568.76 37.9688 568.703 37.4141 568.703 36.5703V31.7969H567.672V30.7031H568.703V28.6484L570.102 27.8047V30.7031H571.516V31.7969H570.102V36.6484C570.102 37.0495 570.125 37.3073 570.172 37.4219C570.224 37.5365 570.305 37.6276 570.414 37.6953C570.529 37.763 570.69 37.7969 570.898 37.7969C571.055 37.7969 571.26 37.7786 571.516 37.7422ZM582.789 39V37.7812C582.143 38.7188 581.266 39.1875 580.156 39.1875C579.667 39.1875 579.208 39.0938 578.781 38.9062C578.359 38.7188 578.044 38.4844 577.836 38.2031C577.633 37.9167 577.49 37.5677 577.406 37.1562C577.349 36.8802 577.32 36.4427 577.32 35.8438V30.7031H578.727V35.3047C578.727 36.0391 578.755 36.5339 578.812 36.7891C578.901 37.1589 579.089 37.4505 579.375 37.6641C579.661 37.8724 580.016 37.9766 580.438 37.9766C580.859 37.9766 581.255 37.8698 581.625 37.6562C581.995 37.4375 582.255 37.1432 582.406 36.7734C582.562 36.3984 582.641 35.8568 582.641 35.1484V30.7031H584.047V39H582.789ZM585.695 36.5234L587.086 36.3047C587.164 36.862 587.38 37.2891 587.734 37.5859C588.094 37.8828 588.594 38.0312 589.234 38.0312C589.88 38.0312 590.359 37.901 590.672 37.6406C590.984 37.375 591.141 37.0651 591.141 36.7109C591.141 36.3932 591.003 36.1432 590.727 35.9609C590.534 35.8359 590.055 35.6771 589.289 35.4844C588.258 35.224 587.542 35 587.141 34.8125C586.745 34.6198 586.443 34.3568 586.234 34.0234C586.031 33.6849 585.93 33.3125 585.93 32.9062C585.93 32.5365 586.013 32.1953 586.18 31.8828C586.352 31.5651 586.583 31.3021 586.875 31.0938C587.094 30.9323 587.391 30.7969 587.766 30.6875C588.146 30.5729 588.552 30.5156 588.984 30.5156C589.635 30.5156 590.206 30.6094 590.695 30.7969C591.19 30.9844 591.555 31.2396 591.789 31.5625C592.023 31.8802 592.185 32.3073 592.273 32.8438L590.898 33.0312C590.836 32.6042 590.654 32.2708 590.352 32.0312C590.055 31.7917 589.633 31.6719 589.086 31.6719C588.44 31.6719 587.979 31.7786 587.703 31.9922C587.427 32.2057 587.289 32.4557 587.289 32.7422C587.289 32.9245 587.346 33.0885 587.461 33.2344C587.576 33.3854 587.755 33.5104 588 33.6094C588.141 33.6615 588.555 33.7812 589.242 33.9688C590.237 34.2344 590.93 34.4531 591.32 34.625C591.716 34.7917 592.026 35.0365 592.25 35.3594C592.474 35.6823 592.586 36.0833 592.586 36.5625C592.586 37.0312 592.448 37.474 592.172 37.8906C591.901 38.3021 591.508 38.6224 590.992 38.8516C590.477 39.0755 589.893 39.1875 589.242 39.1875C588.164 39.1875 587.341 38.9635 586.773 38.5156C586.211 38.0677 585.852 37.4036 585.695 36.5234Z" fill="#262626"/>
  <path d="M1224 24.75C1228 24.75 1231.25 27.9959 1231.25 32C1231.25 33.7319 1230.64 35.3219 1229.63 36.5688L1234.53 41.4697C1234.82 41.7626 1234.82 42.2374 1234.53 42.5303C1234.26 42.7966 1233.85 42.8208 1233.55 42.6029L1233.47 42.5303L1228.57 37.6295C1227.32 38.6427 1225.73 39.25 1224 39.25C1220 39.25 1216.75 36.0041 1216.75 32C1216.75 27.9959 1220 24.75 1224 24.75ZM1224 26.25C1220.82 26.25 1218.25 28.8244 1218.25 32C1218.25 35.1756 1220.82 37.75 1224 37.75C1227.18 37.75 1229.75 35.1756 1229.75 32C1229.75 28.8244 1227.18 26.25 1224 26.25Z" fill="#262626"/>
  <path d="M1278 39.5C1278.83 39.5 1279.5 40.1716 1279.5 41C1279.5 41.8284 1278.83 42.5 1278 42.5C1277.17 42.5 1276.5 41.8284 1276.5 41C1276.5 40.1716 1277.17 39.5 1278 39.5ZM1285 39.5C1285.83 39.5 1286.5 40.1716 1286.5 41C1286.5 41.8284 1285.83 42.5 1285 42.5C1284.17 42.5 1283.5 41.8284 1283.5 41C1283.5 40.1716 1284.17 39.5 1285 39.5ZM1271 39.5C1271.83 39.5 1272.5 40.1716 1272.5 41C1272.5 41.8284 1271.83 42.5 1271 42.5C1270.17 42.5 1269.5 41.8284 1269.5 41C1269.5 40.1716 1270.17 39.5 1271 39.5ZM1278 32.5C1278.83 32.5 1279.5 33.1716 1279.5 34C1279.5 34.8284 1278.83 35.5 1278 35.5C1277.17 35.5 1276.5 34.8284 1276.5 34C1276.5 33.1716 1277.17 32.5 1278 32.5ZM1285 32.5C1285.83 32.5 1286.5 33.1716 1286.5 34C1286.5 34.8284 1285.83 35.5 1285 35.5C1284.17 35.5 1283.5 34.8284 1283.5 34C1283.5 33.1716 1284.17 32.5 1285 32.5ZM1271 32.5C1271.83 32.5 1272.5 33.1716 1272.5 34C1272.5 34.8284 1271.83 35.5 1271 35.5C1270.17 35.5 1269.5 34.8284 1269.5 34C1269.5 33.1716 1270.17 32.5 1271 32.5ZM1278 25.5C1278.83 25.5 1279.5 26.1716 1279.5 27C1279.5 27.8284 1278.83 28.5 1278 28.5C1277.17 28.5 1276.5 27.8284 1276.5 27C1276.5 26.1716 1277.17 25.5 1278 25.5ZM1285 25.5C1285.83 25.5 1286.5 26.1716 1286.5 27C1286.5 27.8284 1285.83 28.5 1285 28.5C1284.17 28.5 1283.5 27.8284 1283.5 27C1283.5 26.1716 1284.17 25.5 1285 25.5ZM1271 25.5C1271.83 25.5 1272.5 26.1716 1272.5 27C1272.5 27.8284 1271.83 28.5 1271 28.5C1270.17 28.5 1269.5 27.8284 1269.5 27C1269.5 26.1716 1270.17 25.5 1271 25.5Z" fill="#262626"/>
  <path fill-rule="evenodd" clip-rule="evenodd" d="M1333.5 28.5C1333.5 30.433 1331.93 32 1330 32C1328.07 32 1326.5 30.433 1326.5 28.5C1326.5 26.567 1328.07 25 1330 25C1331.93 25 1333.5 26.567 1333.5 28.5ZM1335 28.5C1335 31.2614 1332.76 33.5 1330 33.5C1327.24 33.5 1325 31.2614 1325 28.5C1325 25.7386 1327.24 23.5 1330 23.5C1332.76 23.5 1335 25.7386 1335 28.5ZM1321 41C1321.24 37.7963 1324.16 34.7191 1327 34C1327 34 1328.25 35 1330 35C1331.75 35 1333 34 1333 34C1335.84 34.7191 1338.76 37.7963 1339 41C1337.01 43.4164 1333.24 44.5 1330 44.5C1326.76 44.5 1322.99 43.4164 1321 41ZM1332.79 35.8572C1332.95 35.7852 1333.09 35.713 1333.21 35.6438C1334.12 36.0043 1335.06 36.6731 1335.85 37.5625C1336.64 38.4609 1337.2 39.4932 1337.42 40.5052C1335.72 42.1335 1332.77 43 1330 43C1327.23 43 1324.28 42.1335 1322.58 40.5051C1322.8 39.4932 1323.36 38.4609 1324.15 37.5625C1324.94 36.6731 1325.88 36.0043 1326.79 35.6438C1326.91 35.713 1327.05 35.7852 1327.21 35.8572C1327.87 36.1707 1328.84 36.5 1330 36.5C1331.16 36.5 1332.13 36.1707 1332.79 35.8572Z" fill="#262626"/>
  <path d="M1382 23.999C1387.52 23.999 1392 28.4769 1392 34.0006C1392 39.5243 1387.52 44.0021 1382 44.0021C1376.48 44.0021 1372 39.5243 1372 34.0006C1372 28.4769 1376.48 23.999 1382 23.999ZM1384.94 38.5003H1379.06C1379.71 40.9144 1380.85 42.5021 1382 42.5021C1383.15 42.5021 1384.29 40.9144 1384.94 38.5003ZM1377.51 38.5009L1374.79 38.5007C1375.74 40.0338 1377.18 41.2394 1378.88 41.9114C1378.36 41.0915 1377.93 40.0653 1377.61 38.8959L1377.51 38.5009ZM1389.21 38.5007L1386.49 38.5009C1386.17 39.8346 1385.7 41.0004 1385.12 41.9114C1386.72 41.2814 1388.08 40.1824 1389.03 38.7843L1389.21 38.5007ZM1377.09 31.9999H1373.74L1373.73 32.0171C1373.58 32.6535 1373.5 33.3176 1373.5 34.0006C1373.5 35.0567 1373.69 36.0679 1374.04 37.0009L1377.22 37.0005C1377.07 36.0514 1377 35.0432 1377 34.0006C1377 33.3166 1377.03 32.6474 1377.09 31.9999ZM1385.4 32H1378.6C1378.54 32.6403 1378.5 33.31 1378.5 34.0006C1378.5 35.0601 1378.58 36.0704 1378.74 37.0007H1385.26C1385.42 36.0704 1385.5 35.0601 1385.5 34.0006C1385.5 33.31 1385.47 32.6403 1385.4 32ZM1390.26 31.9991L1386.91 31.9999C1386.97 32.6474 1387 33.3166 1387 34.0006C1387 35.0432 1386.93 36.0514 1386.78 37.0005L1389.96 37.0009C1390.31 36.0679 1390.5 35.0567 1390.5 34.0006C1390.5 33.3112 1390.42 32.6409 1390.26 31.9991ZM1378.88 26.0897L1378.86 26.0984C1376.81 26.9132 1375.15 28.5005 1374.25 30.5003L1377.3 30.5007C1377.61 28.7479 1378.16 27.222 1378.88 26.0897ZM1382 25.499L1381.88 25.5043C1380.62 25.6201 1379.4 27.622 1378.83 30.5003H1385.17C1384.61 27.6301 1383.39 25.6313 1382.13 25.5053L1382 25.499ZM1385.12 26.0898L1385.23 26.2639C1385.9 27.3763 1386.4 28.8362 1386.7 30.5007L1389.75 30.5003C1388.89 28.5889 1387.33 27.0544 1385.41 26.2111L1385.12 26.0898Z" fill="#262626"/>
  <defs>
    <clipPath id="clip0_630_3726">
      <rect width="155" height="30" fill="white" transform="translate(48 18)"/>
    </clipPath>
  </defs>
</svg>
