<svg width="155" height="30" viewBox="0 0 155 30" fill="none" xmlns="http://www.w3.org/2000/svg">
<g clip-path="url(#clip0_476_531)">
<path d="M14.9354 0C23.1707 0 29.8707 6.69999 29.8707 14.9352C29.8707 23.1705 23.1707 29.8707 14.9354 29.8707C6.69999 29.8707 0 23.1705 0 14.9352C0 6.69999 6.69999 0 14.9354 0ZM14.9354 1.5861C7.5747 1.5861 1.58643 7.57436 1.58643 14.935C1.58643 22.2955 7.5747 28.2838 14.9354 28.2838C22.2958 28.2838 28.2841 22.2955 28.2841 14.935C28.2841 7.57436 22.2958 1.5861 14.9354 1.5861ZM7.85177 7.37734C7.85177 7.37734 7.86407 7.37009 7.87183 7.38088C7.88126 7.39403 7.8725 7.40195 7.8725 7.40195C6.96679 8.73204 6.4273 10.3217 6.4273 12.0524C6.4273 16.6376 10.1445 20.3546 14.7297 20.3546C15.1089 20.3546 15.4821 20.3257 15.8478 20.2764C15.8478 20.2764 16.1153 20.2397 16.2543 20.2397C17.6174 20.2397 18.7227 21.345 18.7227 22.7081C18.7227 23.9271 17.8397 24.9467 16.678 25.1475C16.1107 25.2434 15.5289 25.2933 14.9354 25.2933C9.21456 25.2933 4.57694 20.6558 4.57694 14.935C4.57694 11.9541 5.83624 9.26714 7.85177 7.37734ZM16.9334 5.05727L16.9721 5.06738C16.9721 5.06738 16.9841 5.07261 16.9826 5.08272C16.9826 5.08272 16.9853 5.09367 16.9692 5.09856L16.947 5.10395C13.6498 5.86422 11.2282 8.90141 11.1121 12.5536C11.0666 13.7177 11.2736 14.8782 11.719 15.9553C12.1575 17.0168 12.8174 17.9722 13.6538 18.7586L13.6632 18.7675C13.6632 18.7675 13.6707 18.7729 13.6624 18.7834C13.6624 18.7834 13.6587 18.7864 13.653 18.7851L13.646 18.7839C12.7284 18.5921 11.8575 18.2191 11.0846 17.6872C10.2998 17.1465 9.63202 16.4525 9.12237 15.6469C8.61271 14.8413 8.27126 13.9408 8.1189 12.9999C7.96654 12.0586 8.00649 11.0968 8.23586 10.1713C8.47401 9.20933 8.9122 8.30783 9.52163 7.5265C10.1311 6.74499 10.8986 6.10034 11.7736 5.63518C13.3582 4.79267 15.2037 4.58655 16.9334 5.05727ZM20.7682 7.14139C22.205 7.67514 23.3804 8.729 24.0565 10.0862L24.072 10.1167C24.072 10.1167 24.0756 10.127 24.0682 10.1317C24.0682 10.1317 24.0626 10.1395 24.0503 10.1322L24.0341 10.1211C21.6822 8.45715 18.3637 8.61659 15.9548 10.5784C15.1818 11.1984 14.5543 11.9765 14.1147 12.8585C13.6816 13.7281 13.4414 14.6783 13.4101 15.6462L13.4096 15.657C13.4096 15.657 13.4103 15.6649 13.399 15.6655C13.399 15.6655 13.3948 15.6648 13.3926 15.6606L13.3895 15.6553C12.9936 14.9674 12.7405 14.2085 12.6449 13.4224C12.5479 12.624 12.616 11.8144 12.8445 11.0425C13.0734 10.2709 13.4581 9.55298 13.9757 8.93192C14.4938 8.31086 15.1336 7.79986 15.8571 7.42959C16.6091 7.04414 17.4353 6.81915 18.2813 6.7696C19.1275 6.72005 19.9749 6.84628 20.7682 7.14139Z" fill="black"/>
<path d="M76.8963 7.58076C79.0256 7.58076 80.7624 8.22778 82.0695 9.40922L80.8079 11.4279C79.6966 10.3166 78.1789 9.80376 76.6826 9.80376C75.2079 9.80376 74.2673 10.5089 74.2673 11.5778C74.2673 12.6891 75.721 13.0525 77.4095 13.4799C77.5036 13.5038 77.5983 13.528 77.6936 13.5525L77.8369 13.5895C77.8847 13.6019 77.9327 13.6145 77.9807 13.6272L78.1251 13.6656C80.2926 14.2476 82.5607 15.1152 82.5607 17.9046C82.5607 20.2769 80.8933 22.3075 77.0462 22.3075C74.4836 22.3075 72.6115 21.4343 71.3506 20.1433L72.6431 18.1183C73.6262 19.1656 75.1651 20.0845 77.153 20.0845C79.2048 20.0845 80.0171 19.08 80.0171 18.1397C80.0171 16.8572 78.4994 16.4724 76.7681 16.0236L76.6981 16.0062L76.5574 15.9713C76.5339 15.9654 76.5103 15.9596 76.4868 15.9537L76.345 15.9181C76.2267 15.8882 76.1078 15.8577 75.9888 15.8263L75.8459 15.7882C73.7734 15.2292 71.7025 14.3707 71.7025 11.7488C71.7025 9.39759 73.7759 7.58076 76.8963 7.58076ZM49.0064 7.79447V9.99606H44.6889V22.051H42.1881V9.99606H37.8707V7.79447H49.0064ZM56.1628 7.79447C60.6086 7.79447 63.6224 10.744 63.6224 14.9335C63.6224 19.1228 60.6086 22.051 56.1628 22.051H50.8622V7.79447H56.1628ZM86.0236 7.79447L89.9564 13.9076L93.8464 7.79447H96.7106L91.196 16.1304V22.051H88.6952V16.1304L83.1595 7.79447H86.0236ZM100.892 7.79447L108.18 17.9046V7.79447H110.681V22.051H108.266L100.828 11.6632V22.051H98.3271V7.79447H100.892ZM116.448 7.79447L123.737 17.9046V7.79447H126.237V22.051H123.822L116.384 11.6632V22.051H113.883V7.79447H116.448ZM139.208 7.79447V9.99606H131.941V13.6939H139.058V15.8952H131.941V19.8495H139.208V22.051H129.44V7.79447H139.208ZM144.533 7.79447L148.209 13.0311L151.864 7.79447H154.878L149.876 14.7198L155.199 22.051H152.206L148.209 16.4724L144.212 22.051H141.22L146.564 14.741L141.541 7.79447H144.533ZM56.1628 9.99606H53.3629V19.8495H56.1628C59.262 19.8495 61.0574 17.6265 61.0574 14.9335C61.0574 12.1762 59.3475 9.99606 56.1628 9.99606Z" fill="black"/>
</g>
<defs>
<clipPath id="clip0_476_531">
<rect width="155" height="30" fill="white"/>
</clipPath>
</defs>
</svg>
