<svg width="106" height="46" viewBox="0 0 106 46" fill="none" xmlns="http://www.w3.org/2000/svg">
<path d="M98.0216 39.0888L98.5394 42.6361H98.5567L100.43 39.0888H101.232L98.2805 44.3018C98.1424 44.5176 98.1424 44.5176 98.0043 44.7118C97.8662 44.9059 97.8662 44.9059 97.7022 45.0483C97.5383 45.1908 97.5383 45.1908 97.3311 45.2728C97.124 45.3547 97.124 45.3547 96.8478 45.3547C96.7183 45.3547 96.7183 45.3547 96.5803 45.3245C96.4422 45.2943 96.4422 45.2943 96.3386 45.2425L96.468 44.647C96.5544 44.6988 96.5544 44.6988 96.6752 44.7333C96.796 44.7679 96.796 44.7679 96.8823 44.7679C97.1326 44.7679 97.1326 44.7678 97.288 44.6341C97.4433 44.5003 97.4433 44.5003 97.5728 44.2845L98.0216 43.5509L97.2362 39.0888H98.0216ZM85.3862 38.9853C85.8177 38.9853 85.8177 38.9853 86.1414 39.1191C86.4651 39.2528 86.4651 39.2528 86.6895 39.4945C86.9138 39.7361 86.9139 39.7361 87.0261 40.0727C87.1383 40.4093 87.1383 40.4093 87.1383 40.815C87.1383 41.3242 87.1383 41.3242 86.97 41.8291C86.8017 42.334 86.8017 42.334 86.4866 42.7396C86.1716 43.1453 86.1716 43.1453 85.7099 43.3956C85.2481 43.6459 85.2481 43.6459 84.6612 43.6459C84.4627 43.6459 84.4627 43.6459 84.2426 43.6113C84.0226 43.5768 84.0226 43.5768 83.8284 43.4862C83.6342 43.3956 83.6342 43.3956 83.4831 43.2445C83.3321 43.0935 83.3321 43.0935 83.2717 42.8691H83.2544L82.7797 45.2512H82.0634L83.358 39.0888H84.0485L83.8931 39.7275H83.9104C84.2383 39.296 84.2383 39.296 84.5879 39.1406C84.9374 38.9853 84.9374 38.9853 85.3862 38.9853ZM30.7279 37.2419C31.1853 37.2419 31.1853 37.2419 31.5953 37.3584C32.0053 37.4749 32.0053 37.4749 32.316 37.7122C32.6267 37.9496 32.6267 37.9496 32.8036 38.3207C32.9805 38.6918 32.9805 38.6918 32.9633 39.2097H32.1434C32.152 38.8472 32.152 38.8472 32.0527 38.6012C31.9535 38.3552 31.9535 38.3552 31.7679 38.2042C31.5824 38.0532 31.5824 38.0532 31.3148 37.9927C31.0473 37.9323 31.0473 37.9323 30.7279 37.9323C30.5035 37.9323 30.5035 37.9323 30.2532 37.9884C30.0029 38.0445 30.0029 38.0445 29.7915 38.1654C29.58 38.2862 29.58 38.2862 29.4419 38.4761C29.3039 38.6659 29.3039 38.6659 29.3039 38.9421C29.3039 39.1665 29.3039 39.1665 29.3815 39.3262C29.4592 39.4859 29.4592 39.4859 29.593 39.6024C29.7268 39.7189 29.7268 39.7189 29.9123 39.7966C30.0979 39.8742 30.0979 39.8742 30.305 39.9347L31.1336 40.159C31.4184 40.2367 31.4184 40.2367 31.6859 40.3532C31.9535 40.4698 31.9535 40.4698 32.1606 40.6553C32.3678 40.8409 32.3678 40.8409 32.4929 41.1257C32.618 41.4105 32.618 41.4105 32.618 41.8248C32.618 42.3081 32.618 42.3081 32.398 42.6576C32.1779 43.0072 32.1779 43.0072 31.8326 43.2359C31.4874 43.4646 31.4874 43.4646 31.0602 43.5768C30.633 43.689 30.633 43.689 30.2187 43.689C29.6663 43.689 29.6663 43.689 29.2003 43.5639C28.7342 43.4387 28.7342 43.4387 28.4106 43.1798C28.0869 42.9209 28.0869 42.9209 27.9186 42.5109C27.7503 42.101 27.7503 42.101 27.7935 41.5313H28.6134C28.5961 41.9456 28.5961 41.9456 28.7083 42.2304C28.8205 42.5152 28.8205 42.5152 29.0406 42.6879C29.2607 42.8605 29.2607 42.8605 29.5714 42.9338C29.8821 43.0072 29.8821 43.0072 30.2532 43.0072C30.538 43.0072 30.538 43.0072 30.8185 42.9381C31.099 42.8691 31.099 42.8691 31.3148 42.7267C31.5306 42.5843 31.5306 42.5843 31.6644 42.3599C31.7981 42.1355 31.7981 42.1355 31.7981 41.8248C31.7981 41.5917 31.7981 41.5917 31.7118 41.4234C31.6255 41.2551 31.6255 41.2551 31.4745 41.1386C31.3234 41.0221 31.3234 41.0221 31.1249 40.9444C30.9264 40.8668 30.9264 40.8668 30.702 40.8064L29.8648 40.582C29.5887 40.5043 29.5887 40.5043 29.3384 40.3791C29.0881 40.254 29.0881 40.254 28.8982 40.0684C28.7083 39.8829 28.7083 39.8829 28.5961 39.6283C28.4839 39.3737 28.4839 39.3737 28.4839 39.0284C28.4839 38.5796 28.4839 38.5796 28.6824 38.2473C28.8809 37.9151 28.8809 37.9151 29.196 37.6907C29.511 37.4663 29.511 37.4663 29.9123 37.3541C30.3136 37.2419 30.3136 37.2419 30.7279 37.2419ZM67.6501 37.2419C68.1507 37.2419 68.1507 37.2419 68.5779 37.3756C69.0051 37.5094 69.0051 37.5094 69.3201 37.7727C69.6352 38.0359 69.6352 38.0359 69.8164 38.4372C69.9977 38.8386 69.9977 38.8386 69.9977 39.3737H69.1777C69.1777 38.6487 69.1777 38.6487 68.7505 38.2905C68.3233 37.9323 68.3233 37.9323 67.6501 37.9323C67.0028 37.9323 67.0028 37.9323 66.5238 38.2042C66.0448 38.4761 66.0448 38.4761 65.7255 38.9076C65.4061 39.3391 65.4061 39.3391 65.2464 39.8872C65.0868 40.4352 65.0868 40.4352 65.0868 40.9962C65.0868 41.445 65.0868 41.445 65.199 41.8161C65.3112 42.1873 65.3112 42.1873 65.5356 42.4505C65.76 42.7137 65.76 42.7137 66.1009 42.8605C66.4418 43.0072 66.4418 43.0072 66.9079 43.0072C67.6674 43.0072 67.6674 43.0072 68.1421 42.6059C68.6167 42.2045 68.6167 42.2045 68.8153 41.4709H69.6352C69.4021 42.5066 69.4021 42.5066 68.7246 43.0978C68.0471 43.689 68.0471 43.689 66.9079 43.689C65.6391 43.689 65.6391 43.689 64.953 42.9856C64.2669 42.2822 64.2669 42.2822 64.2669 40.9962C64.2669 40.2454 64.2669 40.2454 64.4999 39.5678C64.7329 38.8903 64.7329 38.8903 65.1688 38.3725C65.6046 37.8546 65.6046 37.8547 66.2347 37.5483C66.8647 37.2419 66.8647 37.2419 67.6501 37.2419ZM72.8113 38.9853C73.7175 38.9853 73.7175 38.9853 74.1922 39.4556C74.6669 39.926 74.6669 39.926 74.6669 40.8322C74.6669 41.376 74.6669 41.376 74.5029 41.8852C74.3389 42.3944 74.3389 42.3944 74.0196 42.7871C73.7002 43.1798 73.7002 43.1798 73.2428 43.4128C72.7854 43.6459 72.7854 43.6459 72.1985 43.6459C71.7583 43.6459 71.7583 43.6459 71.4088 43.5078C71.0592 43.3697 71.0592 43.3697 70.8176 43.1237C70.5759 42.8777 70.5759 42.8777 70.4465 42.5368C70.317 42.1959 70.317 42.1959 70.317 41.7903C70.317 41.2465 70.317 41.2465 70.4853 40.7373C70.6536 40.2281 70.6536 40.2281 70.9772 39.8397C71.3009 39.4513 71.3009 39.4513 71.7626 39.2183C72.2244 38.9853 72.2244 38.9853 72.8113 38.9853ZM89.9864 38.9853C90.3144 38.9853 90.3144 38.9853 90.6078 39.0371C90.9012 39.0888 90.9012 39.0888 91.1256 39.2183C91.35 39.3478 91.35 39.3478 91.4838 39.5678C91.6176 39.7879 91.6176 39.7879 91.6176 40.1245C91.6176 40.3144 91.6176 40.3144 91.5701 40.5345C91.5227 40.7546 91.5227 40.7546 91.4795 40.9358L91.1947 42.1527C91.1688 42.2908 91.1688 42.2908 91.1213 42.4634C91.0739 42.6361 91.0739 42.6361 91.0739 42.7914C91.0739 42.9468 91.0739 42.9468 91.1343 43.0072C91.1947 43.0676 91.1947 43.0676 91.2896 43.0676C91.3414 43.0676 91.3414 43.0676 91.4061 43.046C91.4709 43.0244 91.4709 43.0244 91.5227 43.0072L91.4105 43.5509C91.3242 43.5854 91.3241 43.5854 91.1904 43.6157C91.0566 43.6459 91.0566 43.6459 90.9617 43.6459C90.6596 43.6459 90.6596 43.6459 90.5042 43.4819C90.3489 43.3179 90.3489 43.3179 90.3834 43.0244L90.3661 43.0072C90.1331 43.3179 90.1331 43.3179 89.7879 43.4819C89.4426 43.6459 89.4426 43.6459 88.873 43.6459C88.5882 43.6459 88.5882 43.6459 88.3422 43.5811C88.0963 43.5164 88.0963 43.5164 87.915 43.3654C87.7338 43.2143 87.7338 43.2143 87.6259 42.977C87.518 42.7396 87.518 42.7396 87.518 42.3944C87.518 41.9025 87.518 41.9025 87.7295 41.6263C87.9409 41.3501 87.9409 41.3501 88.2689 41.2077C88.5968 41.0653 88.5968 41.0653 88.9939 41.0135C89.3909 40.9617 89.3909 40.9617 89.762 40.9272C90.0554 40.9013 90.0554 40.9013 90.2669 40.8711C90.4783 40.8409 90.4783 40.8409 90.6164 40.7718C90.7545 40.7028 90.7545 40.7028 90.8193 40.5733C90.884 40.4439 90.884 40.4439 90.884 40.2195C90.884 40.0382 90.884 40.0382 90.7977 39.926C90.7114 39.8138 90.7114 39.8138 90.5819 39.7491C90.4524 39.6844 90.4524 39.6844 90.2928 39.6585C90.1331 39.6326 90.1331 39.6326 89.9864 39.6326C89.7793 39.6326 89.7793 39.6326 89.5764 39.6757C89.3736 39.7189 89.3736 39.7189 89.2096 39.8181C89.0456 39.9174 89.0456 39.9174 88.9334 40.0684C88.8212 40.2195 88.8212 40.2195 88.7867 40.4352H88.0531C88.1049 40.0641 88.1049 40.0641 88.2818 39.7922C88.4588 39.5204 88.4588 39.5204 88.7177 39.3391C88.9766 39.1579 88.9766 39.1579 89.3046 39.0716C89.6325 38.9853 89.6325 38.9853 89.9864 38.9853ZM47.0054 37.3886L49.2063 42.4893H49.2235L50.2506 37.3886H51.0446L49.7414 43.5509H48.861L46.6775 38.4847H46.6602L45.6159 43.5509H44.8219L46.1251 37.3886H47.0054ZM80.7688 38.9853C81.0018 38.9853 81.0018 38.9853 81.2262 39.0414C81.4506 39.0975 81.4506 39.0975 81.6275 39.214C81.8045 39.3305 81.8045 39.3305 81.908 39.5204C82.0116 39.7103 82.0116 39.7103 82.0116 39.9864C82.0116 40.1849 82.0116 40.1849 81.9685 40.4352C81.9253 40.6855 81.9253 40.6855 81.8821 40.8754L81.3212 43.5509H80.5875L81.209 40.72C81.2348 40.6165 81.2348 40.6165 81.2564 40.4741C81.278 40.3317 81.278 40.3317 81.278 40.2367C81.278 39.9778 81.278 39.9778 81.0838 39.8052C80.8896 39.6326 80.8896 39.6326 80.5962 39.6326C80.4408 39.6326 80.4408 39.6326 80.2812 39.6844C80.1215 39.7361 80.1215 39.7361 79.9748 39.8181C79.828 39.9001 79.828 39.9001 79.6986 40.0123C79.5691 40.1245 79.5691 40.1245 79.4742 40.2454C79.2929 40.4439 79.2929 40.4439 79.2066 40.7028C79.1203 40.9617 79.1203 40.9617 79.0599 41.2465L78.568 43.5509H77.8343L78.3694 41.0049C78.4299 40.7459 78.4299 40.7459 78.4687 40.5215C78.5075 40.2971 78.5075 40.2971 78.5075 40.2195C78.5075 39.9433 78.5075 39.9433 78.3479 39.7879C78.1882 39.6326 78.1882 39.6326 77.8861 39.6326C77.5841 39.6326 77.5841 39.6326 77.2863 39.8052C76.9885 39.9778 76.9885 39.9778 76.79 40.2022C76.557 40.4266 76.557 40.4266 76.4707 40.6553C76.3844 40.884 76.3844 40.884 76.3153 41.212L75.8148 43.5509H75.0898L76.0305 39.0888H76.7123L76.5484 39.7534L76.5656 39.7707C76.8504 39.4082 76.8504 39.4082 77.2518 39.1967C77.6531 38.9853 77.6531 38.9853 78.1192 38.9853C78.5421 38.9853 78.5421 38.9853 78.8441 39.1665C79.1462 39.3478 79.1462 39.3478 79.2411 39.7879C79.5001 39.4254 79.5001 39.4254 79.91 39.2054C80.32 38.9853 80.32 38.9853 80.7688 38.9853ZM19.8705 37.3886L19.7151 38.0791H17.6438L16.4872 43.5509H15.6673L16.8238 38.0791H14.7525L14.8992 37.3886H19.8705ZM56.6028 37.3886L56.4647 38.0791H53.0383L52.624 40.0382H55.8174L55.6793 40.7287H52.4773L52.0285 42.8605H55.4981L55.3427 43.5509H51.0532L52.3565 37.3886H56.6028ZM10.2127 37.3886L11.3261 43.5509H10.4803L10.1955 41.6953H7.59761L6.51877 43.5509H5.61255L9.31512 37.3886H10.2127ZM40.7741 37.3886L42.9749 42.4893H42.9922L44.0192 37.3886H44.8132L43.51 43.5509H42.6297L40.4461 38.4847H40.4288L39.3845 43.5509H38.5905L39.8937 37.3886H40.7741ZM34.698 37.3886L35.9581 40.3748L38.2971 37.3886H39.2464L36.2602 41.0739L35.7251 43.5509H34.9224L35.4489 41.0739L33.8263 37.3886H34.698ZM57.9578 37.3886L59.0971 39.8225L61.0735 37.3886H61.997L59.4596 40.4439L61.0217 43.5509H60.1759L58.9331 40.9444L56.8272 43.5509H55.8951L58.562 40.3317L57.0775 37.3886H57.9578ZM22.71 37.3886C23.8579 37.3886 23.8579 37.3886 24.4491 38.0186C25.0403 38.6487 25.0403 38.6487 25.0403 39.7448C25.0403 40.6165 25.0403 40.6165 24.79 41.3199C24.5397 42.0233 24.5397 42.0233 24.0909 42.5196C23.6421 43.0158 23.6421 43.0158 23.0121 43.2834C22.382 43.5509 22.382 43.5509 21.6139 43.5509H19.2491L20.5523 37.3886H22.71ZM95.1476 38.9853C95.7776 38.9853 95.7776 38.9853 96.084 39.2615C96.3904 39.5376 96.3904 39.5376 96.3904 40.1332C96.3904 40.2799 96.3904 40.2799 96.3559 40.5129C96.3213 40.7459 96.3213 40.7459 96.2609 41.0049L95.7172 43.5509H94.9836L95.5532 40.9444C95.5618 40.8754 95.5618 40.8754 95.5791 40.7848C95.5963 40.6942 95.5964 40.6942 95.6136 40.5949C95.6309 40.4956 95.6309 40.4957 95.6438 40.405C95.6568 40.3144 95.6568 40.3144 95.6568 40.254C95.6568 39.9347 95.6568 39.9347 95.4324 39.7836C95.208 39.6326 95.208 39.6326 94.88 39.6326C94.5779 39.6326 94.5779 39.6326 94.2802 39.7793C93.9824 39.926 93.9824 39.926 93.7753 40.1504C93.5768 40.323 93.5768 40.323 93.4646 40.569C93.3524 40.815 93.3524 40.815 93.2833 41.0825L92.7655 43.5509H92.0405L92.9726 39.0888H93.6803L93.5422 39.762H93.5595C93.8357 39.3737 93.8357 39.3737 94.2586 39.1795C94.6815 38.9853 94.6815 38.9853 95.1476 38.9853ZM90.6855 41.2724H90.6682C90.5129 41.3846 90.5129 41.3846 90.2755 41.4321C90.0382 41.4796 90.0382 41.4795 89.7706 41.5054C89.5031 41.5313 89.5031 41.5313 89.2312 41.5702C88.9593 41.609 88.9593 41.609 88.7436 41.6953C88.5278 41.7816 88.5278 41.7816 88.3897 41.9413C88.2516 42.101 88.2516 42.101 88.243 42.3858C88.243 42.6965 88.243 42.6965 88.489 42.8518C88.7349 43.0072 88.7349 43.0072 89.0456 43.0072C89.9173 43.0072 89.9173 43.0072 90.2971 42.4203C90.4783 42.17 90.4783 42.17 90.5431 41.8766C90.6078 41.5831 90.6078 41.5831 90.6855 41.2724ZM72.7595 39.6326C72.3366 39.6326 72.3366 39.6326 72.0172 39.8397C71.6979 40.0469 71.6979 40.0468 71.4821 40.3619C71.2664 40.6769 71.2664 40.6769 71.1585 41.0566C71.0506 41.4364 71.0506 41.4364 71.0506 41.7816C71.0506 42.334 71.0506 42.334 71.3613 42.6706C71.672 43.0072 71.672 43.0072 72.2762 43.0072C72.6818 43.0072 72.6818 43.0072 72.9882 42.8C73.2946 42.5929 73.2946 42.5929 73.506 42.2779C73.7175 41.9629 73.7175 41.9629 73.8254 41.5918C73.9333 41.2206 73.9333 41.2206 73.9333 40.8927C73.9333 40.6337 73.9333 40.6337 73.8642 40.4007C73.7952 40.1677 73.7952 40.1677 73.6485 39.9994C73.5017 39.8311 73.5017 39.8311 73.2816 39.7318C73.0616 39.6326 73.0616 39.6326 72.7595 39.6326ZM85.2568 39.6326C84.8425 39.6326 84.8425 39.6326 84.5145 39.8483C84.1866 40.0641 84.1866 40.0641 83.9665 40.3921C83.7464 40.7201 83.7464 40.72 83.6299 41.1084C83.5134 41.4968 83.5134 41.4968 83.5134 41.8507C83.5134 42.3512 83.5134 42.3513 83.8025 42.6792C84.0916 43.0072 84.0916 43.0072 84.6353 43.0072C85.0755 43.0072 85.0755 43.0072 85.4035 42.8044C85.7314 42.6015 85.7314 42.6015 85.9558 42.2822C86.1802 41.9629 86.1802 41.9629 86.2924 41.5745C86.4046 41.1861 86.4046 41.1861 86.4046 40.815C86.4046 40.2713 86.4046 40.2712 86.1328 39.9519C85.8609 39.6326 85.8609 39.6326 85.2568 39.6326ZM22.5201 38.0791H21.2082L20.1985 42.8605H21.6225C22.2785 42.8605 22.2785 42.8605 22.7661 42.5972C23.2537 42.334 23.2537 42.334 23.5774 41.9068C23.901 41.4795 23.901 41.4795 24.0607 40.9358C24.2204 40.3921 24.2204 40.3921 24.2204 39.8311C24.2204 39.4945 24.2204 39.4945 24.147 39.1751C24.0736 38.8558 24.0736 38.8558 23.8838 38.6142C23.6939 38.3725 23.6939 38.3725 23.3616 38.2258C23.0293 38.079 23.0293 38.0791 22.5201 38.0791ZM9.63446 38.1136H9.6172L7.96873 41.0049H10.0919L9.63446 38.1136ZM72.9275 11.4653L72.1968 14.3814L67.4178 14.38C65.708 14.38 64.4277 15.3364 63.685 18.2127C62.9423 21.0895 63.1341 23.1769 65.7674 23.1769L66.4704 23.1764C66.5262 23.1764 66.5841 23.1763 66.6439 23.1763L67.6412 23.1754C67.7118 23.1753 67.7826 23.1752 67.8535 23.1752L68.6825 23.1744C68.7482 23.1743 68.8126 23.1742 68.8754 23.1742L69.6603 23.1734C69.6995 23.1734 69.7356 23.1733 69.7682 23.1733L69.9739 23.1731L69.1679 26.4325L64.1985 26.4354C61.745 26.4354 60.2145 25.4577 59.479 23.9464C58.7224 22.3921 58.8053 20.274 59.3361 18.1611C60.1426 14.9041 61.2905 11.4653 66.7005 11.4653H72.9275ZM54.1259 11.4651C57.3135 11.4651 58.8042 14.3518 58.0654 17.3024C57.8175 18.2943 57.514 19.5042 57.514 19.5042H48.6315C47.8456 22.6904 48.8789 23.1728 51.2222 23.1728H56.5847L55.7667 26.4323L49.5478 26.4351C47.0948 26.4351 45.5633 25.4574 44.8282 23.9467C44.0721 22.3919 44.1546 20.2743 44.6854 18.1609C45.4919 14.9043 46.6397 11.4651 52.0498 11.4651H54.1259ZM49.2966 7.57138L48.4848 10.7807H42.5997C42.5997 10.7807 43.1137 11.2353 42.9895 11.7314C42.8653 12.2276 39.2706 26.4347 39.2706 26.4347H34.2744L38.234 10.7807H32.4308L33.2353 7.57138H49.2966ZM90.0328 7.57129C92.7112 7.57129 95.4471 9.96421 94.5687 13.9786C94.1549 15.8682 93.1849 19.971 92.189 22.2968C91.1932 24.6334 89.5869 26.4346 85.9164 26.4346H75.4431C75.4431 26.4346 75.4835 26.2739 75.5566 25.9832L75.6271 25.7031C75.9656 24.3574 76.7243 21.3421 77.5066 18.2403L77.6873 17.5236C78.5913 13.9401 79.4858 10.4035 79.7613 9.34599C79.9272 8.44256 79.0919 7.57129 79.0919 7.57129H90.0328ZM87.9226 10.7806H83.7367C83.7367 10.7806 84.2536 11.2739 84.1289 11.7692C84.0089 12.2484 81.4425 22.3792 81.2526 23.129L81.2415 23.1728L85.0404 23.1737C86.7843 23.1737 87.539 22.5503 88.0103 20.7316C88.4337 19.0998 89.6454 14.2506 89.9709 12.9342C90.3008 11.6008 89.2263 10.7806 87.9226 10.7806ZM52.6879 14.2714H52.2205C50.5106 14.2714 49.7933 14.8267 49.2711 17.011H54.5781C54.5781 17.011 55.3568 14.2714 52.6879 14.2714ZM97.4845 7.5764L97.8594 8.55693L97.987 8.90601H97.998L98.1193 8.55693L98.501 7.5764H98.9809V9.37428H98.5997V8.51341L98.6386 8.03947H98.6328L98.5839 8.18657L98.1308 9.37428H97.8541L97.3958 8.18657L97.3464 8.03947H97.3406L97.3795 8.51341V9.37428H96.9978V7.5764H97.4845ZM96.7954 7.5764V7.8706H96.2431V9.37428H95.8561V7.8706H95.2985V7.5764H96.7954Z" fill="black"/>
<path d="M106 0.569824L98.965 35.4343L0 33.8838L0.0196588 33.7973L97.5457 33.7802L105.913 0.569824H106ZM22.3522 7.57134C25.0335 7.57134 27.7594 9.98129 26.892 13.9881C26.482 15.8791 26.0606 17.4448 25.8578 18.1415C25.1975 20.4058 23.247 21.8664 19.5818 23.0205C18.3881 23.3965 16.2396 24.0707 13.9804 24.7791L13.3621 24.973L12.4327 25.2643C8.93066 26.362 5.62209 27.3982 5.62209 27.3982L6.82128 22.6875L18.6938 18.9343C20.2761 18.4291 21.1823 17.8005 21.6345 15.9572C21.7072 15.6608 21.7679 15.4167 21.8204 15.2068L21.9158 14.8275C22.0752 14.1961 22.1603 13.8637 22.3647 12.9418C22.6615 11.6008 21.656 10.7892 20.4142 10.7892H19.3593L20.1696 7.57134H22.3522ZM18.868 7.57134L18.0505 10.7892H13.984L14.0206 10.8266C14.1343 10.947 14.469 11.3357 14.391 11.6656L12.3815 19.6196L7.18535 21.2605L9.84218 10.7892H5.8826L6.68238 7.57134H18.868Z" fill="black"/>
</svg>
