<svg width="140" height="45" viewBox="0 0 140 45" fill="none" xmlns="http://www.w3.org/2000/svg">
<path fill-rule="evenodd" clip-rule="evenodd" d="M19.8794 6.31189H17.9381L17.2177 9.21322H18.1559C19.2604 9.21322 20.1546 9.9448 19.8905 11.154C19.626 12.3632 19.5856 12.4471 19.2408 13.872C18.8386 15.5344 18.0332 16.1008 16.6258 16.5561L6.06659 19.9398L5.00031 24.1869C5.00031 24.1869 14.4715 21.1798 17.4153 20.24C20.6752 19.1997 22.4099 17.8832 22.997 15.8415C23.1776 15.213 23.5527 13.8019 23.9166 12.097C24.6885 8.48483 22.2643 6.31189 19.8794 6.31189Z" fill="black"/>
<path fill-rule="evenodd" clip-rule="evenodd" d="M5.94308 6.31189L5.23169 9.21322H8.75356L6.39042 18.6536L11.0115 17.1739L12.7993 10.0032C12.8821 9.64621 12.4369 9.21322 12.4369 9.21322H16.0539L16.7807 6.31189H5.94308Z" fill="black"/>
<mask id="mask0_507_3517" style="mask-type:alpha" maskUnits="userSpaceOnUse" x="0" y="0" width="140" height="32">
<path d="M0 0H140V31.4321H0V0Z" fill="#00B8E6"/>
</mask>
<g mask="url(#mask0_507_3517)">
<path fill-rule="evenodd" clip-rule="evenodd" d="M133.744 31.4321L-0.000244141 30.0343L0.0172882 29.9562L132.481 29.9408L139.923 -0.00012207H140L133.744 31.4321Z" fill="black"/>
</g>
<path fill-rule="evenodd" clip-rule="evenodd" d="M129.309 7.72367C129.309 6.90922 129.972 6.31152 130.753 6.31152C131.524 6.31152 132.182 6.90922 132.182 7.72367C132.182 8.5445 131.524 9.14166 130.753 9.14166C129.972 9.14166 129.309 8.5445 129.309 7.72367ZM130.753 8.90684C131.389 8.90684 131.897 8.40424 131.897 7.72367C131.897 7.05213 131.389 6.54901 130.753 6.54901C130.104 6.54901 129.593 7.05213 129.593 7.72367C129.593 8.40424 130.104 8.90684 130.753 8.90684ZM130.453 8.5445H130.203V6.90922H130.827C131.212 6.90922 131.404 7.05213 131.404 7.37568C131.404 7.66842 131.219 7.7938 130.979 7.82408L131.44 8.5445H131.166L130.736 7.8363H130.453V8.5445ZM130.746 7.62485C130.957 7.62485 131.142 7.61104 131.142 7.36081C131.142 7.16104 130.962 7.11588 130.786 7.11588H130.453V7.62485H130.746Z" fill="black"/>
<path fill-rule="evenodd" clip-rule="evenodd" d="M48.5401 14.8223H43.8202C44.2845 12.8534 44.9226 12.3529 46.4437 12.3529H46.8586C49.2329 12.3529 48.5401 14.8223 48.5401 14.8223ZM48.1374 9.82239H46.2912C41.4799 9.82239 40.4593 12.9229 39.7415 15.8593C39.2698 17.7645 39.1965 19.6734 39.8691 21.0749C40.5225 22.4371 41.8842 23.3191 44.0662 23.3191L49.5974 23.3164L50.3242 20.3779H45.5554C43.4711 20.3779 42.552 19.9428 43.2512 17.0696H51.1514C51.1514 17.0696 51.4207 15.9794 51.6417 15.0853C52.2984 12.4251 50.9728 9.82239 48.1374 9.82239Z" fill="black"/>
<path fill-rule="evenodd" clip-rule="evenodd" d="M77.4072 13.1055C77.0709 14.4598 74.8576 23.3183 74.8576 23.3183H70.9814C70.9814 23.3183 73.0906 14.8779 73.3892 13.6655C73.6049 12.791 73.1984 12.452 72.4759 12.452H69.2611C69.2611 12.452 69.7281 12.8771 69.6187 13.3122C69.5092 13.7468 67.1211 23.3183 67.1211 23.3183H63.2438L67.0807 7.92817C67.272 7.12328 66.4862 6.31201 66.4862 6.31201H71.3623L70.4878 9.83122H74.949C77.3313 9.83122 77.8679 11.2503 77.4072 13.1055Z" fill="black"/>
<path fill-rule="evenodd" clip-rule="evenodd" d="M37.8867 9.20549C37.8867 9.20549 38.3436 9.61564 38.2336 10.0625C38.1231 10.5098 34.9258 23.3185 34.9258 23.3185H30.4822L34.0041 9.20549H28.8432L29.5588 6.31213H43.8429L43.1209 9.20549H37.8867Z" fill="black"/>
<path fill-rule="evenodd" clip-rule="evenodd" d="M92.2364 11.147C91.9469 12.3338 90.8694 16.7058 90.4928 18.1764C90.0731 19.8164 89.4021 20.3785 87.8518 20.3785L84.4728 20.378C84.4728 20.378 86.9295 10.545 87.041 10.0966C87.1515 9.65034 86.692 9.20566 86.692 9.20566H90.4141C91.5745 9.20566 92.5297 9.94467 92.2364 11.147ZM92.2917 6.31177H82.5607C82.5607 6.31177 83.304 7.09753 83.1563 7.91199C82.6091 10.0414 79.3162 23.3181 79.3162 23.3181H88.6306C91.8948 23.3181 93.3234 21.6945 94.2091 19.588C95.0947 17.491 95.9575 13.7922 96.3252 12.0879C97.1067 8.4693 94.6734 6.31177 92.2917 6.31177Z" fill="black"/>
<path fill-rule="evenodd" clip-rule="evenodd" d="M102.77 20.379H100.548C99.4418 20.379 98.52 19.9652 98.8994 18.4372C99.2819 16.897 100.331 16.599 101.333 16.599H103.71L102.77 20.379ZM105.971 9.82617H98.9302L98.2799 12.4518H103.522C104.13 12.4518 104.656 12.8152 104.469 13.5552L104.312 14.1869H101.427C99.3839 14.1869 96.7238 14.9626 95.8679 18.2884C95.8259 18.4515 95.7908 18.6099 95.7589 18.7666C95.7016 19.0359 95.6681 19.3149 95.6681 19.6028C95.6681 21.7407 97.5871 23.3181 99.3972 23.3181H105.861C105.861 23.3181 107.949 14.9079 108.406 13.0792C108.864 11.2436 108.29 9.82617 105.971 9.82617Z" fill="black"/>
<path fill-rule="evenodd" clip-rule="evenodd" d="M123.983 20.379H121.76C120.654 20.379 119.732 19.9652 120.112 18.4372C120.494 16.897 121.543 16.599 122.545 16.599H124.922L123.983 20.379ZM127.183 9.82617H120.143L119.492 12.4518H124.734C125.342 12.4518 125.869 12.8152 125.682 13.5552L125.524 14.1869H122.639C120.596 14.1869 117.936 14.9626 117.08 18.2884C117.038 18.4515 117.003 18.6099 116.971 18.7666C116.914 19.0359 116.88 19.3149 116.88 19.6028C116.88 21.7407 118.799 23.3181 120.61 23.3181H123.252H127.074C127.074 23.3181 129.162 14.9079 129.618 13.0792C130.076 11.2436 129.503 9.82617 127.183 9.82617Z" fill="black"/>
<path fill-rule="evenodd" clip-rule="evenodd" d="M56.6393 15.9059C57.3002 13.3127 58.4382 12.451 59.9592 12.451L64.2095 12.4521L64.8593 9.82275H59.3212C54.5099 9.82275 53.4888 12.9233 52.7715 15.8592C52.2997 17.7644 52.2259 19.6738 52.8985 21.0748C53.5525 22.4375 54.9142 23.3189 57.0962 23.3189L61.5154 23.3162L62.2326 20.3777C62.2326 20.3777 58.953 20.3814 58.4908 20.3814C56.1489 20.3814 55.9789 18.4991 56.6393 15.9059Z" fill="black"/>
<path fill-rule="evenodd" clip-rule="evenodd" d="M113.675 20.3777H115.769L115.042 23.3184H110.332C109.506 23.3184 108.672 22.6394 109.003 21.2735C109.266 20.1753 111.2 12.4526 111.2 12.4526H109.489L110.139 9.82701H111.861L112.111 8.81386C112.298 8.05891 111.517 7.21045 111.517 7.21045H116.33L115.677 9.83126H118.156L117.469 12.4526H114.468C114.468 12.4526 114.913 12.8984 114.813 13.3074C114.769 13.4918 113.557 18.3211 113.237 19.5983C113.143 19.9708 113.183 20.3777 113.675 20.3777Z" fill="black"/>
<path fill-rule="evenodd" clip-rule="evenodd" d="M33.4457 39.5028L32.9389 36.2991H32.9198L31.0932 39.5028H33.4457ZM33.5796 35.4958L34.8133 42.3239H33.8761L33.5605 40.2678H30.682L29.4866 42.3239H28.4825L32.5851 35.4958H33.5796Z" fill="black"/>
<path fill-rule="evenodd" clip-rule="evenodd" d="M41.3927 36.2609L40.1112 42.3239H39.2027L40.4842 36.2609H38.189L38.3511 35.4958H43.8599L43.6873 36.2609H41.3927Z" fill="black"/>
<path fill-rule="evenodd" clip-rule="evenodd" d="M45.6865 41.559C46.171 41.559 46.5934 41.4617 46.9536 41.2673C47.3138 41.0728 47.6135 40.8178 47.8526 40.5022C48.0911 40.1867 48.2696 39.828 48.3881 39.4264C48.506 39.0247 48.565 38.6167 48.565 38.2023C48.565 37.9537 48.5374 37.7114 48.4837 37.4755C48.4295 37.2396 48.3318 37.0324 48.192 36.8539C48.0518 36.6754 47.8589 36.532 47.6135 36.4236C47.368 36.3152 47.0572 36.261 46.6811 36.261H45.2275L44.1086 41.559H45.6865ZM46.8915 35.496C47.7389 35.496 48.3812 35.7287 48.8184 36.1941C49.2551 36.6595 49.4735 37.297 49.4735 38.1067C49.4735 38.7506 49.3811 39.3324 49.1956 39.8519C49.0113 40.3715 48.7525 40.8146 48.421 41.1812C48.0895 41.5478 47.691 41.8299 47.2256 42.0275C46.7602 42.2252 46.2444 42.324 45.6764 42.324H43.0567L44.5007 35.496H46.8915Z" fill="black"/>
<path fill-rule="evenodd" clip-rule="evenodd" d="M57.0136 36.8394C56.9398 36.6577 56.8351 36.5111 56.6975 36.3995C56.5604 36.288 56.3931 36.2099 56.196 36.1652C55.9983 36.1206 55.7816 36.0983 55.5452 36.0983C55.3799 36.0983 55.2046 36.1196 55.0197 36.1605C54.8343 36.2019 54.6638 36.2672 54.5076 36.3565C54.3514 36.4458 54.2223 36.561 54.1208 36.7008C54.0182 36.841 53.9678 37.0132 53.9678 37.2172C53.9678 37.3829 53.9959 37.5253 54.0538 37.6427C54.1112 37.7607 54.1893 37.8627 54.2881 37.9488C54.387 38.0348 54.5044 38.1065 54.642 38.1639C54.779 38.2213 54.9236 38.2723 55.0766 38.3169L55.9951 38.5656C56.2055 38.623 56.409 38.6947 56.6067 38.7807C56.8043 38.8668 56.9801 38.9784 57.1332 39.1154C57.2862 39.2525 57.4084 39.4263 57.5013 39.6366C57.5938 39.847 57.64 40.1052 57.64 40.4112C57.64 40.7688 57.5582 41.0759 57.3961 41.3341C57.2336 41.5923 57.0248 41.8064 56.7698 41.9748C56.5147 42.1438 56.2289 42.2697 55.9139 42.3525C55.5983 42.4354 55.2875 42.4769 54.9815 42.4769C54.5729 42.4769 54.1968 42.4306 53.853 42.3382C53.5082 42.2458 53.2171 42.1039 52.9775 41.9126C52.7389 41.7214 52.5567 41.4743 52.4329 41.1715C52.3086 40.8687 52.2624 40.5069 52.2937 40.0861H53.2027C53.19 40.3921 53.2245 40.6503 53.3074 40.8607C53.3908 41.0711 53.5135 41.24 53.6761 41.3676C53.8381 41.4956 54.0347 41.5864 54.2637 41.6401C54.4937 41.6943 54.745 41.7214 55.0197 41.7214C55.2301 41.7214 55.4384 41.6964 55.6461 41.6449C55.8528 41.5939 56.0361 41.5158 56.196 41.4106C56.3554 41.3054 56.4845 41.1699 56.5827 41.0042C56.6821 40.8384 56.7315 40.6408 56.7315 40.4112C56.7315 40.2391 56.6991 40.0909 56.6359 39.9666C56.5721 39.8422 56.4845 39.737 56.3729 39.651C56.2613 39.5649 56.1322 39.4932 55.9851 39.4358C55.8384 39.3784 55.6822 39.3274 55.517 39.2828L54.5894 39.0342C54.3854 38.9768 54.1909 38.9019 54.006 38.8094C53.8206 38.7175 53.6586 38.6022 53.5183 38.4652C53.3775 38.3281 53.266 38.1655 53.1836 37.9774C53.1007 37.7899 53.0593 37.5678 53.0593 37.3128C53.0593 36.9818 53.1321 36.6928 53.2792 36.4474C53.4259 36.2019 53.6155 35.9968 53.8482 35.8305C54.0804 35.6653 54.3455 35.5405 54.642 35.4576C54.9384 35.3752 55.2397 35.3333 55.5452 35.3333C55.8836 35.3333 56.2039 35.3763 56.5068 35.4624C56.8091 35.5484 57.0752 35.6791 57.3053 35.8544C57.5343 36.0303 57.7144 36.2545 57.8451 36.5286C57.9763 36.8028 58.0353 37.1311 58.022 37.5136H57.1135C57.1199 37.2459 57.0869 37.0211 57.0136 36.8394Z" fill="black"/>
<path fill-rule="evenodd" clip-rule="evenodd" d="M58.8643 35.4958H59.8296L61.2258 38.8047L63.8174 35.4958H64.8699L61.5605 39.5793L60.9682 42.3239H60.0783L60.6621 39.5793L58.8643 35.4958Z" fill="black"/>
<path fill-rule="evenodd" clip-rule="evenodd" d="M66.4475 35.4958L68.8861 41.1476H68.9052L70.0437 35.4958H70.923L69.479 42.3239H68.5035L66.0841 36.7104H66.065L64.9083 42.3239H64.028L65.472 35.4958H66.4475Z" fill="black"/>
<path fill-rule="evenodd" clip-rule="evenodd" d="M73.2369 35.4958L75.6755 41.1476H75.6946L76.8331 35.4958H77.7124L76.2684 42.3239H75.293L72.8735 36.7104H72.8544L71.6978 42.3239H70.8174L72.2615 35.4958H73.2369Z" fill="black"/>
<path fill-rule="evenodd" clip-rule="evenodd" d="M83.7567 35.4958L83.6037 36.2609H79.8066L79.3481 38.4317H82.8859L82.7334 39.1968H79.1855L78.6883 41.5588H82.5326L82.3605 42.3239H77.6076L79.0517 35.4958H83.7567Z" fill="black"/>
<path fill-rule="evenodd" clip-rule="evenodd" d="M84.1676 35.4958H85.143L86.4054 38.1926L88.5953 35.4958H89.6186L86.807 38.8812L88.5379 42.3239H87.6007L86.2231 39.4358L83.8903 42.3239H82.8569L85.8125 38.7569L84.1676 35.4958Z" fill="black"/>
<path fill-rule="evenodd" clip-rule="evenodd" d="M96.8437 41.8219C96.3432 42.2586 95.6722 42.477 94.8306 42.477C93.8929 42.477 93.1714 42.2172 92.6646 41.6976C92.1578 41.178 91.9038 40.4432 91.9038 39.4933C91.9038 38.9387 91.9899 38.4111 92.162 37.9106C92.3347 37.4102 92.5817 36.9687 92.9037 36.5861C93.2251 36.2036 93.6193 35.8992 94.0847 35.6729C94.5501 35.4465 95.0724 35.3334 95.6531 35.3334C96.0223 35.3334 96.3655 35.3828 96.6806 35.4816C96.9961 35.5804 97.2708 35.7271 97.503 35.9215C97.7362 36.116 97.919 36.3614 98.0529 36.6579C98.1868 36.9543 98.2537 37.3002 98.2537 37.6955H97.3452C97.3452 37.1599 97.1874 36.7599 96.8724 36.4953C96.5568 36.2307 96.1498 36.0984 95.6531 36.0984C95.1744 36.0984 94.7584 36.1988 94.4046 36.3997C94.0507 36.6005 93.7559 36.8603 93.52 37.179C93.2846 37.4978 93.1077 37.8596 92.9892 38.2645C92.8713 38.6693 92.8123 39.0789 92.8123 39.4933C92.8123 39.8248 92.8537 40.1277 92.9366 40.4018C93.02 40.6759 93.1438 40.9102 93.3101 41.1047C93.4753 41.2991 93.6847 41.4506 93.936 41.5589C94.1878 41.6673 94.4864 41.7215 94.8306 41.7215C95.3917 41.7215 95.847 41.5733 96.1976 41.2768C96.5483 40.9804 96.7969 40.5612 96.9436 40.0193H97.852C97.6799 40.7843 97.3436 41.3852 96.8437 41.8219Z" fill="black"/>
<path fill-rule="evenodd" clip-rule="evenodd" d="M99.65 41.3486C99.8795 41.5972 100.217 41.7215 100.663 41.7215C100.963 41.7215 101.226 41.645 101.453 41.492C101.678 41.339 101.87 41.1461 102.026 40.9134C102.183 40.6807 102.3 40.4273 102.38 40.1532C102.459 39.879 102.499 39.6208 102.499 39.3786C102.499 39.1873 102.474 39.0056 102.423 38.8335C102.372 38.6613 102.293 38.5131 102.184 38.3888C102.075 38.2645 101.94 38.1657 101.778 38.0923C101.615 38.019 101.422 37.9824 101.199 37.9824C100.886 37.9824 100.613 38.0589 100.376 38.2119C100.141 38.3649 99.9432 38.5577 99.7839 38.7904C99.6239 39.0231 99.5049 39.2798 99.4247 39.5603C99.3455 39.8408 99.3057 40.1086 99.3057 40.3636C99.3057 40.7716 99.4199 41.0999 99.65 41.3486ZM98.6793 39.2064C98.8031 38.8303 98.9853 38.4988 99.2239 38.2119C99.463 37.925 99.753 37.6955 100.095 37.5233C100.436 37.3512 100.823 37.2651 101.256 37.2651C101.925 37.2651 102.435 37.4389 102.786 37.7863C103.137 38.1338 103.313 38.6422 103.313 39.3116C103.313 39.7133 103.252 40.1022 103.131 40.4783C103.009 40.8545 102.831 41.1876 102.595 41.4777C102.36 41.7677 102.073 41.9989 101.735 42.171C101.396 42.3431 101.011 42.4292 100.578 42.4292C100.252 42.4292 99.9608 42.3782 99.7026 42.2762C99.4438 42.1742 99.2255 42.0323 99.047 41.8506C98.8685 41.6689 98.7314 41.4522 98.6363 41.2003C98.5407 40.9485 98.4923 40.6728 98.4923 40.3731C98.4923 39.9715 98.5545 39.5826 98.6793 39.2064Z" fill="black"/>
<path fill-rule="evenodd" clip-rule="evenodd" d="M105.464 37.3798L105.282 38.1161L105.301 38.1353C105.512 37.8675 105.765 37.656 106.062 37.4993C106.359 37.3431 106.679 37.265 107.023 37.265C107.335 37.265 107.603 37.332 107.826 37.4658C108.049 37.5997 108.196 37.8292 108.266 38.1544C108.458 37.8866 108.705 37.6714 109.008 37.5089C109.31 37.3463 109.627 37.265 109.959 37.265C110.131 37.265 110.3 37.2857 110.466 37.3272C110.632 37.3686 110.78 37.4324 110.911 37.5184C111.041 37.6045 111.144 37.7177 111.222 37.8579C111.298 37.9982 111.336 38.1703 111.336 38.3743C111.336 38.521 111.32 38.6867 111.288 38.8716C111.256 39.0565 111.225 39.2191 111.192 39.3593L110.571 42.3239H109.758L110.447 39.1872C110.466 39.1107 110.483 39.0198 110.5 38.9146C110.515 38.8095 110.523 38.7218 110.523 38.6517C110.523 38.4604 110.452 38.301 110.308 38.1735C110.165 38.046 109.984 37.9822 109.768 37.9822C109.653 37.9822 109.536 38.0014 109.418 38.0396C109.301 38.0779 109.188 38.1273 109.079 38.1878C108.971 38.2484 108.868 38.3207 108.773 38.403C108.678 38.4859 108.595 38.572 108.525 38.6612C108.391 38.8079 108.292 38.9768 108.228 39.1681C108.164 39.3593 108.11 39.5602 108.065 39.7705L107.52 42.3239H106.708L107.3 39.5028C107.345 39.3115 107.381 39.133 107.41 38.9672C107.439 38.8015 107.453 38.6899 107.453 38.6325C107.453 38.4285 107.395 38.2691 107.276 38.1544C107.158 38.0396 106.988 37.9822 106.765 37.9822C106.541 37.9822 106.32 38.046 106.1 38.1735C105.88 38.301 105.697 38.4476 105.55 38.6134C105.378 38.7792 105.26 38.9465 105.196 39.1155C105.133 39.2844 105.076 39.49 105.025 39.7323L104.47 42.3239H103.666L104.709 37.3798H105.464Z" fill="black"/>
<path fill-rule="evenodd" clip-rule="evenodd" d="M115.788 38.3362C115.587 38.1003 115.263 37.9824 114.817 37.9824C114.511 37.9824 114.237 38.0621 113.995 38.2214C113.752 38.3808 113.55 38.5817 113.387 38.8239C113.225 39.0662 113.1 39.3308 113.014 39.6177C112.928 39.9045 112.885 40.1787 112.885 40.4401C112.885 40.8098 112.992 41.1159 113.206 41.3581C113.419 41.6004 113.727 41.7215 114.128 41.7215C114.454 41.7215 114.737 41.6466 114.98 41.4968C115.222 41.347 115.425 41.1541 115.592 40.9182C115.757 40.6823 115.882 40.4209 115.965 40.1341C116.047 39.8472 116.089 39.5666 116.089 39.2925C116.089 38.8909 115.989 38.5721 115.788 38.3362ZM113.478 37.3799L113.306 38.0876H113.325C113.567 37.7688 113.818 37.552 114.076 37.4373C114.334 37.3225 114.629 37.2651 114.96 37.2651C115.279 37.2651 115.558 37.3145 115.797 37.4134C116.036 37.5122 116.239 37.6508 116.404 37.8294C116.57 38.0079 116.695 38.2214 116.777 38.4701C116.86 38.7187 116.902 38.9929 116.902 39.2925C116.902 39.6687 116.839 40.0432 116.715 40.4162C116.591 40.7891 116.412 41.1254 116.18 41.4251C115.947 41.7247 115.66 41.967 115.319 42.1519C114.978 42.3368 114.591 42.4292 114.157 42.4292C114.01 42.4292 113.856 42.4164 113.693 42.3909C113.531 42.3654 113.378 42.3192 113.234 42.2523C113.091 42.1853 112.963 42.0961 112.852 41.9845C112.74 41.8729 112.662 41.7343 112.618 41.5685H112.598L112.072 44.2079H111.279L112.713 37.3799H113.478Z" fill="black"/>
<path fill-rule="evenodd" clip-rule="evenodd" d="M118.283 41.5493C118.465 41.664 118.671 41.7214 118.9 41.7214C119.544 41.7214 120.006 41.5046 120.287 41.0711C120.42 40.8862 120.511 40.6854 120.559 40.4686C120.607 40.2519 120.66 40.0287 120.717 39.7992H120.698C120.583 39.8821 120.438 39.9411 120.263 39.9761C120.088 40.0112 119.901 40.0383 119.703 40.0574C119.506 40.0766 119.307 40.1005 119.106 40.1292C118.905 40.1578 118.724 40.2041 118.565 40.2678C118.405 40.3316 118.275 40.4224 118.173 40.5404C118.071 40.6583 118.017 40.8225 118.01 41.0329C118.01 41.2624 118.102 41.4345 118.283 41.5493ZM118.053 38.1592C118.184 37.9583 118.345 37.791 118.537 37.6571C118.728 37.5232 118.944 37.4244 119.187 37.3606C119.429 37.2969 119.681 37.265 119.942 37.265C120.185 37.265 120.414 37.2841 120.631 37.3224C120.847 37.3606 121.039 37.4276 121.205 37.5232C121.371 37.6188 121.503 37.7479 121.602 37.9105C121.7 38.0731 121.749 38.2787 121.749 38.5273C121.749 38.6676 121.732 38.819 121.697 38.9816C121.662 39.1442 121.629 39.2924 121.596 39.4263L121.281 40.7747C121.262 40.8767 121.235 40.9914 121.199 41.1189C121.165 41.2464 121.147 41.3676 121.147 41.4823C121.147 41.5971 121.17 41.6768 121.214 41.7214C121.259 41.766 121.316 41.7883 121.386 41.7883C121.425 41.7883 121.468 41.7804 121.516 41.7644C121.563 41.7485 121.606 41.7342 121.645 41.7214L121.52 42.3239C121.457 42.3494 121.375 42.3733 121.277 42.3956C121.177 42.4179 121.093 42.4291 121.023 42.4291C120.799 42.4291 120.631 42.3685 120.516 42.2474C120.401 42.1262 120.356 41.9573 120.382 41.7405L120.363 41.7214C120.191 41.9509 119.977 42.1262 119.723 42.2474C119.468 42.3685 119.13 42.4291 118.709 42.4291C118.498 42.4291 118.302 42.4052 118.12 42.3574C117.939 42.3095 117.781 42.2298 117.647 42.1183C117.513 42.0067 117.407 41.8633 117.327 41.6879C117.247 41.5126 117.207 41.2974 117.207 41.0424C117.207 40.679 117.286 40.3953 117.442 40.1913C117.598 39.9873 117.797 39.8327 118.039 39.7275C118.282 39.6223 118.549 39.5506 118.843 39.5123C119.135 39.4741 119.42 39.4422 119.693 39.4167C119.911 39.3976 120.097 39.3769 120.253 39.3545C120.409 39.3322 120.538 39.2956 120.641 39.2446C120.743 39.1936 120.817 39.1202 120.865 39.0246C120.913 38.929 120.937 38.7983 120.937 38.6325C120.937 38.4986 120.905 38.3903 120.841 38.3074C120.777 38.2245 120.698 38.1592 120.602 38.1113C120.507 38.0635 120.399 38.0301 120.282 38.0109C120.163 37.9918 120.05 37.9822 119.942 37.9822C119.789 37.9822 119.638 37.9982 119.488 38.0301C119.338 38.0619 119.202 38.1145 119.082 38.1878C118.96 38.2612 118.859 38.3536 118.776 38.4652C118.693 38.5767 118.639 38.7122 118.613 38.8716H117.8C117.839 38.5975 117.923 38.36 118.053 38.1592Z" fill="black"/>
<path fill-rule="evenodd" clip-rule="evenodd" d="M123.92 37.3798L123.767 38.1257H123.787C123.991 37.8388 124.249 37.6236 124.561 37.4802C124.873 37.3367 125.202 37.265 125.547 37.265C126.012 37.265 126.357 37.367 126.584 37.571C126.81 37.775 126.923 38.097 126.923 38.5369C126.923 38.6453 126.91 38.7855 126.885 38.9577C126.859 39.1298 126.824 39.3115 126.78 39.5028L126.177 42.3239H125.365L125.996 39.4358C126.002 39.3848 126.012 39.3259 126.024 39.2589C126.037 39.192 126.05 39.1218 126.063 39.0485C126.076 38.9752 126.086 38.9051 126.097 38.8381C126.106 38.7712 126.11 38.7154 126.11 38.6708C126.11 38.4349 126.027 38.2612 125.862 38.1496C125.696 38.038 125.492 37.9822 125.25 37.9822C125.027 37.9822 124.805 38.0364 124.585 38.1448C124.365 38.2537 124.179 38.3903 124.026 38.556C123.879 38.6835 123.764 38.8381 123.682 39.0198C123.599 39.2015 123.532 39.3912 123.48 39.5888L122.907 42.3239H122.103L123.136 37.3798H123.92Z" fill="black"/>
<path fill-rule="evenodd" clip-rule="evenodd" d="M128.597 43.6101C128.495 43.7535 128.384 43.8779 128.262 43.9831C128.141 44.0883 128.004 44.1711 127.851 44.2317C127.698 44.2923 127.52 44.3226 127.316 44.3226C127.22 44.3226 127.121 44.3114 127.019 44.2891C126.917 44.2668 126.828 44.2365 126.751 44.1982L126.895 43.5384C126.959 43.5766 127.035 43.6085 127.124 43.634C127.214 43.6595 127.29 43.6723 127.353 43.6723C127.539 43.6723 127.689 43.6229 127.803 43.524C127.918 43.4252 128.023 43.2961 128.119 43.1367L128.616 42.3239L127.745 37.3798H128.616L129.189 41.3102H129.209L131.284 37.3798H132.173L128.903 43.1559C128.801 43.3152 128.699 43.4667 128.597 43.6101Z" fill="black"/>
</svg>
