<svg width="24" height="24" viewBox="0 0 24 24" fill="none" xmlns="http://www.w3.org/2000/svg">
<path d="M8.90426 16.5009H15.0957C14.4758 19.7722 13.2344 21.9991 12 21.9991C10.803 21.9991 9.59943 19.9051 8.96231 16.7954L8.90426 16.5009H15.0957H8.90426ZM3.06581 16.501L7.37144 16.5008C7.73622 18.583 8.3545 20.3545 9.16363 21.5943C6.6008 20.8374 4.46714 19.0826 3.21216 16.7799L3.06581 16.501ZM16.6286 16.5008L20.9342 16.501C19.7029 18.9406 17.5017 20.8071 14.8374 21.5939C15.5919 20.4363 16.1806 18.8163 16.5523 16.9129L16.6286 16.5008L20.9342 16.501L16.6286 16.5008ZM16.9315 10.0008L21.8015 10.0002C21.9327 10.6465 22.0016 11.3155 22.0016 12.0005C22.0016 13.0458 21.8412 14.0537 21.5437 15.0009H16.8411C16.9464 14.0433 17.0016 13.0372 17.0016 12.0005C17.0016 11.5462 16.991 11.0978 16.9702 10.6567L16.9315 10.0008L21.8015 10.0002L16.9315 10.0008ZM2.19851 10.0002L7.06854 10.0008C7.02229 10.6508 6.99845 11.319 6.99845 12.0005C6.99845 12.8299 7.03376 13.6397 7.1018 14.4207L7.15892 15.0009H2.45629C2.15882 14.0537 1.99845 13.0458 1.99845 12.0005C1.99845 11.3155 2.06732 10.6465 2.19851 10.0002ZM8.57549 10.0003H15.4245C15.4748 10.6459 15.5016 11.3148 15.5016 12.0005C15.5016 12.8382 15.4616 13.6506 15.3877 14.4263L15.326 15.001H8.67396C8.56091 14.0552 8.49845 13.0476 8.49845 12.0005C8.49845 11.4862 8.51352 10.9814 8.54226 10.4888L8.57549 10.0003H15.4245H8.57549ZM14.9443 2.5771L14.8364 2.40687C17.8547 3.29785 20.2787 5.57445 21.3719 8.50019L16.781 8.50049C16.4655 6.08356 15.8246 4.00788 14.9443 2.5771L14.8364 2.40687L14.9443 2.5771ZM9.04178 2.44368L9.16356 2.40691C8.2828 3.75642 7.62819 5.73603 7.28053 8.06065L7.21896 8.50049L2.62808 8.50019C3.70654 5.61393 6.08014 3.35939 9.04178 2.44368L9.16356 2.40691L9.04178 2.44368ZM12 2.00198C13.3188 2.00198 14.6456 4.54373 15.214 8.18543L15.2608 8.50023H8.73918C9.27859 4.69105 10.6435 2.00198 12 2.00198Z" fill="#262626"/>
</svg>
