<svg width="24" height="24" viewBox="0 0 24 24" fill="none" xmlns="http://www.w3.org/2000/svg">
<path d="M12.8345 3.16228C12.8911 3.11941 12.9406 3.06928 12.9822 3.01371L15.5437 3.01371C15.5556 3.01371 15.5674 3.01343 15.5793 3.01287C15.7492 3.0048 15.9191 3.00485 16.0884 3.01287C16.1002 3.01343 16.1121 3.01371 16.1239 3.01371H16.1622C16.7372 3.01371 17.2807 3.13977 17.7684 3.36505C17.7813 3.37102 17.7944 3.37661 17.8076 3.38184C18.7252 3.74393 19.5443 4.36082 20.1474 5.20428C21.0565 6.4756 21.34 8.06951 20.9523 9.55242L17.6706 6.31483C17.5303 6.17636 17.3411 6.09873 17.1439 6.09873L12.3991 6.09873C12.3889 6.09873 12.3787 6.09894 12.3685 6.09935C12.2158 6.10558 12.0684 6.15834 11.9462 6.25093L10.0616 7.67873C10.0085 7.71898 9.95252 7.75291 9.89457 7.78064C9.48893 7.97478 8.9874 7.86539 8.70383 7.49495C8.66354 7.44232 8.62955 7.38691 8.60175 7.3296C8.40713 6.92844 8.51547 6.43454 8.88528 6.15436L12.8345 3.16228ZM7.89849 14.2357L7.88525 14.2487L6.91117 15.2166L6.89838 15.2294C6.54535 15.5663 5.98427 15.562 5.63655 15.2165C5.28445 14.8667 5.28445 14.2995 5.63655 13.9496L6.61062 12.9818C6.96272 12.6319 7.53359 12.6319 7.88569 12.9818C8.23346 13.3273 8.23773 13.885 7.89849 14.2357ZM7.60773 15.9344C7.2685 16.2852 7.27277 16.8428 7.62054 17.1883C7.97264 17.5382 8.54351 17.5382 8.8956 17.1883L9.86968 16.2205C10.2218 15.8706 10.2218 15.3034 9.86968 14.9536C9.82621 14.9104 9.77941 14.8725 9.7301 14.84C9.38494 14.6123 8.91674 14.6459 8.60784 14.9407L8.59506 14.9535L7.62098 15.9214L7.60773 15.9344ZM5.50058 11.4079C5.85268 11.7578 5.85268 12.325 5.50058 12.6748L4.52651 13.6427C4.17441 13.9925 3.60355 13.9925 3.25145 13.6427C2.89935 13.2928 2.89935 12.7256 3.25145 12.3758L4.22552 11.4079C4.57762 11.0581 5.14849 11.0581 5.50058 11.4079ZM11.8542 16.9253C12.2063 17.2752 12.2063 17.8424 11.8542 18.1922L10.8801 19.1601C10.8079 19.2318 10.7264 19.2889 10.6395 19.3312C10.303 19.4952 9.88489 19.4381 9.60502 19.1601C9.32516 18.882 9.26774 18.4666 9.43278 18.1322L9.43405 18.1296C9.47651 18.0443 9.5335 17.9642 9.60502 17.8932L10.5791 16.9253C10.9312 16.5755 11.5021 16.5755 11.8542 16.9253ZM5.34391 4.83107C6.73955 3.44435 8.63784 2.86145 10.456 3.08238L7.97944 4.95876C6.89416 5.78101 6.6851 7.32557 7.51275 8.40674C8.33863 9.48558 9.88451 9.69482 10.9675 8.87433L12.6511 7.59873L16.8362 7.59873L20.3427 11.0581C20.3538 11.0719 20.3658 11.0853 20.3786 11.0981L21.5286 12.2481C22.0904 12.8099 22.0904 13.7207 21.5286 14.2825C20.9988 14.8123 20.1585 14.8425 19.5934 14.3731L19.4971 14.2768C19.4781 14.2578 19.458 14.2407 19.437 14.2254L18.3441 13.1326C18.1489 12.9373 17.8323 12.9373 17.637 13.1326C17.4418 13.3278 17.4418 13.6444 17.637 13.8397L18.787 14.9896C18.8286 15.0312 18.8713 15.071 18.9151 15.109L18.9589 15.1528C19.3569 15.5508 19.3569 16.196 18.9589 16.594C18.5609 16.992 17.9156 16.992 17.5177 16.594L17.3488 16.4251C17.1535 16.2298 16.8369 16.2298 16.6417 16.4251C16.5415 16.5252 16.4928 16.6572 16.4953 16.7884C16.4924 16.9201 16.5412 17.0527 16.6416 17.1532L16.8646 17.3762C17.2327 17.7443 17.2327 18.3411 16.8646 18.7092C16.4965 19.0773 15.8997 19.0773 15.5316 18.7092L15.5305 18.7081L15.5188 18.6962L15.3088 18.4862C15.2363 18.4137 15.1471 18.3681 15.0536 18.3495C14.8952 18.3178 14.7243 18.3633 14.6015 18.4862C14.4063 18.6814 14.4063 18.998 14.6015 19.1933L14.8199 19.4117C15.1869 19.7876 15.1842 20.3898 14.8117 20.7623C14.4431 21.1308 13.848 21.1384 13.4702 20.7793L12.0386 19.4187L12.5635 18.8971C13.3074 18.1579 13.3074 16.9596 12.5635 16.2205C12.1709 15.8303 11.6495 15.6461 11.1352 15.6679C11.1571 15.1569 10.9717 14.6389 10.5791 14.2487C10.1865 13.8587 9.66532 13.6745 9.15123 13.6961C9.17309 13.1852 8.9877 12.6671 8.59506 12.277C8.09544 11.7805 7.38734 11.6175 6.75081 11.7879C6.69715 11.3912 6.51687 11.008 6.20996 10.7031C5.52352 10.021 4.44352 9.96838 3.69631 10.5451C3.23455 8.55553 3.78375 6.38124 5.34391 4.83107Z" fill="#262626"/>
</svg>
