<svg width="106" height="45" viewBox="0 0 106 45" fill="none" xmlns="http://www.w3.org/2000/svg">
<path d="M98.0216 38.519L98.5394 42.0662H98.5567L100.43 38.519H101.232L98.2805 43.732C98.1424 43.9477 98.1424 43.9477 98.0043 44.1419C97.8662 44.3361 97.8662 44.3361 97.7022 44.4785C97.5383 44.6209 97.5383 44.6209 97.3311 44.7029C97.124 44.7849 97.124 44.7849 96.8478 44.7849C96.7183 44.7849 96.7183 44.7849 96.5803 44.7547C96.4422 44.7245 96.4422 44.7245 96.3386 44.6727L96.468 44.0772C96.5544 44.129 96.5544 44.129 96.6752 44.1635C96.796 44.198 96.796 44.198 96.8823 44.198C97.1326 44.198 97.1326 44.198 97.288 44.0642C97.4433 43.9305 97.4433 43.9305 97.5728 43.7147L98.0216 42.9811L97.2362 38.519H98.0216ZM85.3862 38.4154C85.8177 38.4154 85.8177 38.4155 86.1414 38.5492C86.4651 38.683 86.4651 38.683 86.6895 38.9247C86.9138 39.1663 86.9139 39.1663 87.0261 39.5029C87.1383 39.8395 87.1383 39.8395 87.1383 40.2452C87.1383 40.7544 87.1383 40.7544 86.97 41.2593C86.8017 41.7642 86.8017 41.7642 86.4866 42.1698C86.1716 42.5755 86.1716 42.5755 85.7099 42.8257C85.2481 43.076 85.2481 43.076 84.6612 43.076C84.4627 43.076 84.4627 43.076 84.2426 43.0415C84.0226 43.007 84.0226 43.007 83.8284 42.9164C83.6342 42.8257 83.6342 42.8257 83.4831 42.6747C83.3321 42.5237 83.3321 42.5237 83.2717 42.2993H83.2544L82.7797 44.6813H82.0634L83.358 38.519H84.0485L83.8931 39.1577H83.9104C84.2383 38.7262 84.2383 38.7262 84.5879 38.5708C84.9374 38.4154 84.9374 38.4154 85.3862 38.4154ZM30.7279 36.672C31.1853 36.672 31.1853 36.672 31.5953 36.7886C32.0053 36.9051 32.0053 36.9051 32.316 37.1424C32.6267 37.3798 32.6267 37.3798 32.8036 37.7509C32.9805 38.122 32.9805 38.122 32.9633 38.6398H32.1434C32.152 38.2774 32.152 38.2774 32.0527 38.0314C31.9535 37.7854 31.9535 37.7854 31.7679 37.6344C31.5824 37.4833 31.5824 37.4833 31.3148 37.4229C31.0473 37.3625 31.0473 37.3625 30.7279 37.3625C30.5035 37.3625 30.5035 37.3625 30.2532 37.4186C30.0029 37.4747 30.0029 37.4747 29.7915 37.5955C29.58 37.7164 29.58 37.7164 29.4419 37.9062C29.3039 38.0961 29.3039 38.0961 29.3039 38.3723C29.3039 38.5967 29.3039 38.5967 29.3815 38.7564C29.4592 38.916 29.4592 38.916 29.593 39.0325C29.7268 39.1491 29.7268 39.1491 29.9123 39.2267C30.0979 39.3044 30.0979 39.3044 30.305 39.3648L31.1336 39.5892C31.4184 39.6669 31.4184 39.6669 31.6859 39.7834C31.9535 39.8999 31.9535 39.8999 32.1606 40.0855C32.3678 40.2711 32.3678 40.2711 32.4929 40.5559C32.618 40.8407 32.618 40.8407 32.618 41.255C32.618 41.7383 32.618 41.7383 32.398 42.0878C32.1779 42.4374 32.1779 42.4374 31.8326 42.6661C31.4874 42.8948 31.4874 42.8948 31.0602 43.007C30.633 43.1192 30.633 43.1192 30.2187 43.1192C29.6663 43.1192 29.6663 43.1192 29.2003 42.994C28.7342 42.8689 28.7342 42.8689 28.4106 42.61C28.0869 42.3511 28.0869 42.3511 27.9186 41.9411C27.7503 41.5311 27.7503 41.5311 27.7935 40.9615H28.6134C28.5961 41.3758 28.5961 41.3758 28.7083 41.6606C28.8205 41.9454 28.8205 41.9454 29.0406 42.118C29.2607 42.2906 29.2607 42.2906 29.5714 42.364C29.8821 42.4374 29.8821 42.4374 30.2532 42.4374C30.538 42.4374 30.538 42.4374 30.8185 42.3683C31.099 42.2993 31.099 42.2993 31.3148 42.1569C31.5306 42.0145 31.5306 42.0145 31.6644 41.7901C31.7981 41.5657 31.7981 41.5657 31.7981 41.255C31.7981 41.0219 31.7981 41.0219 31.7118 40.8536C31.6255 40.6853 31.6255 40.6853 31.4745 40.5688C31.3234 40.4523 31.3234 40.4523 31.1249 40.3746C30.9264 40.2969 30.9264 40.2969 30.702 40.2365L29.8648 40.0121C29.5887 39.9345 29.5887 39.9345 29.3384 39.8093C29.0881 39.6842 29.0881 39.6842 28.8982 39.4986C28.7083 39.313 28.7083 39.313 28.5961 39.0584C28.4839 38.8038 28.4839 38.8038 28.4839 38.4586C28.4839 38.0098 28.4839 38.0098 28.6824 37.6775C28.8809 37.3452 28.8809 37.3452 29.196 37.1208C29.511 36.8964 29.511 36.8964 29.9123 36.7842C30.3136 36.672 30.3136 36.672 30.7279 36.672ZM67.6501 36.672C68.1507 36.672 68.1507 36.672 68.5779 36.8058C69.0051 36.9396 69.0051 36.9396 69.3201 37.2028C69.6352 37.4661 69.6352 37.4661 69.8164 37.8674C69.9977 38.2687 69.9977 38.2687 69.9977 38.8038H69.1777C69.1777 38.0789 69.1777 38.0789 68.7505 37.7207C68.3233 37.3625 68.3233 37.3625 67.6501 37.3625C67.0028 37.3625 67.0028 37.3625 66.5238 37.6344C66.0448 37.9062 66.0448 37.9062 65.7255 38.3378C65.4061 38.7693 65.4061 38.7693 65.2464 39.3174C65.0868 39.8654 65.0868 39.8654 65.0868 40.4264C65.0868 40.8752 65.0868 40.8752 65.199 41.2463C65.3112 41.6174 65.3112 41.6174 65.5356 41.8807C65.76 42.1439 65.76 42.1439 66.1009 42.2906C66.4418 42.4374 66.4418 42.4374 66.9079 42.4374C67.6674 42.4374 67.6674 42.4374 68.1421 42.036C68.6167 41.6347 68.6167 41.6347 68.8153 40.9011H69.6352C69.4021 41.9368 69.4021 41.9368 68.7246 42.528C68.0471 43.1192 68.0471 43.1192 66.9079 43.1192C65.6391 43.1192 65.6391 43.1192 64.953 42.4158C64.2669 41.7124 64.2669 41.7124 64.2669 40.4264C64.2669 39.6755 64.2669 39.6755 64.4999 38.998C64.7329 38.3205 64.7329 38.3205 65.1688 37.8027C65.6046 37.2848 65.6046 37.2848 66.2347 36.9784C66.8647 36.672 66.8647 36.672 67.6501 36.672ZM72.8113 38.4154C73.7175 38.4154 73.7175 38.4155 74.1922 38.8858C74.6669 39.3562 74.6669 39.3562 74.6669 40.2624C74.6669 40.8062 74.6669 40.8062 74.5029 41.3154C74.3389 41.8246 74.3389 41.8246 74.0196 42.2173C73.7002 42.61 73.7002 42.61 73.2428 42.843C72.7854 43.076 72.7854 43.076 72.1985 43.076C71.7583 43.076 71.7583 43.076 71.4088 42.9379C71.0592 42.7999 71.0592 42.7999 70.8176 42.5539C70.5759 42.3079 70.5759 42.3079 70.4465 41.967C70.317 41.6261 70.317 41.6261 70.317 41.2204C70.317 40.6767 70.317 40.6767 70.4853 40.1675C70.6536 39.6583 70.6536 39.6583 70.9772 39.2699C71.3009 38.8815 71.3009 38.8815 71.7626 38.6485C72.2244 38.4154 72.2244 38.4154 72.8113 38.4154ZM89.9864 38.4154C90.3144 38.4154 90.3144 38.4154 90.6078 38.4672C90.9012 38.519 90.9012 38.519 91.1256 38.6485C91.35 38.7779 91.35 38.7779 91.4838 38.998C91.6176 39.2181 91.6176 39.2181 91.6176 39.5547C91.6176 39.7446 91.6176 39.7446 91.5701 39.9647C91.5227 40.1847 91.5227 40.1847 91.4795 40.366L91.1947 41.5829C91.1688 41.721 91.1688 41.721 91.1213 41.8936C91.0739 42.0662 91.0739 42.0662 91.0739 42.2216C91.0739 42.3769 91.0739 42.3769 91.1343 42.4374C91.1947 42.4978 91.1947 42.4978 91.2896 42.4978C91.3414 42.4978 91.3414 42.4978 91.4061 42.4762C91.4709 42.4546 91.4709 42.4546 91.5227 42.4374L91.4105 42.9811C91.3242 43.0156 91.3241 43.0156 91.1904 43.0458C91.0566 43.076 91.0566 43.076 90.9617 43.076C90.6596 43.076 90.6596 43.076 90.5042 42.912C90.3489 42.7481 90.3489 42.7481 90.3834 42.4546L90.3661 42.4374C90.1331 42.7481 90.1331 42.7481 89.7879 42.912C89.4426 43.076 89.4426 43.076 88.873 43.076C88.5882 43.076 88.5882 43.076 88.3422 43.0113C88.0963 42.9466 88.0963 42.9466 87.915 42.7955C87.7338 42.6445 87.7338 42.6445 87.6259 42.4072C87.518 42.1698 87.518 42.1698 87.518 41.8246C87.518 41.3326 87.518 41.3326 87.7295 41.0564C87.9409 40.7803 87.9409 40.7803 88.2689 40.6379C88.5968 40.4954 88.5968 40.4954 88.9939 40.4437C89.3909 40.3919 89.3909 40.3919 89.762 40.3574C90.0554 40.3315 90.0554 40.3315 90.2669 40.3013C90.4783 40.2711 90.4783 40.271 90.6164 40.202C90.7545 40.133 90.7545 40.133 90.8193 40.0035C90.884 39.874 90.884 39.874 90.884 39.6496C90.884 39.4684 90.884 39.4684 90.7977 39.3562C90.7114 39.244 90.7114 39.244 90.5819 39.1793C90.4524 39.1145 90.4524 39.1145 90.2928 39.0886C90.1331 39.0628 90.1331 39.0628 89.9864 39.0628C89.7793 39.0628 89.7793 39.0628 89.5764 39.1059C89.3736 39.1491 89.3736 39.1491 89.2096 39.2483C89.0456 39.3476 89.0456 39.3476 88.9334 39.4986C88.8212 39.6496 88.8212 39.6496 88.7867 39.8654H88.0531C88.1049 39.4943 88.1049 39.4943 88.2818 39.2224C88.4588 38.9506 88.4588 38.9506 88.7177 38.7693C88.9766 38.5881 88.9766 38.5881 89.3046 38.5018C89.6325 38.4154 89.6325 38.4154 89.9864 38.4154ZM47.0054 36.8188L49.2063 41.9195H49.2235L50.2506 36.8188H51.0446L49.7414 42.9811H48.861L46.6775 37.9149H46.6602L45.6159 42.9811H44.8219L46.1251 36.8188H47.0054ZM80.7688 38.4154C81.0018 38.4154 81.0018 38.4154 81.2262 38.4715C81.4506 38.5276 81.4506 38.5276 81.6275 38.6442C81.8045 38.7607 81.8045 38.7607 81.908 38.9506C82.0116 39.1404 82.0116 39.1404 82.0116 39.4166C82.0116 39.6151 82.0116 39.6151 81.9685 39.8654C81.9253 40.1157 81.9253 40.1157 81.8821 40.3056L81.3212 42.9811H80.5875L81.209 40.1502C81.2348 40.0467 81.2348 40.0467 81.2564 39.9043C81.278 39.7618 81.278 39.7618 81.278 39.6669C81.278 39.408 81.278 39.408 81.0838 39.2354C80.8896 39.0628 80.8896 39.0628 80.5962 39.0628C80.4408 39.0628 80.4408 39.0628 80.2812 39.1145C80.1215 39.1663 80.1215 39.1663 79.9748 39.2483C79.828 39.3303 79.828 39.3303 79.6986 39.4425C79.5691 39.5547 79.5691 39.5547 79.4742 39.6755C79.2929 39.874 79.2929 39.874 79.2066 40.133C79.1203 40.3919 79.1203 40.3919 79.0599 40.6767L78.568 42.9811H77.8343L78.3694 40.435C78.4299 40.1761 78.4299 40.1761 78.4687 39.9517C78.5075 39.7273 78.5075 39.7273 78.5075 39.6496C78.5075 39.3735 78.5075 39.3735 78.3479 39.2181C78.1882 39.0628 78.1882 39.0628 77.8861 39.0628C77.5841 39.0628 77.5841 39.0628 77.2863 39.2354C76.9885 39.408 76.9885 39.408 76.79 39.6324C76.557 39.8568 76.557 39.8568 76.4707 40.0855C76.3844 40.3142 76.3844 40.3142 76.3153 40.6422L75.8148 42.9811H75.0898L76.0305 38.519H76.7123L76.5484 39.1836L76.5656 39.2008C76.8504 38.8384 76.8504 38.8384 77.2518 38.6269C77.6531 38.4154 77.6531 38.4154 78.1192 38.4154C78.5421 38.4154 78.5421 38.4154 78.8441 38.5967C79.1462 38.7779 79.1462 38.7779 79.2411 39.2181C79.5001 38.8556 79.5001 38.8556 79.91 38.6355C80.32 38.4155 80.32 38.4154 80.7688 38.4154ZM19.8705 36.8188L19.7151 37.5092H17.6438L16.4872 42.9811H15.6673L16.8238 37.5092H14.7525L14.8992 36.8188H19.8705ZM56.6028 36.8188L56.4647 37.5092H53.0383L52.624 39.4684H55.8174L55.6793 40.1589H52.4773L52.0285 42.2906H55.4981L55.3427 42.9811H51.0532L52.3565 36.8188H56.6028ZM10.2127 36.8188L11.3261 42.9811H10.4803L10.1955 41.1255H7.59761L6.51877 42.9811H5.61255L9.31512 36.8188H10.2127ZM40.7741 36.8188L42.9749 41.9195H42.9922L44.0192 36.8188H44.8132L43.51 42.9811H42.6297L40.4461 37.9149H40.4288L39.3845 42.9811H38.5905L39.8937 36.8188H40.7741ZM34.698 36.8188L35.9581 39.805L38.2971 36.8188H39.2464L36.2602 40.5041L35.7251 42.9811H34.9224L35.4489 40.5041L33.8263 36.8188H34.698ZM57.9578 36.8188L59.0971 39.2526L61.0735 36.8188H61.997L59.4596 39.874L61.0217 42.9811H60.1759L58.9331 40.3746L56.8272 42.9811H55.8951L58.562 39.7618L57.0775 36.8188H57.9578ZM22.71 36.8188C23.8579 36.8188 23.8579 36.8188 24.4491 37.4488C25.0403 38.0788 25.0403 38.0788 25.0403 39.1749C25.0403 40.0466 25.0403 40.0467 24.79 40.7501C24.5397 41.4535 24.5397 41.4535 24.0909 41.9497C23.6421 42.446 23.6421 42.446 23.0121 42.7135C22.382 42.9811 22.382 42.9811 21.6139 42.9811H19.2491L20.5523 36.8188H22.71ZM95.1476 38.4154C95.7776 38.4154 95.7776 38.4155 96.084 38.6916C96.3904 38.9678 96.3904 38.9678 96.3904 39.5633C96.3904 39.7101 96.3904 39.7101 96.3559 39.9431C96.3213 40.1761 96.3213 40.1761 96.2609 40.435L95.7172 42.9811H94.9836L95.5532 40.3746C95.5618 40.3056 95.5618 40.3056 95.5791 40.215C95.5963 40.1243 95.5964 40.1243 95.6136 40.0251C95.6309 39.9258 95.6309 39.9258 95.6438 39.8352C95.6568 39.7446 95.6568 39.7446 95.6568 39.6842C95.6568 39.3648 95.6568 39.3648 95.4324 39.2138C95.208 39.0628 95.208 39.0628 94.88 39.0628C94.5779 39.0628 94.5779 39.0628 94.2802 39.2095C93.9824 39.3562 93.9824 39.3562 93.7753 39.5806C93.5768 39.7532 93.5768 39.7532 93.4646 39.9992C93.3524 40.2452 93.3524 40.2452 93.2833 40.5127L92.7655 42.9811H92.0405L92.9726 38.519H93.6803L93.5422 39.1922H93.5595C93.8357 38.8038 93.8357 38.8038 94.2586 38.6096C94.6815 38.4154 94.6815 38.4154 95.1476 38.4154ZM90.6855 40.7026H90.6682C90.5129 40.8148 90.5129 40.8148 90.2755 40.8623C90.0382 40.9097 90.0382 40.9097 89.7706 40.9356C89.5031 40.9615 89.5031 40.9615 89.2312 41.0004C88.9593 41.0392 88.9593 41.0392 88.7436 41.1255C88.5278 41.2118 88.5278 41.2118 88.3897 41.3715C88.2516 41.5311 88.2516 41.5311 88.243 41.8159C88.243 42.1267 88.243 42.1267 88.489 42.282C88.7349 42.4374 88.7349 42.4374 89.0456 42.4374C89.9173 42.4374 89.9173 42.4374 90.2971 41.8505C90.4783 41.6002 90.4783 41.6002 90.5431 41.3067C90.6078 41.0133 90.6078 41.0133 90.6855 40.7026ZM72.7595 39.0628C72.3366 39.0628 72.3366 39.0628 72.0172 39.2699C71.6979 39.477 71.6979 39.477 71.4821 39.792C71.2664 40.1071 71.2664 40.1071 71.1585 40.4868C71.0506 40.8666 71.0506 40.8666 71.0506 41.2118C71.0506 41.7642 71.0506 41.7642 71.3613 42.1008C71.672 42.4374 71.672 42.4374 72.2762 42.4374C72.6818 42.4374 72.6818 42.4374 72.9882 42.2302C73.2946 42.0231 73.2946 42.0231 73.506 41.7081C73.7175 41.393 73.7175 41.393 73.8254 41.0219C73.9333 40.6508 73.9333 40.6508 73.9333 40.3228C73.9333 40.0639 73.9333 40.0639 73.8642 39.8309C73.7952 39.5979 73.7952 39.5979 73.6485 39.4296C73.5017 39.2613 73.5017 39.2613 73.2816 39.162C73.0616 39.0628 73.0616 39.0628 72.7595 39.0628ZM85.2568 39.0628C84.8425 39.0628 84.8425 39.0628 84.5145 39.2785C84.1866 39.4943 84.1866 39.4943 83.9665 39.8223C83.7464 40.1502 83.7464 40.1502 83.6299 40.5386C83.5134 40.927 83.5134 40.927 83.5134 41.2808C83.5134 41.7814 83.5134 41.7814 83.8025 42.1094C84.0916 42.4374 84.0916 42.4374 84.6353 42.4374C85.0755 42.4374 85.0755 42.4374 85.4035 42.2345C85.7314 42.0317 85.7314 42.0317 85.9558 41.7124C86.1802 41.393 86.1802 41.393 86.2924 41.0047C86.4046 40.6163 86.4046 40.6163 86.4046 40.2452C86.4046 39.7014 86.4046 39.7014 86.1328 39.3821C85.8609 39.0628 85.8609 39.0628 85.2568 39.0628ZM22.5201 37.5092H21.2082L20.1985 42.2906H21.6225C22.2785 42.2906 22.2785 42.2906 22.7661 42.0274C23.2537 41.7642 23.2537 41.7642 23.5774 41.3369C23.901 40.9097 23.901 40.9097 24.0607 40.366C24.2204 39.8223 24.2204 39.8223 24.2204 39.2613C24.2204 38.9247 24.2204 38.9247 24.147 38.6053C24.0736 38.286 24.0736 38.286 23.8838 38.0443C23.6939 37.8027 23.6939 37.8027 23.3616 37.6559C23.0293 37.5092 23.0293 37.5092 22.5201 37.5092ZM9.63446 37.5437H9.6172L7.96873 40.435H10.0919L9.63446 37.5437ZM72.9275 10.8955L72.1968 13.8116L67.4178 13.8101C65.708 13.8101 64.4277 14.7666 63.685 17.6429C62.9423 20.5197 63.1341 22.607 65.7674 22.607L66.4704 22.6066C66.5262 22.6065 66.5841 22.6065 66.6439 22.6064L67.6412 22.6055C67.7118 22.6055 67.7826 22.6054 67.8535 22.6053L68.6825 22.6045C68.7482 22.6045 68.8126 22.6044 68.8754 22.6044L69.6603 22.6036C69.6995 22.6035 69.7356 22.6035 69.7682 22.6035L69.9739 22.6032L69.1679 25.8627L64.1985 25.8655C61.745 25.8655 60.2145 24.8878 59.479 23.3766C58.7224 21.8223 58.8053 19.7042 59.3361 17.5913C60.1426 14.3342 61.2905 10.8955 66.7005 10.8955H72.9275ZM54.1259 10.8953C57.3135 10.8953 58.8042 13.782 58.0654 16.7326C57.8175 17.7245 57.514 18.9344 57.514 18.9344H48.6315C47.8456 22.1206 48.8789 22.603 51.2222 22.603H56.5847L55.7667 25.8625L49.5478 25.8653C47.0948 25.8653 45.5633 24.8876 44.8282 23.3768C44.0721 21.8221 44.1546 19.7045 44.6854 17.5911C45.4919 14.3345 46.6397 10.8953 52.0498 10.8953H54.1259ZM49.2966 7.00156L48.4848 10.2109H42.5997C42.5997 10.2109 43.1137 10.6654 42.9895 11.1616C42.8653 11.6578 39.2706 25.8649 39.2706 25.8649H34.2744L38.234 10.2109H32.4308L33.2353 7.00156H49.2966ZM90.0328 7.00146C92.7112 7.00146 95.4471 9.39438 94.5687 13.4088C94.1549 15.2984 93.1849 19.4012 92.189 21.727C91.1932 24.0636 89.5869 25.8648 85.9164 25.8648H75.4431C75.4431 25.8648 75.4835 25.704 75.5566 25.4134L75.6271 25.1333C75.9656 23.7876 76.7243 20.7723 77.5066 17.6704L77.6873 16.9538C78.5913 13.3702 79.4858 9.83365 79.7613 8.77617C79.9272 7.87273 79.0919 7.00146 79.0919 7.00146H90.0328ZM87.9226 10.2108H83.7367C83.7367 10.2108 84.2536 10.7041 84.1289 11.1994C84.0089 11.6785 81.4425 21.8094 81.2526 22.5592L81.2415 22.603L85.0404 22.6039C86.7843 22.6039 87.539 21.9805 88.0103 20.1618C88.4337 18.5299 89.6454 13.6807 89.9709 12.3644C90.3008 11.031 89.2263 10.2108 87.9226 10.2108ZM52.6879 13.7016H52.2205C50.5106 13.7016 49.7933 14.2569 49.2711 16.4412H54.5781C54.5781 16.4412 55.3568 13.7016 52.6879 13.7016ZM97.4845 7.00657L97.8594 7.98711L97.987 8.33618H97.998L98.1193 7.98711L98.501 7.00657H98.9809V8.80445H98.5997V7.94359L98.6386 7.46964H98.6328L98.5839 7.61675L98.1308 8.80445H97.8541L97.3958 7.61675L97.3464 7.46964H97.3406L97.3795 7.94359V8.80445H96.9978V7.00657H97.4845ZM96.7954 7.00657V7.30078H96.2431V8.80445H95.8561V7.30078H95.2985V7.00657H96.7954Z" fill="white"/>
<path d="M106 0L98.965 34.8645L0 33.314L0.0196588 33.2274L97.5457 33.2104L105.913 0H106ZM22.3522 7.00152C25.0335 7.00152 27.7594 9.41146 26.892 13.4183C26.482 15.3093 26.0606 16.875 25.8578 17.5717C25.1975 19.836 23.247 21.2966 19.5818 22.4507C18.3881 22.8267 16.2396 23.5009 13.9804 24.2093L13.3621 24.4031L12.4327 24.6945C8.93066 25.7922 5.62209 26.8283 5.62209 26.8283L6.82128 22.1177L18.6938 18.3644C20.2761 17.8593 21.1823 17.2307 21.6345 15.3874C21.7072 15.091 21.7679 14.8469 21.8204 14.637L21.9158 14.2576C22.0752 13.6263 22.1603 13.2939 22.3647 12.372C22.6615 11.031 21.656 10.2194 20.4142 10.2194H19.3593L20.1696 7.00152H22.3522ZM18.868 7.00152L18.0505 10.2194H13.984L14.0206 10.2568C14.1343 10.3772 14.469 10.7659 14.391 11.0958L12.3815 19.0498L7.18535 20.6907L9.84218 10.2194H5.8826L6.68238 7.00152H18.868Z" fill="#00B1E2"/>
</svg>
