<svg width="140" height="45" viewBox="0 0 140 45" fill="none" xmlns="http://www.w3.org/2000/svg">
<path fill-rule="evenodd" clip-rule="evenodd" d="M19.8793 6.31201H17.938L17.2176 9.21334H18.1558C19.2604 9.21334 20.1545 9.94492 19.8905 11.1541C19.6259 12.3633 19.5855 12.4473 19.2407 13.8722C18.8385 15.5345 18.0331 16.1009 16.6258 16.5562L6.06653 19.9399L5.00024 24.187C5.00024 24.187 14.4714 21.1799 17.4152 20.2401C20.6752 19.1998 22.4098 17.8833 22.9969 15.8416C23.1775 15.2131 23.5526 13.802 23.9165 12.0971C24.6885 8.48495 22.2642 6.31201 19.8793 6.31201Z" fill="#00B8E6"/>
<path fill-rule="evenodd" clip-rule="evenodd" d="M5.94308 6.31201L5.23169 9.21334H8.75356L6.39042 18.6537L11.0115 17.1741L12.7993 10.0034C12.8821 9.64634 12.4369 9.21334 12.4369 9.21334H16.0539L16.7807 6.31201H5.94308Z" fill="#00B8E6"/>
<mask id="mask0_507_3748" style="mask-type:alpha" maskUnits="userSpaceOnUse" x="0" y="0" width="140" height="32">
<path d="M0 0H140V31.4321H0V0Z" fill="#00B8E6"/>
</mask>
<g mask="url(#mask0_507_3748)">
<path fill-rule="evenodd" clip-rule="evenodd" d="M133.744 31.4322L-0.000244141 30.0344L0.0172882 29.9563L132.481 29.9409L139.923 0H140L133.744 31.4322Z" fill="#00B8E6"/>
</g>
<path fill-rule="evenodd" clip-rule="evenodd" d="M129.309 7.72367C129.309 6.90922 129.972 6.31152 130.753 6.31152C131.524 6.31152 132.182 6.90922 132.182 7.72367C132.182 8.5445 131.524 9.14166 130.753 9.14166C129.972 9.14166 129.309 8.5445 129.309 7.72367ZM130.753 8.90684C131.389 8.90684 131.897 8.40424 131.897 7.72367C131.897 7.05213 131.389 6.54901 130.753 6.54901C130.104 6.54901 129.593 7.05213 129.593 7.72367C129.593 8.40424 130.104 8.90684 130.753 8.90684ZM130.453 8.5445H130.203V6.90922H130.827C131.212 6.90922 131.404 7.05213 131.404 7.37568C131.404 7.66842 131.219 7.7938 130.979 7.82408L131.44 8.5445H131.166L130.736 7.8363H130.453V8.5445ZM130.746 7.62485C130.957 7.62485 131.142 7.61104 131.142 7.36081C131.142 7.16104 130.962 7.11588 130.786 7.11588H130.453V7.62485H130.746Z" fill="white"/>
<path fill-rule="evenodd" clip-rule="evenodd" d="M48.5402 14.8222H43.8203C44.2846 12.8532 44.9227 12.3528 46.4437 12.3528H46.8587C49.233 12.3528 48.5402 14.8222 48.5402 14.8222ZM48.1375 9.82227H46.2912C41.48 9.82227 40.4594 12.9228 39.7416 15.8592C39.2698 17.7644 39.1965 19.6733 39.8691 21.0748C40.5226 22.437 41.8843 23.3189 44.0662 23.3189L49.5974 23.3163L50.3242 20.3778H45.5554C43.4712 20.3778 42.5521 19.9427 43.2513 17.0695H51.1514C51.1514 17.0695 51.4208 15.9793 51.6418 15.0851C52.2985 12.425 50.9729 9.82227 48.1375 9.82227Z" fill="white"/>
<path fill-rule="evenodd" clip-rule="evenodd" d="M77.4073 13.1055C77.071 14.4598 74.8577 23.3183 74.8577 23.3183H70.9815C70.9815 23.3183 73.0907 14.8779 73.3893 13.6655C73.605 12.791 73.1985 12.452 72.476 12.452H69.2612C69.2612 12.452 69.7282 12.8771 69.6187 13.3122C69.5093 13.7468 67.1212 23.3183 67.1212 23.3183H63.2439L67.0808 7.92817C67.2721 7.12328 66.4863 6.31201 66.4863 6.31201H71.3624L70.4879 9.83122H74.9491C77.3314 9.83122 77.868 11.2503 77.4073 13.1055Z" fill="white"/>
<path fill-rule="evenodd" clip-rule="evenodd" d="M37.8867 9.20537C37.8867 9.20537 38.3436 9.61552 38.2337 10.0623C38.1232 10.5097 34.9259 23.3183 34.9259 23.3183H30.4823L34.0041 9.20537H28.8433L29.5589 6.31201H43.8429L43.1209 9.20537H37.8867Z" fill="white"/>
<path fill-rule="evenodd" clip-rule="evenodd" d="M92.2364 11.1467C91.9469 12.3336 90.8694 16.7055 90.4927 18.1761C90.073 19.8162 89.402 20.3783 87.8517 20.3783L84.4728 20.3777C84.4728 20.3777 86.9294 10.5448 87.041 10.0964C87.1515 9.6501 86.6919 9.20542 86.6919 9.20542H90.4141C91.5744 9.20542 92.5297 9.94443 92.2364 11.1467ZM92.2917 6.31152H82.5607C82.5607 6.31152 83.304 7.09729 83.1563 7.91174C82.609 10.0411 79.3162 23.3179 79.3162 23.3179H88.6306C91.8948 23.3179 93.3234 21.6943 94.2091 19.5877C95.0947 17.4908 95.9575 13.792 96.3251 12.0876C97.1067 8.46906 94.6734 6.31152 92.2917 6.31152Z" fill="white"/>
<path fill-rule="evenodd" clip-rule="evenodd" d="M102.77 20.379H100.548C99.4417 20.379 98.5199 19.9652 98.8992 18.4372C99.2818 16.897 100.331 16.599 101.332 16.599H103.71L102.77 20.379ZM105.971 9.82617H98.93L98.2798 12.4518H103.521C104.13 12.4518 104.656 12.8152 104.469 13.5552L104.311 14.1869H101.427C99.3838 14.1869 96.7236 14.9626 95.8677 18.2884C95.8258 18.4515 95.7907 18.6099 95.7588 18.7666C95.7014 19.0359 95.668 19.3149 95.668 19.6028C95.668 21.7407 97.587 23.3181 99.397 23.3181H105.861C105.861 23.3181 107.949 14.9079 108.405 13.0792C108.863 11.2436 108.29 9.82617 105.971 9.82617Z" fill="white"/>
<path fill-rule="evenodd" clip-rule="evenodd" d="M123.983 20.379H121.76C120.654 20.379 119.732 19.9652 120.112 18.4372C120.494 16.897 121.543 16.599 122.545 16.599H124.922L123.983 20.379ZM127.183 9.82617H120.142L119.492 12.4518H124.734C125.342 12.4518 125.869 12.8152 125.682 13.5552L125.524 14.1869H122.639C120.596 14.1869 117.936 14.9626 117.08 18.2884C117.038 18.4515 117.003 18.6099 116.971 18.7666C116.914 19.0359 116.88 19.3149 116.88 19.6028C116.88 21.7407 118.799 23.3181 120.609 23.3181H123.252H127.074C127.074 23.3181 129.161 14.9079 129.618 13.0792C130.076 11.2436 129.503 9.82617 127.183 9.82617Z" fill="white"/>
<path fill-rule="evenodd" clip-rule="evenodd" d="M56.6394 15.9059C57.3003 13.3127 58.4383 12.451 59.9594 12.451L64.2096 12.4521L64.8594 9.82275H59.3213C54.51 9.82275 53.4889 12.9233 52.7716 15.8592C52.2999 17.7644 52.226 19.6738 52.8986 21.0748C53.5526 22.4375 54.9143 23.3189 57.0963 23.3189L61.5155 23.3162L62.2327 20.3777C62.2327 20.3777 58.9531 20.3814 58.4909 20.3814C56.149 20.3814 55.979 18.4991 56.6394 15.9059Z" fill="white"/>
<path fill-rule="evenodd" clip-rule="evenodd" d="M113.675 20.3777H115.769L115.042 23.3184H110.332C109.506 23.3184 108.672 22.6394 109.003 21.2735C109.266 20.1753 111.2 12.4526 111.2 12.4526H109.489L110.139 9.82701H111.861L112.111 8.81386C112.298 8.05891 111.517 7.21045 111.517 7.21045H116.33L115.677 9.83126H118.156L117.469 12.4526H114.468C114.468 12.4526 114.913 12.8984 114.813 13.3074C114.769 13.4918 113.557 18.3211 113.237 19.5983C113.143 19.9708 113.183 20.3777 113.675 20.3777Z" fill="white"/>
<path fill-rule="evenodd" clip-rule="evenodd" d="M33.4457 39.5025L32.9388 36.2989H32.9197L31.0931 39.5025H33.4457ZM33.5795 35.4956L34.8132 42.3236H33.876L33.5604 40.2676H30.6819L29.4865 42.3236H28.4824L32.585 35.4956H33.5795Z" fill="white"/>
<path fill-rule="evenodd" clip-rule="evenodd" d="M41.3926 36.2606L40.1111 42.3236H39.2027L40.4841 36.2606H38.189L38.351 35.4956H43.8599L43.6872 36.2606H41.3926Z" fill="white"/>
<path fill-rule="evenodd" clip-rule="evenodd" d="M45.6865 41.5591C46.171 41.5591 46.5934 41.4619 46.9536 41.2674C47.3138 41.073 47.6134 40.8179 47.8525 40.5024C48.0911 40.1868 48.2696 39.8282 48.3881 39.4265C48.506 39.0249 48.565 38.6168 48.565 38.2024C48.565 37.9538 48.5373 37.7115 48.4837 37.4756C48.4295 37.2398 48.3317 37.0326 48.192 36.854C48.0518 36.6755 47.8589 36.5321 47.6134 36.4237C47.368 36.3153 47.0572 36.2611 46.681 36.2611H45.2275L44.1086 41.5591H45.6865ZM46.8914 35.4961C47.7388 35.4961 48.3811 35.7288 48.8184 36.1942C49.2551 36.6596 49.4735 37.2971 49.4735 38.1068C49.4735 38.7507 49.381 39.3325 49.1956 39.8521C49.0112 40.3717 48.7525 40.8148 48.421 41.1813C48.0895 41.5479 47.691 41.83 47.2256 42.0277C46.7602 42.2253 46.2443 42.3241 45.6764 42.3241H43.0566L44.5007 35.4961H46.8914Z" fill="white"/>
<path fill-rule="evenodd" clip-rule="evenodd" d="M57.0136 36.8392C56.9397 36.6575 56.8351 36.5109 56.6975 36.3993C56.5604 36.2877 56.393 36.2096 56.1959 36.165C55.9983 36.1204 55.7815 36.0981 55.5451 36.0981C55.3799 36.0981 55.2046 36.1193 55.0197 36.1602C54.8343 36.2017 54.6637 36.267 54.5075 36.3563C54.3513 36.4455 54.2222 36.5608 54.1208 36.7005C54.0182 36.8408 53.9677 37.0129 53.9677 37.2169C53.9677 37.3827 53.9959 37.5251 54.0538 37.6425C54.1112 37.7604 54.1893 37.8624 54.2881 37.9485C54.3869 38.0346 54.5043 38.1063 54.6419 38.1637C54.779 38.2211 54.9235 38.2721 55.0765 38.3167L55.9951 38.5653C56.2055 38.6227 56.409 38.6944 56.6066 38.7805C56.8043 38.8666 56.9801 38.9781 57.1331 39.1152C57.2861 39.2523 57.4083 39.426 57.5013 39.6364C57.5937 39.8468 57.64 40.105 57.64 40.411C57.64 40.7686 57.5581 41.0756 57.3961 41.3338C57.2335 41.592 57.0247 41.8061 56.7697 41.9746C56.5147 42.1435 56.2289 42.2694 55.9138 42.3523C55.5982 42.4352 55.2874 42.4766 54.9814 42.4766C54.5729 42.4766 54.1967 42.4304 53.853 42.338C53.5082 42.2455 53.217 42.1037 52.9774 41.9124C52.7389 41.7211 52.5567 41.4741 52.4329 41.1713C52.3086 40.8684 52.2623 40.5066 52.2937 40.0859H53.2027C53.1899 40.3919 53.2245 40.6501 53.3074 40.8605C53.3908 41.0709 53.5135 41.2398 53.6761 41.3673C53.8381 41.4953 54.0347 41.5862 54.2637 41.6399C54.4937 41.694 54.745 41.7211 55.0197 41.7211C55.2301 41.7211 55.4383 41.6962 55.6461 41.6446C55.8527 41.5936 56.036 41.5155 56.1959 41.4103C56.3553 41.3051 56.4844 41.1697 56.5827 41.0039C56.6821 40.8382 56.7315 40.6405 56.7315 40.411C56.7315 40.2389 56.6991 40.0906 56.6358 39.9663C56.5721 39.842 56.4844 39.7368 56.3729 39.6507C56.2613 39.5647 56.1322 39.4929 55.985 39.4356C55.8384 39.3782 55.6822 39.3272 55.517 39.2826L54.5893 39.0339C54.3853 38.9765 54.1909 38.9016 54.006 38.8092C53.8206 38.7173 53.6585 38.602 53.5183 38.4649C53.3775 38.3278 53.2659 38.1653 53.1836 37.9772C53.1007 37.7897 53.0593 37.5676 53.0593 37.3126C53.0593 36.9816 53.132 36.6926 53.2792 36.4471C53.4258 36.2017 53.6155 35.9966 53.8482 35.8303C54.0804 35.6651 54.3455 35.5402 54.6419 35.4573C54.9384 35.375 55.2396 35.333 55.5451 35.333C55.8835 35.333 56.2039 35.376 56.5067 35.4621C56.809 35.5482 57.0752 35.6789 57.3053 35.8542C57.5342 36.0301 57.7143 36.2543 57.845 36.5284C57.9763 36.8025 58.0352 37.1309 58.022 37.5134H57.1135C57.1198 37.2456 57.0869 37.0209 57.0136 36.8392Z" fill="white"/>
<path fill-rule="evenodd" clip-rule="evenodd" d="M58.8643 35.4956H59.8296L61.2258 38.8044L63.8174 35.4956H64.8699L61.5605 39.579L60.9681 42.3236H60.0782L60.6621 39.579L58.8643 35.4956Z" fill="white"/>
<path fill-rule="evenodd" clip-rule="evenodd" d="M66.4475 35.4956L68.8861 41.1474H68.9052L70.0438 35.4956H70.9231L69.479 42.3236H68.5036L66.0841 36.7101H66.065L64.9084 42.3236H64.0281L65.4721 35.4956H66.4475Z" fill="white"/>
<path fill-rule="evenodd" clip-rule="evenodd" d="M73.2368 35.4956L75.6754 41.1474H75.6946L76.8331 35.4956H77.7124L76.2683 42.3236H75.2929L72.8734 36.7101H72.8543L71.6977 42.3236H70.8174L72.2614 35.4956H73.2368Z" fill="white"/>
<path fill-rule="evenodd" clip-rule="evenodd" d="M83.7567 35.4956L83.6037 36.2606H79.8066L79.3481 38.4315H82.886L82.7335 39.1965H79.1856L78.6883 41.5586H82.5327L82.3605 42.3236H77.6077L79.0517 35.4956H83.7567Z" fill="white"/>
<path fill-rule="evenodd" clip-rule="evenodd" d="M84.1676 35.4956H85.143L86.4054 38.1924L88.5953 35.4956H89.6186L86.807 38.8809L88.5379 42.3236H87.6007L86.2231 39.4356L83.8903 42.3236H82.8569L85.8125 38.7566L84.1676 35.4956Z" fill="white"/>
<path fill-rule="evenodd" clip-rule="evenodd" d="M96.8437 41.822C96.3432 42.2588 95.6722 42.4771 94.8306 42.4771C93.8929 42.4771 93.1714 42.2173 92.6646 41.6977C92.1578 41.1781 91.9038 40.4434 91.9038 39.4934C91.9038 38.9388 91.9899 38.4112 92.162 37.9107C92.3347 37.4103 92.5817 36.9688 92.9037 36.5863C93.2251 36.2037 93.6193 35.8993 94.0847 35.673C94.5501 35.4467 95.0724 35.3335 95.6531 35.3335C96.0223 35.3335 96.3655 35.3829 96.6806 35.4817C96.9961 35.5805 97.2708 35.7272 97.503 35.9216C97.7362 36.1161 97.919 36.3615 98.0529 36.658C98.1868 36.9544 98.2537 37.3003 98.2537 37.6956H97.3452C97.3452 37.16 97.1874 36.76 96.8724 36.4954C96.5568 36.2308 96.1498 36.0985 95.6531 36.0985C95.1744 36.0985 94.7584 36.199 94.4046 36.3998C94.0507 36.6006 93.7559 36.8604 93.52 37.1792C93.2846 37.4979 93.1077 37.8597 92.9892 38.2646C92.8713 38.6694 92.8123 39.079 92.8123 39.4934C92.8123 39.825 92.8537 40.1278 92.9366 40.4019C93.02 40.6761 93.1438 40.9104 93.3101 41.1048C93.4753 41.2993 93.6847 41.4507 93.936 41.5591C94.1878 41.6674 94.4864 41.7216 94.8306 41.7216C95.3917 41.7216 95.847 41.5734 96.1976 41.2769C96.5483 40.9805 96.7969 40.5613 96.9436 40.0194H97.852C97.6799 40.7844 97.3436 41.3853 96.8437 41.822Z" fill="white"/>
<path fill-rule="evenodd" clip-rule="evenodd" d="M99.6501 41.3486C99.8796 41.5972 100.217 41.7215 100.663 41.7215C100.963 41.7215 101.226 41.645 101.453 41.492C101.679 41.339 101.87 41.1461 102.027 40.9134C102.183 40.6807 102.3 40.4273 102.38 40.1532C102.46 39.879 102.499 39.6208 102.499 39.3786C102.499 39.1873 102.474 39.0056 102.423 38.8335C102.372 38.6613 102.293 38.5131 102.184 38.3888C102.075 38.2645 101.94 38.1657 101.778 38.0923C101.615 38.019 101.422 37.9824 101.199 37.9824C100.886 37.9824 100.613 38.0589 100.376 38.2119C100.141 38.3649 99.9434 38.5577 99.784 38.7904C99.6241 39.0231 99.5051 39.2798 99.4248 39.5603C99.3457 39.8408 99.3058 40.1086 99.3058 40.3636C99.3058 40.7716 99.42 41.0999 99.6501 41.3486ZM98.6794 39.2064C98.8032 38.8303 98.9855 38.4988 99.224 38.2119C99.4631 37.925 99.7532 37.6955 100.095 37.5233C100.436 37.3512 100.823 37.2651 101.256 37.2651C101.926 37.2651 102.436 37.4389 102.786 37.7863C103.137 38.1338 103.313 38.6422 103.313 39.3116C103.313 39.7133 103.252 40.1022 103.131 40.4783C103.009 40.8545 102.831 41.1876 102.596 41.4777C102.36 41.7677 102.073 41.9989 101.735 42.171C101.396 42.3431 101.011 42.4292 100.578 42.4292C100.253 42.4292 99.9609 42.3782 99.7027 42.2762C99.444 42.1742 99.2256 42.0323 99.0471 41.8506C98.8686 41.6689 98.7315 41.4522 98.6364 41.2003C98.5408 40.9485 98.4924 40.6728 98.4924 40.3731C98.4924 39.9715 98.5546 39.5826 98.6794 39.2064Z" fill="white"/>
<path fill-rule="evenodd" clip-rule="evenodd" d="M105.464 37.3799L105.282 38.1163L105.302 38.1354C105.512 37.8676 105.765 37.6562 106.062 37.4994C106.359 37.3432 106.679 37.2651 107.023 37.2651C107.335 37.2651 107.603 37.3321 107.826 37.466C108.049 37.5998 108.196 37.8294 108.266 38.1545C108.458 37.8867 108.705 37.6716 109.008 37.509C109.31 37.3464 109.627 37.2651 109.959 37.2651C110.131 37.2651 110.3 37.2859 110.466 37.3273C110.632 37.3687 110.78 37.4325 110.911 37.5186C111.041 37.6046 111.145 37.7178 111.222 37.858C111.298 37.9983 111.336 38.1704 111.336 38.3745C111.336 38.5211 111.32 38.6868 111.289 38.8717C111.256 39.0566 111.225 39.2192 111.192 39.3595L110.571 42.324H109.758L110.447 39.1873C110.466 39.1108 110.483 39.02 110.5 38.9148C110.515 38.8096 110.523 38.7219 110.523 38.6518C110.523 38.4605 110.452 38.3011 110.308 38.1736C110.165 38.0461 109.984 37.9824 109.768 37.9824C109.653 37.9824 109.536 38.0015 109.418 38.0397C109.301 38.078 109.188 38.1274 109.079 38.188C108.971 38.2485 108.869 38.3208 108.773 38.4031C108.678 38.486 108.595 38.5721 108.525 38.6613C108.391 38.808 108.292 38.9769 108.228 39.1682C108.164 39.3594 108.11 39.5603 108.065 39.7707L107.52 42.324H106.708L107.3 39.5029C107.345 39.3116 107.382 39.1331 107.41 38.9674C107.439 38.8016 107.453 38.69 107.453 38.6327C107.453 38.4286 107.395 38.2693 107.276 38.1545C107.158 38.0397 106.988 37.9824 106.765 37.9824C106.542 37.9824 106.32 38.0461 106.1 38.1736C105.88 38.3011 105.697 38.4478 105.55 38.6135C105.379 38.7793 105.26 38.9466 105.196 39.1156C105.133 39.2845 105.076 39.4901 105.025 39.7324L104.47 42.324H103.666L104.709 37.3799H105.464Z" fill="white"/>
<path fill-rule="evenodd" clip-rule="evenodd" d="M115.788 38.3362C115.587 38.1003 115.263 37.9824 114.817 37.9824C114.511 37.9824 114.237 38.0621 113.995 38.2214C113.752 38.3808 113.55 38.5817 113.387 38.8239C113.225 39.0662 113.101 39.3308 113.015 39.6177C112.928 39.9045 112.885 40.1787 112.885 40.4401C112.885 40.8098 112.992 41.1159 113.206 41.3581C113.419 41.6004 113.727 41.7215 114.129 41.7215C114.454 41.7215 114.737 41.6466 114.98 41.4968C115.222 41.347 115.425 41.1541 115.592 40.9182C115.757 40.6823 115.882 40.4209 115.965 40.1341C116.047 39.8472 116.089 39.5666 116.089 39.2925C116.089 38.8909 115.989 38.5721 115.788 38.3362ZM113.478 37.3799L113.306 38.0876H113.325C113.568 37.7688 113.818 37.552 114.076 37.4373C114.334 37.3225 114.629 37.2651 114.961 37.2651C115.279 37.2651 115.558 37.3145 115.797 37.4134C116.036 37.5122 116.239 37.6508 116.405 37.8294C116.57 38.0079 116.695 38.2214 116.778 38.4701C116.86 38.7187 116.902 38.9929 116.902 39.2925C116.902 39.6687 116.839 40.0432 116.715 40.4162C116.591 40.7891 116.413 41.1254 116.18 41.4251C115.947 41.7247 115.66 41.967 115.319 42.1519C114.978 42.3368 114.591 42.4292 114.157 42.4292C114.01 42.4292 113.856 42.4164 113.693 42.3909C113.531 42.3654 113.378 42.3192 113.234 42.2523C113.091 42.1853 112.963 42.0961 112.852 41.9845C112.74 41.8729 112.662 41.7343 112.618 41.5685H112.599L112.073 44.2079H111.279L112.713 37.3799H113.478Z" fill="white"/>
<path fill-rule="evenodd" clip-rule="evenodd" d="M118.283 41.5494C118.465 41.6642 118.671 41.7215 118.9 41.7215C119.544 41.7215 120.006 41.5048 120.287 41.0712C120.42 40.8864 120.511 40.6855 120.559 40.4688C120.607 40.252 120.66 40.0289 120.717 39.7994H120.698C120.583 39.8822 120.438 39.9412 120.263 39.9763C120.088 40.0113 119.901 40.0384 119.703 40.0576C119.506 40.0767 119.307 40.1006 119.106 40.1293C118.905 40.158 118.724 40.2042 118.565 40.2679C118.406 40.3317 118.275 40.4225 118.173 40.5405C118.071 40.6584 118.017 40.8226 118.01 41.033C118.01 41.2625 118.102 41.4346 118.283 41.5494ZM118.053 38.1593C118.184 37.9585 118.346 37.7911 118.537 37.6572C118.728 37.5233 118.944 37.4245 119.187 37.3608C119.429 37.297 119.681 37.2651 119.943 37.2651C120.185 37.2651 120.414 37.2843 120.631 37.3225C120.847 37.3608 121.039 37.4277 121.205 37.5233C121.371 37.619 121.503 37.7481 121.602 37.9106C121.701 38.0732 121.749 38.2788 121.749 38.5275C121.749 38.6677 121.732 38.8191 121.697 38.9817C121.662 39.1443 121.629 39.2925 121.596 39.4264L121.281 40.7748C121.262 40.8768 121.235 40.9915 121.2 41.1191C121.165 41.2466 121.148 41.3677 121.148 41.4824C121.148 41.5972 121.17 41.6769 121.214 41.7215C121.259 41.7662 121.316 41.7885 121.387 41.7885C121.425 41.7885 121.468 41.7805 121.516 41.7646C121.563 41.7486 121.607 41.7343 121.645 41.7215L121.52 42.324C121.457 42.3495 121.375 42.3734 121.277 42.3957C121.177 42.418 121.093 42.4292 121.023 42.4292C120.8 42.4292 120.631 42.3686 120.516 42.2475C120.401 42.1264 120.356 41.9574 120.382 41.7407L120.363 41.7215C120.191 41.951 119.977 42.1264 119.723 42.2475C119.468 42.3686 119.13 42.4292 118.709 42.4292C118.498 42.4292 118.302 42.4053 118.12 42.3575C117.939 42.3097 117.781 42.23 117.647 42.1184C117.514 42.0068 117.407 41.8634 117.327 41.6881C117.247 41.5127 117.208 41.2976 117.208 41.0425C117.208 40.6792 117.286 40.3954 117.442 40.1914C117.598 39.9874 117.797 39.8328 118.04 39.7276C118.282 39.6224 118.55 39.5507 118.843 39.5125C119.136 39.4742 119.42 39.4423 119.693 39.4168C119.911 39.3977 120.097 39.377 120.253 39.3547C120.41 39.3324 120.538 39.2957 120.641 39.2447C120.743 39.1937 120.818 39.1204 120.865 39.0247C120.913 38.9291 120.937 38.7984 120.937 38.6327C120.937 38.4988 120.905 38.3904 120.841 38.3075C120.777 38.2246 120.698 38.1593 120.602 38.1115C120.507 38.0637 120.399 38.0302 120.282 38.0111C120.164 37.9919 120.05 37.9824 119.943 37.9824C119.79 37.9824 119.638 37.9983 119.488 38.0302C119.338 38.0621 119.202 38.1147 119.082 38.188C118.96 38.2613 118.859 38.3537 118.776 38.4653C118.693 38.5769 118.639 38.7123 118.613 38.8717H117.8C117.839 38.5976 117.923 38.3601 118.053 38.1593Z" fill="white"/>
<path fill-rule="evenodd" clip-rule="evenodd" d="M123.92 37.3799L123.767 38.1258H123.787C123.991 37.8389 124.249 37.6238 124.561 37.4803C124.874 37.3369 125.202 37.2651 125.547 37.2651C126.012 37.2651 126.357 37.3671 126.584 37.5712C126.81 37.7752 126.923 38.0971 126.923 38.537C126.923 38.6454 126.911 38.7857 126.885 38.9578C126.86 39.1299 126.824 39.3116 126.78 39.5029L126.177 42.324H125.365L125.996 39.436C126.002 39.385 126.012 39.326 126.024 39.259C126.037 39.1921 126.05 39.122 126.063 39.0486C126.076 38.9753 126.087 38.9052 126.097 38.8383C126.106 38.7713 126.11 38.7155 126.11 38.6709C126.11 38.435 126.028 38.2613 125.862 38.1497C125.696 38.0382 125.492 37.9824 125.25 37.9824C125.027 37.9824 124.805 38.0366 124.585 38.1449C124.365 38.2539 124.179 38.3904 124.026 38.5562C123.879 38.6837 123.764 38.8383 123.682 39.02C123.599 39.2017 123.532 39.3913 123.481 39.589L122.907 42.324H122.104L123.136 37.3799H123.92Z" fill="white"/>
<path fill-rule="evenodd" clip-rule="evenodd" d="M128.597 43.6102C128.495 43.7537 128.384 43.878 128.262 43.9832C128.141 44.0884 128.004 44.1713 127.851 44.2318C127.698 44.2924 127.52 44.3227 127.316 44.3227C127.22 44.3227 127.121 44.3115 127.019 44.2892C126.917 44.2669 126.828 44.2366 126.751 44.1984L126.895 43.5385C126.959 43.5768 127.035 43.6086 127.124 43.6341C127.214 43.6596 127.29 43.6724 127.353 43.6724C127.539 43.6724 127.689 43.623 127.803 43.5242C127.918 43.4253 128.023 43.2962 128.119 43.1369L128.616 42.324L127.746 37.3799H128.616L129.19 41.3103H129.209L131.284 37.3799H132.173L128.903 43.156C128.801 43.3154 128.699 43.4668 128.597 43.6102Z" fill="white"/>
</svg>
