<svg width="20" height="17" viewBox="0 0 20 17" fill="none" xmlns="http://www.w3.org/2000/svg">
<path d="M19.1667 9.5C19.6269 9.5 20 9.1269 20 8.66667C20 8.20643 19.6269 7.83333 19.1667 7.83333L3.00497 7.83333L9.72414 1.78608C10.0662 1.4782 10.094 0.951294 9.78608 0.609203C9.4782 0.267113 8.95129 0.23938 8.60919 0.547262L0.275864 8.04726C0.100269 8.20529 0 8.43043 0 8.66667C0 8.9029 0.100267 9.12804 0.275864 9.28608L8.6092 16.7861C8.95129 17.094 9.4782 17.0662 9.78608 16.7241C10.094 16.382 10.0662 15.8551 9.72414 15.5472L3.00496 9.5L19.1667 9.5Z" fill="#005758"/>
</svg>
