<svg width="24" height="24" viewBox="0 0 24 24" fill="none" xmlns="http://www.w3.org/2000/svg">
<rect width="24" height="24" fill="white"/>
<path opacity="0.3" fill-rule="evenodd" clip-rule="evenodd" d="M2 3.25C2 2.83579 2.33579 2.5 2.75 2.5H4.38124C5.09977 2.5 5.71738 3.00953 5.85391 3.71497L6.29618 6H20.101C21.0699 6 21.7846 6.90487 21.5602 7.84744L19.7744 15.3474C19.6135 16.0231 19.0098 16.5 18.3152 16.5H8.32843L8.61876 18L18 18C19.1046 18 20 18.8954 20 20C20 21.1046 19.1046 22 18 22C16.8954 22 16 21.1046 16 20C16 19.8274 16.0219 19.6598 16.063 19.5H9.93699C9.97812 19.6598 10 19.8274 10 20C10 21.1046 9.10457 22 8 22C6.89543 22 6 21.1046 6 20C6 19.2075 6.46097 18.5226 7.12942 18.1989L4.38124 4H2.75C2.33579 4 2 3.66421 2 3.25ZM17.5 20C17.5 19.7239 17.7239 19.5 18 19.5C18.2761 19.5 18.5 19.7239 18.5 20C18.5 20.2761 18.2761 20.5 18 20.5C17.7239 20.5 17.5 20.2761 17.5 20ZM8.5 20C8.5 20.2761 8.27614 20.5 8 20.5C7.72386 20.5 7.5 20.2761 7.5 20C7.5 19.7239 7.72386 19.5 8 19.5C8.27614 19.5 8.5 19.7239 8.5 20Z" fill="#262626"/>
<path fill-rule="evenodd" clip-rule="evenodd" d="M2.75 2.5C2.33579 2.5 2 2.83579 2 3.25C2 3.66421 2.33579 4 2.75 4H4.38124L7.12942 18.1989C6.46097 18.5226 6 19.2075 6 20C6 21.1046 6.89543 22 8 22C9.10457 22 10 21.1046 10 20C10 19.8274 9.97812 19.6598 9.93699 19.5H16.063C16.0219 19.6598 16 19.8274 16 20C16 21.1046 16.8954 22 18 22C19.1046 22 20 21.1046 20 20C20 18.8954 19.1046 18 18 18L8.61876 18L8.32843 16.5H18.3152C19.0098 16.5 19.6135 16.0231 19.7744 15.3474L21.5602 7.84744C21.7846 6.90487 21.0699 6 20.101 6H6.29618L5.85391 3.71497C5.71738 3.00953 5.09977 2.5 4.38124 2.5H2.75ZM18 19.5C17.7239 19.5 17.5 19.7239 17.5 20C17.5 20.2761 17.7239 20.5 18 20.5C18.2761 20.5 18.5 20.2761 18.5 20C18.5 19.7239 18.2761 19.5 18 19.5ZM6.5865 7.5L8.03811 15H18.3152L20.101 7.5L6.5865 7.5ZM8 20.5C8.27614 20.5 8.5 20.2761 8.5 20C8.5 19.7239 8.27614 19.5 8 19.5C7.72386 19.5 7.5 19.7239 7.5 20C7.5 20.2761 7.72386 20.5 8 20.5Z" fill="#262626"/>
</svg>
