<svg width="140" height="39" viewBox="0 0 140 39" fill="none" xmlns="http://www.w3.org/2000/svg">
<g clip-path="url(#clip0_7266_619)">
<path d="M7.60113 9.38464C7.81876 8.49819 8.22748 7.66483 8.79013 6.94293C9.35278 6.22104 10.0588 5.62653 10.8709 5.19658C12.3359 4.4163 14.0345 4.23052 15.6322 4.66047L15.6694 4.67108C15.6694 4.67108 15.68 4.67108 15.68 4.68701C15.68 4.68701 15.68 4.69762 15.6694 4.70293H15.6481C12.6066 5.4089 10.3719 8.21156 10.2658 11.5822C10.2233 12.6544 10.4144 13.7266 10.8231 14.7192C11.2265 15.7012 11.837 16.5824 12.6066 17.3043L12.6172 17.3149C12.6172 17.3149 12.6225 17.3149 12.6172 17.3308C12.6172 17.3308 12.6172 17.3308 12.6066 17.3308H12.6013C11.752 17.1503 10.9505 16.8106 10.2392 16.317C9.51733 15.818 8.89629 15.1757 8.42918 14.4326C7.95677 13.6895 7.64359 12.8561 7.50558 11.9909C7.36757 11.1204 7.39942 10.2339 7.61174 9.37933" fill="#08BED5"/>
<path d="M14.6343 6.85801C15.3297 6.50237 16.0887 6.29536 16.8743 6.24759C17.6546 6.19981 18.4349 6.31659 19.1674 6.59261C20.4944 7.08626 21.5772 8.05763 22.2036 9.31033L22.2195 9.33687C22.2195 9.33687 22.2195 9.34749 22.2195 9.3528C22.2195 9.3528 22.2195 9.35811 22.2036 9.3528L22.1877 9.34218C20.0167 7.80815 16.9539 7.95147 14.7298 9.76152C14.0186 10.3348 13.4347 11.0514 13.0313 11.8635C12.6332 12.665 12.4102 13.5409 12.3784 14.4379V14.4485C12.3784 14.4485 12.3784 14.4538 12.3678 14.4538C12.3678 14.4538 12.3678 14.4538 12.3625 14.4538C11.9962 13.8116 11.7626 13.1162 11.6777 12.389C11.5875 11.6512 11.6512 10.9028 11.8635 10.1915C12.0758 9.48019 12.4315 8.81668 12.9092 8.24341C13.3869 7.67014 13.9761 7.19773 14.6449 6.85801" fill="#08BED5"/>
<path d="M13.785 0C6.18389 0 0 6.18389 0 13.785C0 21.3862 6.18389 27.57 13.785 27.57C21.3862 27.57 27.57 21.3862 27.57 13.785C27.57 6.18389 21.3862 0 13.785 0ZM26.105 13.785C26.105 20.5793 20.5793 26.105 13.785 26.105C6.99071 26.105 1.46502 20.574 1.46502 13.785C1.46502 6.99602 6.99071 1.46502 13.785 1.46502C20.5793 1.46502 26.105 6.99071 26.105 13.785Z" fill="#08BED5"/>
<path d="M15.0006 18.6791C14.8732 18.6791 14.6237 18.7109 14.6237 18.7109C14.284 18.7587 13.9443 18.7852 13.5939 18.7852C9.36342 18.7852 5.92911 15.3562 5.92911 11.1204C5.92911 9.52266 6.42806 8.05764 7.26143 6.82617C7.26143 6.82617 7.27204 6.82086 7.26143 6.80493C7.25612 6.79432 7.2455 6.80493 7.2455 6.80493C5.38768 8.55129 4.22522 11.0301 4.22522 13.7797C4.22522 19.0612 8.50351 23.3395 13.785 23.3395C14.3318 23.3395 14.8679 23.2918 15.3934 23.2068C16.4656 23.021 17.2777 22.0815 17.2777 20.9562C17.2777 19.6982 16.2586 18.6791 15.0006 18.6791Z" fill="#08BED5"/>
<path d="M39.4813 36.4451L39.2796 35.219H36.254L35.5162 36.4451H34.2317L38.149 30.0595H39.545L40.6438 36.4451H39.476H39.4813ZM38.6851 31.0468L36.7901 34.2317H39.1841L38.6851 31.0468Z" fill="#025758"/>
<path d="M45.3255 36.4451L46.5145 31.0468H44.5824L44.8 30.0595H49.7896L49.5719 31.0468H47.6398L46.4508 36.4451H45.3308H45.3255Z" fill="#025758"/>
<path d="M53.054 30.0595C54.4713 30.0595 55.7717 31.1689 55.7717 32.7985C55.7717 34.4281 54.5827 36.4451 51.6845 36.4451H49.3224L50.7291 30.0595H53.054ZM51.8862 35.4578C53.5689 35.4578 54.604 34.2635 54.604 32.8622C54.604 31.8271 53.8661 31.0415 52.8417 31.0415H51.6261L50.6495 35.4525H51.8862V35.4578Z" fill="#025758"/>
<path d="M59.1848 34.5661C59.6254 35.1712 60.4269 35.564 61.3187 35.564C62.1308 35.564 62.4652 35.065 62.4652 34.6457C62.4652 34.1945 61.892 33.9769 61.2391 33.7274C60.3579 33.393 59.3335 33.0002 59.3335 31.9492C59.3335 30.8982 60.2624 29.9693 61.7274 29.9693C62.7306 29.9693 63.6489 30.3515 64.1691 30.9938L63.4525 31.79C63.0013 31.2273 62.2476 30.9566 61.5788 30.9566C60.9737 30.9566 60.5278 31.3388 60.5278 31.7687C60.5278 32.1721 61.0851 32.3898 61.7327 32.6393C62.6245 32.9737 63.6649 33.3877 63.6649 34.4493C63.6649 35.5109 62.7731 36.5672 61.2231 36.5672C60.0182 36.5672 58.9619 36.0789 58.4683 35.3994L59.1848 34.5767V34.5661Z" fill="#025758"/>
<path d="M65.9685 36.4451L66.5524 33.7911L64.8963 30.0595H66.1118L67.269 32.7985L69.6152 30.0595H70.9634L67.6724 33.7911L67.0885 36.4451H65.9685Z" fill="#025758"/>
<path d="M74.7056 36.4451L72.455 31.5245L71.3721 36.4451H70.2521L71.6588 30.0595H72.8053L75.0082 34.8527L76.0698 30.0595H77.1898L75.7831 36.4451H74.7003H74.7056Z" fill="#025758"/>
<path d="M81.5955 36.4451L79.3448 31.5245L78.262 36.4451H77.142L78.5486 30.0595H79.6952L81.898 34.8527L82.9596 30.0595H84.0796L82.673 36.4451H81.5902H81.5955Z" fill="#025758"/>
<path d="M84.0318 36.4451L85.4385 30.0595H89.8123L89.5947 31.0468H86.3409L85.9746 32.7029H89.1647L88.9471 33.6902H85.757L85.3642 35.4631H88.618L88.4057 36.4504H84.0318V36.4451Z" fill="#025758"/>
<path d="M93.8995 36.4451L92.6097 33.9928L90.3219 36.4451H88.9046L92.0417 33.1064L90.4546 30.0648H91.7285L92.9069 32.3632L95.0142 30.0648H96.4315L93.4749 33.2444L95.1681 36.4504H93.9048L93.8995 36.4451Z" fill="#025758"/>
<path d="M102.318 29.9534C103.751 29.9534 104.654 30.6912 105.057 31.6307L103.985 32.0129C103.677 31.3069 103.029 30.9513 102.26 30.9513C100.986 30.9513 99.8286 32.0713 99.8286 33.6584C99.8286 34.7678 100.582 35.564 101.782 35.564C102.345 35.564 102.95 35.2933 103.369 34.8368L104.224 35.4313C103.518 36.2753 102.53 36.5619 101.718 36.5619C99.9879 36.5619 98.6662 35.4525 98.6662 33.7274C98.6662 31.4502 100.397 29.9534 102.323 29.9534H102.318Z" fill="#025758"/>
<path d="M107.637 31.705C109.043 31.705 109.856 32.5756 109.856 33.7911C109.856 35.2349 108.757 36.5566 107.223 36.5566C105.816 36.5566 105.004 35.6967 105.004 34.4811C105.004 33.0374 106.103 31.705 107.637 31.705ZM107.605 32.5968C106.687 32.5968 106.044 33.4992 106.044 34.4334C106.044 35.1871 106.496 35.6701 107.249 35.6701C108.168 35.6701 108.81 34.7784 108.81 33.8336C108.81 33.0745 108.359 32.5968 107.605 32.5968Z" fill="#025758"/>
<path d="M115.981 36.4451L116.634 33.4992C116.645 33.4514 116.671 33.3346 116.671 33.2125C116.671 32.8303 116.337 32.6021 115.955 32.6021C115.551 32.6021 115.142 32.91 114.861 33.2231L114.155 36.4504H113.152L113.805 33.5045C113.826 33.3983 113.842 33.324 113.842 33.1701C113.831 32.8622 113.582 32.6074 113.115 32.6074C112.711 32.6074 112.308 32.9206 112.032 33.2284L111.326 36.4557H110.323L111.347 31.8324H112.35L112.207 32.4641C112.467 32.1775 112.961 31.7156 113.635 31.7156C114.505 31.7156 114.861 32.3367 114.861 32.5278V32.5543C115.227 32.1031 115.779 31.7103 116.48 31.7103C117.181 31.7103 117.754 32.1244 117.754 32.8781C117.754 32.9949 117.727 33.1647 117.706 33.2603L117 36.4504H115.997L115.981 36.4451Z" fill="#025758"/>
<path d="M118.895 38.2074H117.892L119.309 31.8218H120.312L120.169 32.4322C120.562 31.9651 121.04 31.705 121.624 31.705C122.669 31.705 123.396 32.4057 123.396 33.6212C123.396 35.0597 122.499 36.5619 120.965 36.5619C120.296 36.5619 119.739 36.2647 119.431 35.7869L118.895 38.2074ZM121.204 32.5968C120.705 32.5968 120.265 32.894 119.989 33.255L119.596 35.0438C119.808 35.3994 120.249 35.6648 120.811 35.6648C121.719 35.6648 122.345 34.7731 122.345 33.8176C122.345 33.0692 121.868 32.5915 121.204 32.5915V32.5968Z" fill="#025758"/>
<path d="M128.089 31.8218H129.092L128.067 36.4451H127.064L127.197 35.8347C126.815 36.3018 126.337 36.5619 125.753 36.5619C124.702 36.5619 123.98 35.8719 123.98 34.6563C123.98 33.2125 124.872 31.7103 126.411 31.7103C127.07 31.7103 127.638 32.0076 127.945 32.4853L128.089 31.8271V31.8218ZM126.178 35.6702C126.666 35.6702 127.117 35.3835 127.383 35.0173L127.786 33.2284C127.574 32.8728 127.133 32.5968 126.571 32.5968C125.663 32.5968 125.037 33.4885 125.037 34.4546C125.037 35.203 125.504 35.6702 126.178 35.6702Z" fill="#025758"/>
<path d="M132.489 36.4451L133.131 33.5469C133.153 33.462 133.179 33.3558 133.179 33.2603C133.179 32.7932 132.808 32.6021 132.404 32.6021C131.847 32.6021 131.39 32.9153 131.082 33.2231L130.376 36.4504H129.373L130.398 31.8271H131.401L131.258 32.4588C131.64 32.0925 132.165 31.7103 132.839 31.7103C133.699 31.7103 134.257 32.1509 134.257 32.8781C134.257 32.963 134.23 33.1647 134.209 33.2603L133.503 36.4504H132.5L132.489 36.4451Z" fill="#025758"/>
<path d="M134.549 37.3316C134.655 37.3793 134.835 37.4059 135.01 37.4059C135.26 37.4059 135.44 37.3103 135.631 37.0237L135.998 36.4664L135.154 31.8165H136.199L136.773 35.2827L138.896 31.8165H140.005L136.56 37.2732C136.093 38.0216 135.61 38.3189 134.915 38.3189C134.676 38.3189 134.405 38.2817 134.214 38.2127L134.549 37.3316Z" fill="#025758"/>
<path d="M55.448 9.0237H53.5742C48.6908 9.0237 47.6557 12.1714 46.9232 15.1492C46.4455 17.0813 46.3712 19.0188 47.0506 20.4413C47.7141 21.8267 49.0942 22.7185 51.313 22.7185H56.9289L57.6667 19.7354H52.8258C50.7079 19.7354 49.779 19.2948 50.4849 16.3754H58.5054C58.5054 16.3754 58.7814 15.266 59.0044 14.3583C59.6732 11.6565 58.3249 9.01839 55.448 9.01839V9.0237ZM55.8567 14.1035H51.0635C51.5359 12.1024 52.1835 11.5981 53.7282 11.5981H54.1475C56.5574 11.5981 55.8567 14.1035 55.8567 14.1035Z" fill="#025758"/>
<path d="M45.0389 8.39735C45.0389 8.39735 45.5007 8.81137 45.3892 9.26787C45.2777 9.72436 42.0292 22.7238 42.0292 22.7238H37.5173L41.0897 8.39735H35.8506L36.5778 5.46199H51.0794L50.3469 8.39735H45.0336H45.0389Z" fill="#025758"/>
<path d="M87.8643 5.46199H77.986C77.986 5.46199 78.7397 6.2582 78.5911 7.08626C78.0337 9.24663 74.695 22.7238 74.695 22.7238H84.1486C87.4609 22.7238 88.91 21.073 89.8123 18.9391C90.7094 16.8106 91.5852 13.0578 91.9621 11.3274C92.753 7.65422 90.2847 5.46199 87.8696 5.46199H87.8643ZM87.8059 10.3719C87.5139 11.5769 86.4205 16.0144 86.0383 17.506C85.6136 19.1727 84.9289 19.7407 83.3577 19.7407H79.9287C79.9287 19.7407 82.4235 9.76152 82.535 9.30502C82.6464 8.84853 82.1793 8.40265 82.1793 8.40265H85.9587C87.1371 8.40265 88.1084 9.15109 87.8059 10.3719Z" fill="#025758"/>
<path d="M64.0789 15.2023C64.7477 12.5695 65.9048 11.6937 67.4495 11.6937H71.7649L72.4231 9.0237H66.8019C61.9185 9.0237 60.8834 12.1714 60.1509 15.1492C59.6732 17.0813 59.5989 19.0188 60.2783 20.4413C60.9418 21.8267 62.3219 22.7185 64.5407 22.7185H69.026L69.7532 19.7354C69.7532 19.7354 66.425 19.7354 65.9526 19.7354C63.5746 19.7354 63.4047 17.8245 64.0735 15.1917L64.0789 15.2023Z" fill="#025758"/>
<path d="M93.9685 5.73801H93.4696V7.1128H93.1192V5.73801H92.615V5.4673H93.9685V5.73801ZM95.9431 5.4673V7.1128H95.5981V6.32721L95.6353 5.89195L95.5928 6.02465L95.1841 7.1128H94.9346L94.5206 6.02465L94.4781 5.89195L94.5153 6.32721V7.1128H94.1702V5.4673H94.6108L94.9505 6.36436L95.0673 6.68285H95.0779L95.1894 6.36436L95.5344 5.4673H95.9697H95.9431Z" fill="#025758"/>
</g>
<defs>
<clipPath id="clip0_7266_619">
<rect width="140" height="38.3189" fill="white"/>
</clipPath>
</defs>
</svg>
