<svg width="140" height="38" viewBox="0 0 140 38" fill="none" xmlns="http://www.w3.org/2000/svg">
<g clip-path="url(#clip0_7266_618)">
<path d="M138.54 6.37265C138.754 6.37265 138.941 6.35701 138.941 6.10669C138.941 5.90331 138.759 5.85638 138.582 5.85638H138.243V6.37265H138.54ZM138.243 7.31134H137.987V5.64778H138.623C139.014 5.64778 139.207 5.7938 139.207 6.12234C139.207 6.41959 139.02 6.54475 138.775 6.57604L139.244 7.30613H138.967L138.529 6.58647H138.243V7.30613V7.31134ZM138.55 7.67639C139.197 7.67639 139.713 7.16532 139.713 6.47174C139.713 5.77815 139.197 5.27752 138.55 5.27752C137.904 5.27752 137.372 5.78858 137.372 6.47174C137.372 7.15489 137.893 7.67639 138.55 7.67639ZM137.08 6.47695C137.08 5.64778 137.752 5.04285 138.545 5.04285C139.338 5.04285 140 5.65299 140 6.47695C140 7.30091 139.333 7.91627 138.545 7.91627C137.758 7.91627 137.08 7.31134 137.08 6.47695Z" fill="#025758"/>
<path d="M54.569 8.60985H52.6917C47.8001 8.60985 46.7623 11.7597 46.0322 14.7478C45.5524 16.6826 45.4794 18.6277 46.1626 20.0514C46.8457 21.4751 48.212 22.3303 50.4284 22.3303H56.0501L56.7906 19.3422H51.9407C49.8234 19.3422 48.89 18.8989 49.5992 15.9785H57.6302C57.6302 15.9785 57.9066 14.8678 58.1308 13.9604C58.7983 11.2538 57.4529 8.60985 54.569 8.60985ZM54.981 13.6892H50.1833C50.6526 11.6867 51.3045 11.1808 52.8481 11.1808H53.2705C55.685 11.1808 54.981 13.6892 54.981 13.6892Z" fill="#025758"/>
<path d="M84.3254 11.9474C83.9812 13.3242 81.7336 22.3303 81.7336 22.3303H77.7911C77.7911 22.3303 79.9344 13.7518 80.2369 12.5158C80.4559 11.6293 80.044 11.2799 79.3087 11.2799H76.0389C76.0389 11.2799 76.5135 11.7127 76.4039 12.156C76.2944 12.5993 73.8643 22.3251 73.8643 22.3251H69.9218L73.8225 6.68033C74.0155 5.86159 73.2176 5.03763 73.2176 5.03763H78.1718L77.2853 8.61507H81.8223C84.242 8.61507 84.7895 10.0596 84.3202 11.9422L84.3254 11.9474Z" fill="#025758"/>
<path d="M44.1496 7.97885C44.1496 7.97885 44.6137 8.39604 44.5042 8.84974C44.3895 9.30344 41.1406 22.3251 41.1406 22.3251H36.6245L40.2019 7.97885H34.9557L35.6858 5.03763H50.2041L49.4688 7.97885H44.1496Z" fill="#025758"/>
<path d="M99.4539 5.03763H89.5612C89.5612 5.03763 90.3174 5.83551 90.1661 6.66469C89.6081 8.82888 86.2602 22.3251 86.2602 22.3251H95.7305C99.0472 22.3251 100.502 20.672 101.399 18.5339C102.301 16.401 103.177 12.641 103.553 10.9096C104.346 7.23311 101.874 5.03763 99.4539 5.03763ZM99.3966 9.95531C99.1045 11.16 98.0094 15.6031 97.6235 17.0998C97.1959 18.7685 96.5127 19.337 94.9378 19.337H91.5012C91.5012 19.337 93.9991 9.33995 94.1138 8.88625C94.2286 8.43255 93.7592 7.97885 93.7592 7.97885H97.5453C98.7238 7.97885 99.6938 8.7298 99.3966 9.95009V9.95531Z" fill="#025758"/>
<path d="M113.357 8.60985H106.202L105.54 11.2799H110.869C111.49 11.2799 112.022 11.6502 111.834 12.4011L111.673 13.0425H108.742C106.666 13.0425 103.96 13.83 103.089 17.2145C103.047 17.3814 103.011 17.543 102.979 17.6995C102.922 17.9706 102.885 18.2575 102.885 18.5495C102.885 20.7241 104.836 22.3251 106.677 22.3251H113.247C113.247 22.3251 115.37 13.7778 115.834 11.9161C116.298 10.0492 115.714 8.60985 113.357 8.60985ZM110.103 19.337H107.845C106.718 19.337 105.785 18.9146 106.171 17.3605C106.562 15.796 107.626 15.4936 108.643 15.4936H111.057L110.103 19.337Z" fill="#025758"/>
<path d="M134.921 8.60985H127.766L127.103 11.2799H132.433C133.054 11.2799 133.586 11.6502 133.398 12.4011L133.236 13.0425H130.305C128.23 13.0425 125.523 13.83 124.652 17.2145C124.611 17.3814 124.574 17.543 124.543 17.6995C124.486 17.9706 124.449 18.2575 124.449 18.5495C124.449 20.7241 126.399 22.3251 128.24 22.3251H134.811C134.811 22.3251 136.934 13.7778 137.398 11.9161C137.862 10.0492 137.278 8.60985 134.921 8.60985ZM131.667 19.337H129.408C128.282 19.337 127.349 18.9146 127.735 17.3605C128.126 15.796 129.189 15.4936 130.206 15.4936H132.621L131.667 19.337Z" fill="#025758"/>
<path d="M63.2102 14.7948C63.8829 12.1612 65.0406 11.2851 66.5842 11.2851H70.9022L71.5645 8.61507H65.9324C61.0408 8.61507 60.003 11.7649 59.2729 14.753C58.7931 16.6878 58.7201 18.6329 59.4033 20.0566C60.0656 21.4438 61.4527 22.3355 63.6691 22.3355H68.1591L68.8892 19.3474C68.8892 19.3474 65.5569 19.3474 65.0876 19.3474C62.7043 19.3474 62.5322 17.4335 63.205 14.8L63.2102 14.7948Z" fill="#025758"/>
<path d="M121.19 19.337H123.317L122.577 22.3251H117.79C116.95 22.3251 116.1 21.6367 116.439 20.2444C116.705 19.1284 118.671 11.2799 118.671 11.2799H116.929L117.591 8.60986H119.344L119.599 7.58251C119.787 6.81592 118.994 5.95024 118.994 5.95024H123.886L123.224 8.61507H125.742L125.044 11.2799H121.993C121.993 11.2799 122.447 11.7336 122.342 12.1508C122.295 12.3385 121.065 17.2458 120.741 18.5443C120.647 18.925 120.684 19.337 121.185 19.337H121.19Z" fill="#025758"/>
<path d="M7.4678 9.22C7.68161 8.34911 8.08316 7.53036 8.63594 6.82113C9.18873 6.1119 9.88231 5.52783 10.6802 5.10542C12.1195 4.33883 13.7883 4.1563 15.358 4.57871L15.3945 4.58914C15.3945 4.58914 15.4049 4.58914 15.4049 4.60479C15.4049 4.60479 15.4049 4.61522 15.3945 4.62043H15.3736C12.3855 5.31402 10.19 8.0675 10.0857 11.379C10.044 12.4324 10.2317 13.4858 10.6333 14.461C11.0296 15.4258 11.6293 16.2914 12.3855 17.0007L12.3959 17.0111C12.3959 17.0111 12.4011 17.0111 12.3959 17.0268C12.3959 17.0268 12.3959 17.0268 12.3855 17.0268H12.3803C11.5459 16.8494 10.7584 16.5157 10.0596 16.0307C9.35039 15.5405 8.74024 14.9095 8.28133 14.1794C7.8172 13.4493 7.50952 12.6306 7.37393 11.7805C7.23834 10.9253 7.26963 10.0544 7.47823 9.21479" fill="#08BED5"/>
<path d="M14.3775 6.73768C15.0607 6.38828 15.8064 6.1849 16.5782 6.13797C17.3448 6.09103 18.1114 6.20576 18.8311 6.47694C20.1348 6.96193 21.1987 7.91626 21.814 9.14698L21.8297 9.17306C21.8297 9.17306 21.8297 9.18349 21.8297 9.1887C21.8297 9.1887 21.8297 9.19392 21.814 9.1887L21.7984 9.17827C19.6655 7.67116 16.6565 7.81196 14.4714 9.59025C13.7726 10.1535 13.199 10.8575 12.8026 11.6554C12.4115 12.4428 12.1925 13.3033 12.1612 14.1846V14.195C12.1612 14.195 12.1612 14.2002 12.1508 14.2002C12.1508 14.2002 12.1508 14.2002 12.1456 14.2002C11.7857 13.5692 11.5563 12.8861 11.4728 12.1716C11.3842 11.4468 11.4468 10.7115 11.6553 10.0127C11.8639 9.31386 12.2133 8.66199 12.6827 8.09878C13.152 7.53557 13.7309 7.07144 14.388 6.73768" fill="#08BED5"/>
<path d="M13.5432 0C6.07539 0 0 6.07539 0 13.5432C0 21.011 6.07539 27.0863 13.5432 27.0863C21.011 27.0863 27.0863 21.011 27.0863 13.5432C27.0863 6.07539 21.011 0 13.5432 0ZM25.647 13.5432C25.647 20.2183 20.2183 25.647 13.5432 25.647C6.86806 25.647 1.43932 20.2131 1.43932 13.5432C1.43932 6.87328 6.86806 1.43932 13.5432 1.43932C20.2183 1.43932 25.647 6.86806 25.647 13.5432Z" fill="#08BED5"/>
<path d="M14.7374 18.3513C14.6122 18.3513 14.3671 18.3826 14.3671 18.3826C14.0334 18.4296 13.6996 18.4556 13.3554 18.4556C9.19911 18.4556 5.82505 15.0868 5.82505 10.9253C5.82505 9.35559 6.31526 7.91627 7.134 6.7064C7.134 6.7064 7.14443 6.70119 7.134 6.68554C7.12879 6.67511 7.11836 6.68554 7.11836 6.68554C5.29313 8.40126 4.15106 10.8366 4.15106 13.538C4.15106 18.7268 8.35429 22.93 13.5431 22.93C14.0803 22.93 14.607 22.8831 15.1233 22.7997C16.1767 22.6172 16.9746 21.6941 16.9746 20.5885C16.9746 19.3526 15.9733 18.3513 14.7374 18.3513Z" fill="#08BED5"/>
<path d="M38.7886 35.8057L38.5905 34.6011H35.618L34.8931 35.8057H33.6311L37.4797 29.5322H38.8512L39.9307 35.8057H38.7834H38.7886ZM38.0064 30.5021L36.1447 33.6311H38.4966L38.0064 30.5021Z" fill="#025758"/>
<path d="M44.5303 35.8057L45.6984 30.5021H43.8002L44.014 29.5322H48.916L48.7022 30.5021H46.804L45.6358 35.8057H44.5355H44.5303Z" fill="#025758"/>
<path d="M52.1232 29.5322C53.5156 29.5322 54.7933 30.6221 54.7933 32.2231C54.7933 33.824 53.6251 35.8057 50.7778 35.8057H48.4571L49.8391 29.5322H52.1232ZM50.9759 34.8357C52.6291 34.8357 53.646 33.6624 53.646 32.2856C53.646 31.2687 52.9211 30.4969 51.9146 30.4969H50.7204L49.7609 34.8305H50.9759V34.8357Z" fill="#025758"/>
<path d="M58.1465 33.9596C58.5793 34.5541 59.3668 34.94 60.2429 34.94C61.0407 34.94 61.3693 34.4498 61.3693 34.0378C61.3693 33.5946 60.8061 33.3808 60.1646 33.1357C59.299 32.8071 58.2925 32.4212 58.2925 31.3887C58.2925 30.3561 59.2051 29.4435 60.6444 29.4435C61.63 29.4435 62.5322 29.819 63.0433 30.45L62.3393 31.2322C61.896 30.6794 61.1555 30.4135 60.4984 30.4135C59.9039 30.4135 59.4658 30.7889 59.4658 31.2114C59.4658 31.6077 60.0134 31.8215 60.6496 32.0666C61.5257 32.3951 62.5479 32.8019 62.5479 33.8449C62.5479 34.8879 61.6717 35.9257 60.149 35.9257C58.9652 35.9257 57.9274 35.4459 57.4424 34.7784L58.1465 33.9701V33.9596Z" fill="#025758"/>
<path d="M64.8111 35.8057L65.3848 33.1982L63.7577 29.5322H64.9519L66.0888 32.2231L68.3938 29.5322H69.7184L66.4851 33.1982L65.9115 35.8057H64.8111Z" fill="#025758"/>
<path d="M73.3949 35.8057L71.1838 30.9715L70.1199 35.8057H69.0196L70.4015 29.5322H71.528L73.6922 34.2412L74.7352 29.5322H75.8355L74.4535 35.8057H73.3897H73.3949Z" fill="#025758"/>
<path d="M80.1639 35.8057L77.9528 30.9715L76.8889 35.8057H75.7886L77.1705 29.5322H78.297L80.4611 34.2412L81.5041 29.5322H82.6045L81.2225 35.8057H80.1587H80.1639Z" fill="#025758"/>
<path d="M82.5576 35.8057L83.9395 29.5322H88.2366L88.0228 30.5021H84.8261L84.4662 32.1292H87.6004L87.3866 33.0992H84.2524L83.8665 34.8409H87.0633L86.8547 35.8109H82.5576V35.8057Z" fill="#025758"/>
<path d="M92.2521 35.8057L90.9849 33.3964L88.7372 35.8057H87.3448L90.4269 32.5255L88.8676 29.5374H90.1192L91.2769 31.7954L93.3472 29.5374H94.7396L91.8349 32.6611L93.4985 35.8109H92.2573L92.2521 35.8057Z" fill="#025758"/>
<path d="M100.523 29.4279C101.931 29.4279 102.818 30.1527 103.214 31.0758L102.16 31.4512C101.858 30.7577 101.222 30.4083 100.466 30.4083C99.214 30.4083 98.0772 31.5086 98.0772 33.0679C98.0772 34.1578 98.8177 34.94 99.9963 34.94C100.549 34.94 101.144 34.6741 101.556 34.2256L102.395 34.8097C101.702 35.6388 100.732 35.9204 99.9337 35.9204C98.2336 35.9204 96.9351 34.8305 96.9351 33.1357C96.9351 30.8985 98.6352 29.4279 100.528 29.4279H100.523Z" fill="#025758"/>
<path d="M105.748 31.1488C107.13 31.1488 107.928 32.004 107.928 33.1983C107.928 34.6167 106.849 35.9152 105.342 35.9152C103.96 35.9152 103.162 35.0704 103.162 33.8762C103.162 32.4577 104.241 31.1488 105.748 31.1488ZM105.717 32.0249C104.815 32.0249 104.184 32.9114 104.184 33.8293C104.184 34.5698 104.627 35.0443 105.368 35.0443C106.27 35.0443 106.901 34.1682 106.901 33.24C106.901 32.4995 106.458 32.0249 105.717 32.0249Z" fill="#025758"/>
<path d="M113.946 35.8057L114.588 32.9114C114.598 32.8645 114.624 32.7498 114.624 32.6298C114.624 32.2543 114.296 32.0301 113.92 32.0301C113.524 32.0301 113.122 32.3326 112.846 32.6402L112.152 35.8109H111.167L111.808 32.9166C111.829 32.8123 111.845 32.7393 111.845 32.5881C111.834 32.2856 111.589 32.0353 111.13 32.0353C110.734 32.0353 110.337 32.343 110.066 32.6455L109.373 35.8161H108.387L109.394 31.2739H110.379L110.238 31.8945C110.494 31.6129 110.979 31.1592 111.641 31.1592C112.496 31.1592 112.846 31.7694 112.846 31.9571V31.9832C113.206 31.5399 113.748 31.154 114.436 31.154C115.125 31.154 115.688 31.5608 115.688 32.3013C115.688 32.416 115.662 32.5829 115.641 32.6768L114.947 35.8109H113.962L113.946 35.8057Z" fill="#025758"/>
<path d="M116.809 37.5371H115.824L117.216 31.2635H118.202L118.061 31.8632C118.447 31.4043 118.916 31.1488 119.49 31.1488C120.517 31.1488 121.231 31.8372 121.231 33.0314C121.231 34.4446 120.35 35.9204 118.843 35.9204C118.186 35.9204 117.638 35.6284 117.336 35.1591L116.809 37.5371ZM119.078 32.0249C118.588 32.0249 118.155 32.3169 117.884 32.6715L117.498 34.429C117.706 34.7784 118.139 35.0391 118.692 35.0391C119.584 35.0391 120.199 34.163 120.199 33.2243C120.199 32.489 119.73 32.0197 119.078 32.0197V32.0249Z" fill="#025758"/>
<path d="M125.841 31.2635H126.827L125.821 35.8057H124.835L124.965 35.206C124.59 35.6649 124.121 35.9204 123.547 35.9204C122.514 35.9204 121.805 35.2425 121.805 34.0483C121.805 32.6298 122.681 31.154 124.194 31.154C124.84 31.154 125.398 31.446 125.701 31.9154L125.841 31.2687V31.2635ZM123.964 35.0443C124.444 35.0443 124.887 34.7627 125.148 34.4029L125.544 32.6455C125.336 32.2961 124.903 32.0249 124.35 32.0249C123.458 32.0249 122.843 32.901 122.843 33.8501C122.843 34.5854 123.302 35.0443 123.964 35.0443Z" fill="#025758"/>
<path d="M130.165 35.8057L130.796 32.9584C130.816 32.8749 130.843 32.7706 130.843 32.6768C130.843 32.2178 130.478 32.0301 130.081 32.0301C129.534 32.0301 129.085 32.3378 128.783 32.6402L128.089 35.8109H127.103L128.11 31.2687H129.096L128.955 31.8893C129.33 31.5295 129.847 31.154 130.509 31.154C131.354 31.154 131.901 31.5868 131.901 32.3013C131.901 32.3847 131.875 32.5829 131.854 32.6768L131.161 35.8109H130.175L130.165 35.8057Z" fill="#025758"/>
<path d="M132.188 36.6766C132.292 36.7235 132.47 36.7496 132.642 36.7496C132.887 36.7496 133.064 36.6558 133.252 36.3741L133.612 35.8266L132.783 31.2583H133.81L134.373 34.6637L136.459 31.2583H137.549L134.164 36.6192C133.706 37.3546 133.231 37.6466 132.548 37.6466C132.313 37.6466 132.047 37.6101 131.859 37.5423L132.188 36.6766Z" fill="#025758"/>
</g>
<defs>
<clipPath id="clip0_7266_618">
<rect width="140" height="37.6466" fill="white"/>
</clipPath>
</defs>
</svg>
