<svg width="155" height="30" viewBox="0 0 155 30" fill="none" xmlns="http://www.w3.org/2000/svg">
<g clip-path="url(#clip0_2_29)">
<path d="M14.9354 0C23.1707 0 29.8707 6.69999 29.8707 14.9352C29.8707 23.1705 23.1707 29.8707 14.9354 29.8707C6.69999 29.8707 0 23.1705 0 14.9352C0 6.69999 6.69999 0 14.9354 0ZM14.9354 1.5861C7.5747 1.5861 1.58643 7.57436 1.58643 14.935C1.58643 22.2955 7.5747 28.2838 14.9354 28.2838C22.2958 28.2838 28.2841 22.2955 28.2841 14.935C28.2841 7.57436 22.2958 1.5861 14.9354 1.5861ZM7.85177 7.37734C7.85177 7.37734 7.86407 7.37009 7.87183 7.38088C7.88126 7.39403 7.8725 7.40195 7.8725 7.40195C6.96679 8.73204 6.4273 10.3217 6.4273 12.0524C6.4273 16.6376 10.1445 20.3546 14.7297 20.3546C15.1089 20.3546 15.4821 20.3257 15.8478 20.2764C15.8478 20.2764 16.1153 20.2397 16.2543 20.2397C17.6174 20.2397 18.7227 21.345 18.7227 22.7081C18.7227 23.9271 17.8397 24.9467 16.678 25.1475C16.1107 25.2434 15.5289 25.2933 14.9354 25.2933C9.21456 25.2933 4.57694 20.6558 4.57694 14.935C4.57694 11.9541 5.83624 9.26714 7.85177 7.37734ZM16.9334 5.05727L16.9721 5.06738C16.9721 5.06738 16.9841 5.07261 16.9826 5.08272C16.9826 5.08272 16.9853 5.09367 16.9692 5.09856L16.947 5.10395C13.6498 5.86422 11.2282 8.90141 11.1121 12.5536C11.0666 13.7177 11.2736 14.8782 11.719 15.9553C12.1575 17.0168 12.8174 17.9722 13.6538 18.7586L13.6632 18.7675C13.6632 18.7675 13.6707 18.7729 13.6624 18.7834C13.6624 18.7834 13.6587 18.7864 13.653 18.7851L13.646 18.7839C12.7284 18.5921 11.8575 18.2191 11.0846 17.6872C10.2998 17.1465 9.63202 16.4525 9.12237 15.6469C8.61271 14.8413 8.27126 13.9408 8.1189 12.9999C7.96654 12.0586 8.00649 11.0968 8.23586 10.1713C8.47401 9.20933 8.9122 8.30783 9.52163 7.5265C10.1311 6.74499 10.8986 6.10034 11.7736 5.63518C13.3582 4.79267 15.2037 4.58655 16.9334 5.05727ZM20.7682 7.14139C22.205 7.67514 23.3804 8.729 24.0565 10.0862L24.072 10.1167C24.072 10.1167 24.0756 10.127 24.0682 10.1317C24.0682 10.1317 24.0626 10.1395 24.0503 10.1322L24.0341 10.1211C21.6822 8.45715 18.3637 8.61659 15.9548 10.5784C15.1818 11.1984 14.5543 11.9765 14.1147 12.8585C13.6816 13.7281 13.4414 14.6783 13.4101 15.6462L13.4096 15.657C13.4096 15.657 13.4103 15.6649 13.399 15.6655C13.399 15.6655 13.3948 15.6648 13.3926 15.6606L13.3895 15.6553C12.9936 14.9674 12.7405 14.2085 12.6449 13.4224C12.5479 12.624 12.616 11.8144 12.8445 11.0425C13.0734 10.2709 13.4581 9.55298 13.9757 8.93192C14.4938 8.31086 15.1336 7.79986 15.8571 7.42959C16.6091 7.04414 17.4353 6.81915 18.2813 6.7696C19.1275 6.72005 19.9749 6.84628 20.7682 7.14139Z" fill="#08BED5"/>
<path d="M76.6977 7.58081C78.827 7.58081 80.5637 8.22782 81.8709 9.40926L80.6092 11.428C79.4979 10.3167 77.9802 9.8038 76.484 9.8038C75.0093 9.8038 74.0687 10.509 74.0687 11.5778C74.0687 12.6891 75.5223 13.0525 77.2109 13.4799C77.3049 13.5039 77.3997 13.528 77.495 13.5525L77.6382 13.5895C77.6861 13.602 77.7341 13.6145 77.7821 13.6272L77.9264 13.6656C80.094 14.2476 82.362 15.1152 82.362 17.9047C82.362 20.277 80.6947 22.3075 76.8475 22.3075C74.2849 22.3075 72.4128 21.4343 71.152 20.1433L72.4445 18.1184C73.4276 19.1657 74.9665 20.0845 76.9544 20.0845C79.0061 20.0845 79.8185 19.08 79.8185 18.1398C79.8185 16.8572 78.3008 16.4725 76.5694 16.0236L76.4994 16.0063L76.3588 15.9713C76.3353 15.9655 76.3117 15.9596 76.2881 15.9537L76.1464 15.9181C76.0281 15.8882 75.9092 15.8577 75.7901 15.8263L75.6472 15.7882C73.5748 15.2292 71.5039 14.3707 71.5039 11.7489C71.5039 9.39763 73.5772 7.58081 76.6977 7.58081ZM48.8078 7.79451V9.9961H44.4902V22.051H41.9895V9.9961H37.6721V7.79451H48.8078ZM55.9642 7.79451C60.41 7.79451 63.4238 10.7441 63.4238 14.9335C63.4238 19.1229 60.41 22.051 55.9642 22.051H50.6635V7.79451H55.9642ZM85.8249 7.79451L89.7577 13.9077L93.6477 7.79451H96.512L90.9973 16.1305V22.051H88.4966V16.1305L82.9608 7.79451H85.8249ZM100.693 7.79451L107.982 17.9047V7.79451H110.482V22.051H108.067L100.629 11.6633V22.051H98.1284V7.79451H100.693ZM116.249 7.79451L123.538 17.9047V7.79451H126.039V22.051H123.624L116.185 11.6633V22.051H113.685V7.79451H116.249ZM139.009 7.79451V9.9961H131.742V13.694H138.859V15.8952H131.742V19.8496H139.009V22.051H129.241V7.79451H139.009ZM144.334 7.79451L148.011 13.0311L151.666 7.79451H154.679L149.678 14.7198L155 22.051H152.008L148.011 16.4725L144.014 22.051H141.021L146.365 14.7411L141.342 7.79451H144.334ZM55.9642 9.9961H53.1643V19.8496H55.9642C59.0634 19.8496 60.8588 17.6266 60.8588 14.9335C60.8588 12.1763 59.1488 9.9961 55.9642 9.9961Z" fill="white"/>
</g>
<defs>
<clipPath id="clip0_2_29">
<rect width="155" height="30" fill="white"/>
</clipPath>
</defs>
</svg>
