<svg width="24" height="24" viewBox="0 0 24 24" fill="none" xmlns="http://www.w3.org/2000/svg">
<path opacity="0.3" d="M4.2097 4.3871L4.29289 4.29289C4.65338 3.93241 5.22061 3.90468 5.6129 4.2097L5.70711 4.29289L12 10.585L18.2929 4.29289C18.6834 3.90237 19.3166 3.90237 19.7071 4.29289C20.0976 4.68342 20.0976 5.31658 19.7071 5.70711L13.415 12L19.7071 18.2929C20.0676 18.6534 20.0953 19.2206 19.7903 19.6129L19.7071 19.7071C19.3466 20.0676 18.7794 20.0953 18.3871 19.7903L18.2929 19.7071L12 13.415L5.70711 19.7071C5.31658 20.0976 4.68342 20.0976 4.29289 19.7071C3.90237 19.3166 3.90237 18.6834 4.29289 18.2929L10.585 12L4.29289 5.70711C3.93241 5.34662 3.90468 4.77939 4.2097 4.3871L4.29289 4.29289L4.2097 4.3871Z" fill="#262626"/>
<path d="M4.39705 4.55379L4.46967 4.46967C4.73594 4.2034 5.1526 4.1792 5.44621 4.39705L5.53033 4.46967L12 10.939L18.4697 4.46967C18.7626 4.17678 19.2374 4.17678 19.5303 4.46967C19.8232 4.76256 19.8232 5.23744 19.5303 5.53033L13.061 12L19.5303 18.4697C19.7966 18.7359 19.8208 19.1526 19.6029 19.4462L19.5303 19.5303C19.2641 19.7966 18.8474 19.8208 18.5538 19.6029L18.4697 19.5303L12 13.061L5.53033 19.5303C5.23744 19.8232 4.76256 19.8232 4.46967 19.5303C4.17678 19.2374 4.17678 18.7626 4.46967 18.4697L10.939 12L4.46967 5.53033C4.2034 5.26406 4.1792 4.8474 4.39705 4.55379L4.46967 4.46967L4.39705 4.55379Z" fill="#262626"/>
</svg>
