<svg width="24" height="24" viewBox="0 0 24 24" fill="none" xmlns="http://www.w3.org/2000/svg">
<path opacity="0.3" d="M8.90426 16.5009H15.0957C14.4758 19.7722 13.2457 21.3678 12.0113 21.3678C10.8143 21.3678 9.59942 19.9051 8.96231 16.7954L8.90426 16.5009H15.0957H8.90426ZM3.68763 16.1915H7.81043C8.17521 18.2738 8.75706 19.2567 9.5662 20.4964C7.00336 19.7395 5.26775 19.098 4.01277 16.7954L3.68763 16.1915ZM16.2911 16.2825H20.2605C19.0292 18.7221 16.5527 20.3028 13.8884 21.0896C14.6429 19.932 15.6548 18.8147 16.0264 16.9114L16.2911 16.2825H20.2605H16.2911ZM16.6286 9.82656H21.3719C21.5031 10.4729 21.602 11.3155 21.602 12.0005C21.602 13.0458 21.4556 13.9575 21.1581 14.9047L16.6286 15.001C16.7339 14.0434 16.6286 13.0372 16.6286 12.0005C16.6286 11.5462 16.6493 11.0362 16.6286 10.5951V9.82656H21.3719H16.6286ZM2.7104 9.7277L7.29698 9.9004C7.25073 10.5503 7.2158 11.2565 7.2158 11.938C7.2158 12.7673 7.22894 13.5842 7.29698 14.3652L7.50804 15.0958L3.22182 15.1364C2.92435 14.1892 2.45621 12.9833 2.45621 11.938C2.45621 11.2529 2.5792 10.374 2.7104 9.7277ZM8.46072 9.7277H15.5358C15.5861 10.3733 15.7569 11.3148 15.7569 12.0005C15.7569 12.8382 15.4616 13.6506 15.3877 14.4263L15.326 15.001H8.67396C8.56091 14.0552 8.27938 13.0476 8.27938 12.0005C8.27938 11.4862 8.18487 10.8966 8.21361 10.404L8.46072 9.7277H15.5358H8.46072ZM14.0175 3.23277L14.8313 3.06323C17.8496 3.9542 19.7624 5.64087 20.8556 8.5666L16.394 8.71381C16.0785 6.29689 14.8978 4.66355 14.0175 3.23277L14.8313 3.06323L14.0175 3.23277ZM8.62019 3.06518L10.0116 2.5771C9.13088 3.92661 8.62704 5.63576 8.27938 7.96038L7.70196 8.8265L3.44101 8.65025C4.51947 5.76398 5.65855 3.98089 8.62019 3.06518L10.0116 2.5771L8.62019 3.06518ZM12 2.00198C13.3188 2.00198 14.6456 4.54373 15.214 8.18543L15.2608 8.50023H8.73918C9.27859 4.69105 10.6435 2.00198 12 2.00198Z" fill="#262626"/>
<path d="M12 1.99896C17.5237 1.99896 22.0015 6.47681 22.0015 12.0005C22.0015 17.5242 17.5237 22.0021 12 22.0021C6.47626 22.0021 1.99841 17.5242 1.99841 12.0005C1.99841 6.47681 6.47626 1.99896 12 1.99896ZM14.9389 16.5003H9.06106C9.7131 18.9144 10.8465 20.5021 12 20.5021C13.1535 20.5021 14.2868 18.9144 14.9389 16.5003ZM7.50827 16.5008L4.78579 16.5007C5.74413 18.0337 7.17757 19.2393 8.87996 19.9113C8.35768 19.0915 7.92669 18.0652 7.60969 16.8958L7.50827 16.5008ZM19.2141 16.5007L16.4917 16.5008C16.1679 17.8346 15.7003 19.0004 15.1189 19.9114C16.7159 19.2813 18.0756 18.1824 19.0289 16.7842L19.2141 16.5007ZM7.09339 9.99986H3.73578L3.73102 10.0171C3.57894 10.6534 3.49841 11.3176 3.49841 12.0005C3.49841 13.0567 3.691 14.0678 4.04298 15.0008L7.21614 15.0005C7.07384 14.0514 6.99841 13.0431 6.99841 12.0005C6.99841 11.3165 7.03088 10.6473 7.09339 9.99986ZM15.3969 9.99993H8.60304C8.53501 10.6402 8.49841 11.3099 8.49841 12.0005C8.49841 13.06 8.58456 14.0703 8.73815 15.0006H15.2618C15.4154 14.0703 15.5015 13.06 15.5015 12.0005C15.5015 11.3099 15.4649 10.6402 15.3969 9.99993ZM20.2646 9.99903L16.9065 9.99988C16.9691 10.6473 17.0015 11.3165 17.0015 12.0005C17.0015 13.0431 16.9261 14.0514 16.7838 15.0005L19.9569 15.0008C20.3089 14.0678 20.5015 13.0567 20.5015 12.0005C20.5015 11.3111 20.4195 10.6409 20.2646 9.99903ZM8.88101 4.08967L8.85811 4.09838C6.81079 4.91309 5.15478 6.5004 4.25011 8.50027L7.29823 8.50063C7.61159 6.74784 8.15843 5.22192 8.88101 4.08967ZM12 3.49896L11.8843 3.50426C10.6189 3.62002 9.39639 5.62198 8.82868 8.50021H15.1713C14.6051 5.63005 13.3879 3.63125 12.1263 3.50528L12 3.49896ZM15.12 4.08972L15.2268 4.26382C15.896 5.37629 16.4041 6.83617 16.7017 8.50063L19.7498 8.50027C18.8852 6.58886 17.3342 5.05432 15.4112 4.211L15.12 4.08972Z" fill="#262626"/>
</svg>
