<svg width="24" height="24" viewBox="0 0 24 24" fill="none" xmlns="http://www.w3.org/2000/svg">
<path opacity="0.3" d="M12 17C13.1046 17 14 17.8954 14 19C14 20.1046 13.1046 21 12 21C10.8954 21 10 20.1046 10 19C10 17.8954 10.8954 17 12 17ZM19 17C20.1046 17 21 17.8954 21 19C21 20.1046 20.1046 21 19 21C17.8954 21 17 20.1046 17 19C17 17.8954 17.8954 17 19 17ZM5 17C6.10457 17 7 17.8954 7 19C7 20.1046 6.10457 21 5 21C3.89543 21 3 20.1046 3 19C3 17.8954 3.89543 17 5 17ZM12 10C13.1046 10 14 10.8954 14 12C14 13.1046 13.1046 14 12 14C10.8954 14 10 13.1046 10 12C10 10.8954 10.8954 10 12 10ZM19 10C20.1046 10 21 10.8954 21 12C21 13.1046 20.1046 14 19 14C17.8954 14 17 13.1046 17 12C17 10.8954 17.8954 10 19 10ZM5 10C6.10457 10 7 10.8954 7 12C7 13.1046 6.10457 14 5 14C3.89543 14 3 13.1046 3 12C3 10.8954 3.89543 10 5 10ZM12 3C13.1046 3 14 3.89543 14 5C14 6.10457 13.1046 7 12 7C10.8954 7 10 6.10457 10 5C10 3.89543 10.8954 3 12 3ZM19 3C20.1046 3 21 3.89543 21 5C21 6.10457 20.1046 7 19 7C17.8954 7 17 6.10457 17 5C17 3.89543 17.8954 3 19 3ZM5 3C6.10457 3 7 3.89543 7 5C7 6.10457 6.10457 7 5 7C3.89543 7 3 6.10457 3 5C3 3.89543 3.89543 3 5 3Z" fill="#262626"/>
<path d="M12 17.5C12.8284 17.5 13.5 18.1716 13.5 19C13.5 19.8284 12.8284 20.5 12 20.5C11.1716 20.5 10.5 19.8284 10.5 19C10.5 18.1716 11.1716 17.5 12 17.5ZM19 17.5C19.8284 17.5 20.5 18.1716 20.5 19C20.5 19.8284 19.8284 20.5 19 20.5C18.1716 20.5 17.5 19.8284 17.5 19C17.5 18.1716 18.1716 17.5 19 17.5ZM5 17.5C5.82843 17.5 6.5 18.1716 6.5 19C6.5 19.8284 5.82843 20.5 5 20.5C4.17157 20.5 3.5 19.8284 3.5 19C3.5 18.1716 4.17157 17.5 5 17.5ZM12 10.5C12.8284 10.5 13.5 11.1716 13.5 12C13.5 12.8284 12.8284 13.5 12 13.5C11.1716 13.5 10.5 12.8284 10.5 12C10.5 11.1716 11.1716 10.5 12 10.5ZM19 10.5C19.8284 10.5 20.5 11.1716 20.5 12C20.5 12.8284 19.8284 13.5 19 13.5C18.1716 13.5 17.5 12.8284 17.5 12C17.5 11.1716 18.1716 10.5 19 10.5ZM5 10.5C5.82843 10.5 6.5 11.1716 6.5 12C6.5 12.8284 5.82843 13.5 5 13.5C4.17157 13.5 3.5 12.8284 3.5 12C3.5 11.1716 4.17157 10.5 5 10.5ZM12 3.5C12.8284 3.5 13.5 4.17157 13.5 5C13.5 5.82843 12.8284 6.5 12 6.5C11.1716 6.5 10.5 5.82843 10.5 5C10.5 4.17157 11.1716 3.5 12 3.5ZM19 3.5C19.8284 3.5 20.5 4.17157 20.5 5C20.5 5.82843 19.8284 6.5 19 6.5C18.1716 6.5 17.5 5.82843 17.5 5C17.5 4.17157 18.1716 3.5 19 3.5ZM5 3.5C5.82843 3.5 6.5 4.17157 6.5 5C6.5 5.82843 5.82843 6.5 5 6.5C4.17157 6.5 3.5 5.82843 3.5 5C3.5 4.17157 4.17157 3.5 5 3.5Z" fill="#262626"/>
</svg>
