<svg width="24" height="24" viewBox="0 0 24 24" fill="none" xmlns="http://www.w3.org/2000/svg">
<path opacity="0.3" d="M7.88525 14.2487L6.91117 15.2166L6.89838 15.2294C6.54535 15.5663 5.98427 15.562 5.63655 15.2165C5.28445 14.8667 5.28445 14.2995 5.63655 13.9496L6.61062 12.9818C6.96272 12.6319 7.53359 12.6319 7.88569 12.9818C8.23211 13.326 8.23421 13.9053 7.88525 14.2487ZM7.62054 17.1883C7.97264 17.5382 8.54351 17.5382 8.8956 17.1883L9.86968 16.2205C10.2218 15.8706 10.4651 15.1899 10.113 14.84C9.81855 14.5474 8.86862 14.6792 8.59506 14.9535L7.62098 15.9214C7.27202 16.2648 7.27411 16.8441 7.62054 17.1883ZM5.50058 11.4079C5.85268 11.7578 5.85268 12.325 5.50058 12.6748L4.52651 13.6427C4.17441 13.9925 3.60355 13.9925 3.25145 13.6427C2.89935 13.2928 2.89935 12.7256 3.25145 12.3758L4.22552 11.4079C4.57762 11.0581 5.14849 11.0581 5.50058 11.4079ZM12.0386 16.6484C12.3907 16.9983 12.2063 17.8424 11.8542 18.1922C11.4877 18.5563 11.113 19.1005 10.6395 19.3312C10.303 19.4952 9.88489 19.4381 9.60502 19.1601C9.32516 18.882 9.26774 18.4666 9.43278 18.1322C9.6828 17.6278 10.1905 17.3114 10.5791 16.9253C10.9312 16.5755 11.6865 16.2986 12.0386 16.6484ZM5.63655 5.12227C7.03219 3.73555 9.11712 3.28645 9.86968 3.40273C10.6222 3.519 11.3099 3.71033 12.5635 3.83338C13.8171 3.95643 16.4851 4.02154 16.7151 4.06335C16.945 4.10516 18.4637 4.53101 19.412 5.86131C20.3603 7.1916 19.8679 11.1076 19.8679 11.1076C19.8679 11.1076 21.6748 13.6845 21.2012 14.1302C20.7276 14.576 20.5961 14.8716 19.8679 14.7377C19.1397 14.6038 19.3771 15.4399 18.5964 16.2205C17.9371 16.8798 17.8388 16.2762 17.1896 16.9253C17.0024 17.1125 16.9667 17.8911 16.4374 18.1922C15.9081 18.4933 15.1664 18.4389 14.8199 19.4117C14.4734 20.3844 13.7476 20.354 13.2115 20.16L12.0386 19.4186L12.5635 18.8971C13.3074 18.1579 13.3074 16.9596 12.5635 16.2205C12.1709 15.8303 11.6495 15.6461 11.1352 15.6679C11.1571 15.1569 10.9717 14.6389 10.5791 14.2487C10.1865 13.8587 9.66532 13.6745 9.15123 13.6961C9.17309 13.1852 8.9877 12.6671 8.59506 12.277C8.09544 11.7805 7.38734 11.6175 6.75081 11.7879C6.69715 11.3912 6.51687 11.008 6.20996 10.7031C5.52352 10.021 4.80058 9.89376 4.05337 10.4705C3.59161 8.48091 4.07639 6.67244 5.63655 5.12227Z" fill="#262626"/>
<path d="M12.2407 2.96436C12.0063 2.96436 11.797 3.07187 11.6595 3.24027L11.6024 3.28349C9.45801 2.63342 7.03194 3.15095 5.33598 4.83605C3.82743 6.33495 3.24863 8.40781 3.59957 10.3472L3.58455 10.3619L2.6274 11.313C1.7951 12.1399 1.7951 13.4807 2.6274 14.3077C3.11636 14.7935 3.78381 14.9939 4.42002 14.9089C4.51377 15.2552 4.6974 15.5824 4.9709 15.8542C5.34265 16.2236 5.81755 16.428 6.30347 16.4674C6.34307 16.9503 6.54878 17.4223 6.92061 17.7917C7.30952 18.1782 7.81134 18.384 8.32054 18.4093C8.34607 18.9151 8.55325 19.4136 8.94208 19.8C9.70236 20.5554 10.8942 20.6207 11.7291 19.9961L12.1156 20.3801C12.952 21.2111 14.3079 21.2111 15.1443 20.3801C15.5147 20.012 15.721 19.5429 15.7633 19.0621C16.2462 19.021 16.7177 18.8169 17.0874 18.4495C17.4581 18.0812 17.6636 17.6114 17.7043 17.1303C18.1809 17.0858 18.6453 16.8822 19.0104 16.5193C19.2966 16.235 19.4844 15.89 19.5738 15.526C20.2005 15.6004 20.854 15.3986 21.3349 14.9208C22.1672 14.0938 22.1672 12.753 21.3349 11.9261L20.5014 11.0979L20.6727 10.4314C21.045 8.98211 20.8578 7.44696 20.1482 6.12852C19.1007 4.18203 17.0615 2.96936 14.8448 2.96936L13.2381 2.96936C13.1696 2.96604 13.1008 2.96436 13.0316 2.96436H12.2407ZM15.1649 7.90948L18.6286 11.351L18.6325 11.3551L18.6458 11.3687L20.2708 12.9833C20.5155 13.2264 20.5155 13.6205 20.2708 13.8636C20.0262 14.1066 19.6296 14.1066 19.3849 13.8636L17.7599 12.2489C17.4661 11.957 16.9897 11.957 16.6959 12.2489L16.6796 12.2651C16.3857 12.557 16.3857 13.0304 16.6796 13.3223L17.9464 14.5811C18.1912 14.8243 18.1912 15.2188 17.9464 15.4621C17.7232 15.6838 17.3724 15.7038 17.1274 15.5206C16.8267 15.2958 16.4051 15.3263 16.1403 15.5921C15.8756 15.8578 15.8491 16.277 16.0784 16.5735C16.2668 16.8171 16.2481 17.169 16.0234 17.3923C15.7968 17.6174 15.4389 17.6344 15.1934 17.4424C14.8947 17.2087 14.4674 17.2332 14.1977 17.4995C13.9279 17.7658 13.9006 18.1902 14.1339 18.4885C14.3276 18.7361 14.3093 19.0952 14.0802 19.3229C13.8315 19.5699 13.4284 19.5699 13.1797 19.3229L12.808 18.9535L12.9132 18.8489C13.7455 18.022 13.7455 16.6812 12.9132 15.8542C12.5243 15.4678 12.0225 15.2619 11.5133 15.2366C11.4878 14.7308 11.2806 14.2323 10.8918 13.846C10.52 13.4766 10.0451 13.2722 9.55922 13.2328C9.51962 12.7499 9.3139 12.2779 8.94208 11.9084C8.45311 11.4226 7.78567 11.2222 7.14945 11.3072C7.0557 10.9609 6.87208 10.6337 6.59857 10.3619C6.16723 9.93335 5.597 9.72688 5.03184 9.74253C4.88504 8.36979 5.34111 6.94546 6.40004 5.8933C7.38426 4.91538 8.69207 4.45492 9.98101 4.51193L8.48356 5.64646C7.45969 6.42219 7.26245 7.87945 8.04327 8.89944C8.82232 9.91711 10.2805 10.1145 11.302 9.34051L13.1908 7.90948H15.1649ZM9.3894 6.84206L12.5277 4.46436H13.0316C13.0811 4.46436 13.1302 4.46568 13.1789 4.46829C13.1922 4.46901 13.2056 4.46936 13.219 4.46936H14.8448C16.513 4.46936 18.043 5.38196 18.8274 6.83936C19.3221 7.75863 19.4773 8.81783 19.2712 9.83455L16.0591 6.63809C15.9178 6.49198 15.7232 6.40948 15.52 6.40948L12.9388 6.40948C12.7752 6.40948 12.6162 6.46293 12.4858 6.56168L10.3962 8.1449C10.0326 8.42035 9.5116 8.34983 9.23434 7.98765C8.95886 7.62779 9.02817 7.11574 9.3894 6.84206ZM6.03496 14.7969C5.86706 14.6301 5.81439 14.3921 5.87697 14.1807C5.90557 14.0841 5.95823 13.993 6.03496 13.9167L6.99212 12.9657C7.23675 12.7226 7.63338 12.7226 7.87802 12.9657C8.11986 13.206 8.12262 13.5939 7.8863 13.8375L7.87776 13.846L6.92061 14.797L6.91236 14.8052C6.8374 14.877 6.74888 14.9266 6.65519 14.9539C6.44237 15.0161 6.20287 14.9638 6.03496 14.7969ZM5.54368 11.4285C5.61917 11.5066 5.67014 11.5995 5.69659 11.6976C5.75261 11.9054 5.6986 12.1364 5.53451 12.2994L4.57736 13.2504C4.33272 13.4935 3.93609 13.4935 3.69146 13.2504C3.44682 13.0074 3.44682 12.6133 3.69146 12.3702L4.64861 11.4192C4.89325 11.1761 5.28988 11.1761 5.53451 11.4192L5.54368 11.4285ZM10.892 18.7427C10.8152 18.8191 10.7233 18.8715 10.6258 18.8998C10.4132 18.9618 10.1739 18.9094 10.0061 18.7427C9.83837 18.576 9.78565 18.3383 9.84799 18.127C9.87655 18.0301 9.92926 17.9389 10.0061 17.8625L10.9633 16.9115C11.2079 16.6684 11.6046 16.6684 11.8492 16.9115C12.0938 17.1545 12.0938 17.5486 11.8492 17.7917L10.892 18.7427ZM8.87057 16.7345C8.7939 16.8107 8.7023 16.863 8.60513 16.8914C8.39225 16.9537 8.15263 16.9014 7.98467 16.7345C7.8167 16.5676 7.76406 16.3295 7.82675 16.118C7.85432 16.025 7.9042 15.9371 7.97639 15.8626L7.98492 15.8542L8.94208 14.9032L8.95032 14.8949C9.19556 14.6602 9.5859 14.6629 9.82772 14.9032C10.0724 15.1463 10.0724 15.5404 9.82772 15.7835L8.87057 16.7345Z" fill="#262626"/>
</svg>
