<svg width="24" height="24" viewBox="0 0 24 24" fill="none" xmlns="http://www.w3.org/2000/svg">
<path opacity="0.3" fill-rule="evenodd" clip-rule="evenodd" d="M12 11.5C14.7614 11.5 17 9.26142 17 6.5C17 3.73858 14.7614 1.5 12 1.5C9.23858 1.5 7 3.73858 7 6.5C7 9.26142 9.23858 11.5 12 11.5ZM12 13C13.75 13 15 12 15 12C17.8361 12.7191 20.7566 15.7963 21 19C19.006 21.4164 15.2387 23 12 23C8.76149 23 4.99401 21.4164 3 19C3.24344 15.7963 6.16385 12.7191 9 12C9 12 10.25 13 12 13Z" fill="#262626"/>
<path fill-rule="evenodd" clip-rule="evenodd" d="M15.5 6.5C15.5 8.433 13.933 10 12 10C10.067 10 8.5 8.433 8.5 6.5C8.5 4.567 10.067 3 12 3C13.933 3 15.5 4.567 15.5 6.5ZM17 6.5C17 9.26142 14.7614 11.5 12 11.5C9.23858 11.5 7 9.26142 7 6.5C7 3.73858 9.23858 1.5 12 1.5C14.7614 1.5 17 3.73858 17 6.5ZM3 19C3.24344 15.7963 6.16385 12.7191 9 12C9 12 10.25 13 12 13C13.75 13 15 12 15 12C17.8361 12.7191 20.7566 15.7963 21 19C19.006 21.4164 15.2387 23 12 23C8.76149 23 4.99401 21.4164 3 19ZM14.7949 13.8572C14.9479 13.7852 15.0872 13.713 15.2117 13.6438C16.1173 14.0043 17.0618 14.6731 17.8491 15.5625C18.6465 16.4633 19.2023 17.499 19.4173 18.5136C17.6512 20.2868 14.6296 21.5 12 21.5C9.37059 21.5 6.34884 20.2868 4.58268 18.5136C4.79773 17.4989 5.35348 16.4633 6.1509 15.5625C6.93822 14.6731 7.8827 14.0043 8.78827 13.6438C8.91276 13.713 9.05207 13.7852 9.20505 13.8572C9.87118 14.1707 10.8422 14.5 12 14.5C13.1578 14.5 14.1288 14.1707 14.7949 13.8572Z" fill="#262626"/>
</svg>
