<svg width="24" height="24" viewBox="0 0 24 24" fill="none" xmlns="http://www.w3.org/2000/svg">
<path opacity="0.3" d="M17.5 10C17.5 5.85786 14.1421 2.5 10 2.5C5.85786 2.5 2.5 5.85786 2.5 10C2.5 14.1421 5.85786 17.5 10 17.5C11.7101 17.5 13.2866 16.9276 14.5483 15.964L19.2929 20.7071L19.3871 20.7903C19.7794 21.0953 20.3466 21.0676 20.7071 20.7071C21.0976 20.3166 21.0976 19.6834 20.7071 19.2929L15.964 14.5483C16.9276 13.2866 17.5 11.7101 17.5 10Z" fill="#262626"/>
<path d="M10 2.75C14.0041 2.75 17.25 5.99594 17.25 10C17.25 11.7319 16.6427 13.3219 15.6295 14.5688L20.5303 19.4697C20.8232 19.7626 20.8232 20.2374 20.5303 20.5303C20.2641 20.7966 19.8474 20.8208 19.5538 20.6029L19.4697 20.5303L14.5688 15.6295C13.3219 16.6427 11.7319 17.25 10 17.25C5.99594 17.25 2.75 14.0041 2.75 10C2.75 5.99594 5.99594 2.75 10 2.75ZM10 4.25C6.82436 4.25 4.25 6.82436 4.25 10C4.25 13.1756 6.82436 15.75 10 15.75C13.1756 15.75 15.75 13.1756 15.75 10C15.75 6.82436 13.1756 4.25 10 4.25Z" fill="#262626"/>
</svg>
